<svg id="Crest" xmlns="http://www.w3.org/2000/svg" xmlns:xlink="http://www.w3.org/1999/xlink" viewBox="0 0 199.77 257.3"><defs><style>.cls-1{fill:none;clip-rule:evenodd;}.cls-10,.cls-2,.cls-4,.cls-7{fill:#fff;}.cls-2,.cls-5,.cls-6,.cls-9{fill-rule:evenodd;}.cls-3,.cls-6,.cls-9{fill:#002856;}.cls-10,.cls-4{stroke:#002856;}.cls-10,.cls-4,.cls-6{stroke-miterlimit:10;}.cls-4{stroke-width:1.37px;}.cls-5{fill:#00a7e1;}.cls-6{stroke:#fff;stroke-width:2.74px;}.cls-8{clip-path:url(#clip-path);}.cls-10{stroke-width:1.37px;}</style><clipPath id="clip-path" transform="translate(-52.09 -31.11)"><path class="cls-1" d="M232.3,87.89H70.62c-2.3,13.9-5.79,43.21-1.3,74.83,7.84,55.17,35.47,92,82.14,109.52,46.67-17.52,74.3-54.35,82.14-109.52C238.09,131.1,234.6,101.79,232.3,87.89Z"/></clipPath></defs><path class="cls-2" d="M152.14,283.85C280.26,239.2,241.88,76.92,241.88,76.92H62.06S23.68,239.2,151.8,283.85Z" transform="translate(-52.09 -31.11)"/><path class="cls-3" d="M152.91,288.41H151l-.73-.25C96.19,269.3,63,226.46,54.36,164.27c-6.46-46.46,2.86-86.71,3.26-88.4l.83-3.52h187l.83,3.52c.4,1.69,9.72,41.94,3.26,88.4-8.65,62.19-41.83,105-95.94,123.89ZM65.77,81.48c-2.08,10.74-7.54,44.64-2.33,81.79C71.68,222,101.47,261,152,279.07,202.55,261,232.34,221.91,240.54,163c5.16-37.1-.29-70.82-2.37-81.53Z" transform="translate(-52.09 -31.11)"/><polygon class="cls-4" points="52.44 2.22 56.61 15.06 70.11 15.06 59.19 23 63.36 35.84 52.44 27.9 41.51 35.84 45.69 23 34.76 15.06 48.27 15.06 52.44 2.22"/><polygon class="cls-4" points="99.39 2.22 103.56 15.06 117.06 15.06 106.14 23 110.31 35.84 99.39 27.9 88.46 35.84 92.64 23 81.71 15.06 95.21 15.06 99.39 2.22"/><polygon class="cls-4" points="145.31 2.22 149.49 15.06 162.99 15.06 152.06 23 156.24 35.84 145.31 27.9 134.39 35.84 138.56 23 127.64 15.06 141.14 15.06 145.31 2.22"/><path class="cls-5" d="M232.3,87.89H70.62c-2.3,13.9-5.79,43.21-1.3,74.83,7.84,55.17,35.47,92,82.14,109.52,46.67-17.52,74.3-54.35,82.14-109.52C238.09,131.1,234.6,101.79,232.3,87.89Z" transform="translate(-52.09 -31.11)"/><path class="cls-6" d="M103.57,114.58c-1.87,8.07-4.14,17.84-7.6,32.75h47l-3.71,16H84.39c-4.87,0-7.78-4.59-6.48-10.21l10.27-44.25c1.31-5.62,6.35-10.21,11.23-10.21H154.3l-3.7,16Z" transform="translate(-52.09 -31.11)"/><path class="cls-6" d="M174,114.58c-1.87,8.07-4.14,17.84-7.6,32.75h47l-3.71,16H154.78c-4.88,0-7.79-4.59-6.49-10.21l10.27-44.25c1.31-5.62,6.35-10.21,11.23-10.21h54.89l-3.7,16Z" transform="translate(-52.09 -31.11)"/><rect class="cls-7" x="16.32" y="141.34" width="166.77" height="11.84"/><g class="cls-8"><polygon class="cls-9" points="33.2 153.48 10.75 245.84 24.49 245.86 46.94 153.5 33.2 153.48"/><polygon class="cls-9" points="57.7 153.48 35.25 245.84 48.98 245.86 71.43 153.5 57.7 153.48"/><polygon class="cls-9" points="82.19 153.48 59.74 245.84 73.48 245.86 95.92 153.5 82.19 153.48"/><polygon class="cls-9" points="106.68 153.48 84.24 245.84 97.97 245.86 120.42 153.5 106.68 153.48"/><polygon class="cls-9" points="131.18 153.48 108.73 245.84 122.47 245.86 144.91 153.5 131.18 153.48"/><polygon class="cls-9" points="155.67 153.48 133.23 245.84 146.96 245.86 169.41 153.5 155.67 153.48"/></g><polygon class="cls-10" points="99.58 165.68 105.44 183.72 124.41 183.72 109.06 194.87 114.92 212.91 99.58 201.76 84.23 212.91 90.09 194.87 74.75 183.72 93.72 183.72 99.58 165.68"/></svg>