<?xml version="1.0" encoding="utf-8"?>
<!-- Generator: Adobe Illustrator 25.2.3, SVG Export Plug-In . SVG Version: 6.00 Build 0)  -->
<svg version="1.1" xmlns="http://www.w3.org/2000/svg" xmlns:xlink="http://www.w3.org/1999/xlink" x="0px" y="0px"
	 viewBox="0 0 745.97 205.01" style="enable-background:new 0 0 745.97 205.01;" xml:space="preserve">
<style type="text/css">
	.st0{fill-rule:evenodd;clip-rule:evenodd;fill:#00A7E1;}
	.st1{fill-rule:evenodd;clip-rule:evenodd;fill:#002856;}
	.st2{fill-rule:evenodd;clip-rule:evenodd;fill:#00A7E1;stroke:#FFFFFF;stroke-miterlimit:10;}
	.st3{fill-rule:evenodd;clip-rule:evenodd;fill:#FFFFFF;stroke:#002856;stroke-miterlimit:10;}
	.st4{fill-rule:evenodd;clip-rule:evenodd;fill:#FFFFFF;}
	.st5{fill:#002856;}
	.st6{fill-rule:evenodd;clip-rule:evenodd;fill:#002856;stroke:#FFFFFF;stroke-width:1.0061;stroke-miterlimit:10;}
	.st7{clip-path:url(#SVGID_2_);}
	.st8{fill:#FFFFFF;stroke:#002856;stroke-width:0.503;stroke-miterlimit:10;}
</style>
<g id="Base_and_Tag">
	<polygon class="st0" points="695.63,65.31 442.07,65.31 427.19,122.24 680.66,122.24 	"/>
	<polygon class="st1" points="442.05,65.31 76.3,65.31 61.35,122.24 427.17,122.24 	"/>
	<path class="st2" d="M130.04,112.78c-3.39,0-5.41-2.76-4.5-6.15c2.23-8.33,4.46-16.66,6.7-24.99c0.91-3.39,4.41-6.15,7.8-6.15
		c11.32,0,22.63,0,33.94,0c3.39,0,5.41,2.76,4.5,6.15c-2.23,8.33-4.46,16.66-6.7,24.99c-0.91,3.39-4.41,6.15-7.8,6.15
		C152.67,112.78,141.36,112.78,130.04,112.78L130.04,112.78z M142.55,84.7c-3.03,11.31-1.85,6.92-5.06,18.88c8,0,15.99,0,23.99,0
		c3.21-11.96,2.03-7.57,5.06-18.88C158.54,84.7,150.54,84.7,142.55,84.7z"/>
	<path class="st3" d="M596.37,103.58c4.09-15.25,0.75-2.81,7.52-28.08c-13.37,0,2.24,0-11.13,0l-8.41,31.4
		c-0.87,3.24,1.07,5.89,4.31,5.89h36.54l2.47-9.2C617.24,103.58,606.8,103.58,596.37,103.58z"/>
	<path class="st3" d="M641.82,103.58c4.09-15.25,0.75-2.81,7.52-28.08c-13.37,0,2.24,0-11.13,0l-8.41,31.4
		c-0.87,3.24,1.07,5.89,4.31,5.89h36.54l2.47-9.2C662.68,103.58,652.25,103.58,641.82,103.58z"/>
	<path class="st2" d="M386.67,89.14c3.24,0.01,5.17,2.65,4.3,5.89c-0.94,3.51-2.24,8.35-3.18,11.87c-0.87,3.24-4.22,5.89-7.47,5.89
		c-13.28,0-25.44,0-38.71,0l2.47-9.2c11.33,0,21.53,0,32.86,0l1.38-5.16c-9.39,0-18.75,0.03-28.11,0c-3.23-0.01-5.16-2.65-4.29-5.89
		c1.01-3.76,2.01-7.52,3.02-11.28c0.85-3.17,4.13-5.76,7.3-5.76c13.32,0,25.19,0,38.51,0l-2.47,9.2h-32.52l-1.19,4.44H386.67z"/>
	<path class="st2" d="M95.2,84.7c-1.25,4.65-2.76,10.28-5.06,18.88c10.43,0,20.87,0,31.3,0l-2.47,9.2H82.44
		c-3.25,0-5.18-2.65-4.31-5.89l6.84-25.51c0.87-3.24,4.22-5.89,7.47-5.89h36.54l-2.47,9.2C116.07,84.7,105.63,84.7,95.2,84.7z"/>
	<path class="st3" d="M502.61,84.7c-1.25,4.65-2.76,10.28-5.06,18.88c10.43,0,20.87,0,31.3,0l-2.47,9.2h-36.54
		c-3.25,0-5.18-2.65-4.31-5.89l6.84-25.51c0.87-3.24,4.22-5.89,7.47-5.89h36.54l-2.47,9.2C523.48,84.7,513.04,84.7,502.61,84.7z"/>
	<path class="st2" d="M245.63,84.7c-1.25,4.65-2.76,10.28-5.06,18.88c10.43,0,20.87,0,31.3,0l-2.47,9.2h-36.54
		c-3.25,0-5.18-2.65-4.31-5.89l6.84-25.51c0.87-3.24,4.22-5.89,7.47-5.89h36.54l-2.47,9.2C266.5,84.7,256.06,84.7,245.63,84.7z"/>
	<polygon class="st2" points="284.19,75.49 295.32,75.49 291.45,89.96 311.62,89.96 315.49,75.49 326.62,75.49 316.63,112.78 
		305.5,112.78 309.49,97.89 289.32,97.89 285.33,112.78 274.2,112.78 	"/>
	<path class="st2" d="M224.49,112.78h-11.94l-1.52-6.02h-20.85l-4.75,6.02H173.5l29.63-37.29h11.71L224.49,112.78L224.49,112.78z
		 M209.03,98.83l-3.06-12.09l-9.54,12.09H209.03z"/>
	<path class="st3" d="M580.69,112.78h-11.94l-1.52-6.02h-20.85l-4.75,6.02H529.7l29.63-37.29h11.71L580.69,112.78L580.69,112.78z
		 M565.23,98.83l-3.06-12.09l-9.54,12.09H565.23z"/>
	<path class="st2" d="M331.12,75.26h14.35l-3.18,11.87h0c-1.11,4.15-5.45,7.57-9.63,7.57h-4.37l2.03-7.57h-2.38L331.12,75.26z"/>
</g>
<g id="Crest">
	<g>
		<g>
			<g>
				<path class="st4" d="M442.53,133.48c46.99-16.37,32.92-75.9,32.92-75.9h-32.98h-32.98c0,0-14.08,59.52,32.92,75.9H442.53z"/>
				<path class="st5" d="M442.82,135.15h-0.69l-0.27-0.09c-19.85-6.92-32.01-22.63-35.19-45.44c-2.37-17.04,1.05-31.8,1.19-32.42
					l0.31-1.29h68.6l0.31,1.29c0.15,0.62,3.56,15.38,1.19,32.42c-3.17,22.81-15.34,38.52-35.19,45.44L442.82,135.15z M410.85,59.25
					c-0.76,3.94-2.77,16.37-0.86,30c3.02,21.55,13.95,35.84,32.47,42.48c18.55-6.64,29.48-20.96,32.48-42.57
					c1.89-13.61-0.11-25.98-0.87-29.9H410.85z"/>
			</g>
		</g>
		<polygon class="st5" points="425.07,41.59 426.6,46.3 431.55,46.3 427.54,49.21 429.07,53.92 425.07,51.01 421.06,53.92 
			422.59,49.21 418.58,46.3 423.54,46.3 		"/>
		<polygon class="st5" points="442.29,41.59 443.82,46.3 448.77,46.3 444.76,49.21 446.29,53.92 442.29,51.01 438.28,53.92 
			439.81,49.21 435.8,46.3 440.76,46.3 		"/>
		<polygon class="st5" points="459.13,41.59 460.66,46.3 465.61,46.3 461.61,49.21 463.14,53.92 459.13,51.01 455.13,53.92 
			456.66,49.21 452.65,46.3 457.6,46.3 		"/>
		<path class="st0" d="M471.93,61.6h-29.65h-29.65c-0.84,5.1-2.13,15.85-0.48,27.45c2.87,20.24,13.01,33.74,30.13,40.17
			c17.12-6.43,27.25-19.94,30.13-40.17C474.06,77.45,472.78,66.7,471.93,61.6z"/>
		<path class="st6" d="M424.72,71.39c-0.69,2.96-1.52,6.54-2.79,12.01c5.75,0,11.5,0,17.25,0l-1.36,5.85h-20.13
			c-1.79,0-2.86-1.68-2.38-3.75l3.77-16.23c0.48-2.06,2.33-3.75,4.12-3.75h20.14l-1.36,5.86C436.22,71.39,430.47,71.39,424.72,71.39
			z"/>
		<path class="st6" d="M450.53,71.39c-0.69,2.96-1.52,6.54-2.79,12.01c5.75,0,11.5,0,17.25,0l-1.36,5.85H443.5
			c-1.79,0-2.86-1.68-2.38-3.75l3.77-16.23c0.48-2.06,2.33-3.75,4.12-3.75h20.14l-1.36,5.86C462.03,71.39,456.28,71.39,450.53,71.39
			z"/>
		<rect x="411.82" y="92.62" class="st4" width="61.17" height="4.34"/>
		<g>
			<defs>
				<path id="SVGID_1_" d="M471.93,61.6h-29.65h-29.65c-0.84,5.1-2.13,15.85-0.48,27.45c2.87,20.24,13.01,33.74,30.13,40.17
					c17.12-6.43,27.25-19.94,30.13-40.17C474.06,77.45,472.78,66.7,471.93,61.6z"/>
			</defs>
			<clipPath id="SVGID_2_">
				<use xlink:href="#SVGID_1_"  style="overflow:visible;"/>
			</clipPath>
			<g class="st7">
				<polygon class="st1" points="418.01,97.08 409.78,130.95 414.82,130.96 423.05,97.08 				"/>
			</g>
			<g class="st7">
				<polygon class="st1" points="427,97.08 418.76,130.95 423.8,130.96 432.03,97.08 				"/>
			</g>
			<g class="st7">
				<polygon class="st1" points="435.98,97.08 427.75,130.95 432.78,130.96 441.02,97.08 				"/>
			</g>
			<g class="st7">
				<polygon class="st1" points="444.96,97.08 436.73,130.95 441.77,130.96 450,97.08 				"/>
			</g>
			<g class="st7">
				<polygon class="st1" points="453.95,97.08 445.71,130.95 450.75,130.96 458.99,97.08 				"/>
			</g>
			<g class="st7">
				<polygon class="st1" points="462.93,97.08 454.7,130.95 459.74,130.96 467.97,97.08 				"/>
			</g>
		</g>
		<polygon class="st8" points="442.36,101.55 444.51,108.17 451.46,108.17 445.84,112.26 447.99,118.87 442.36,114.78 
			436.73,118.87 438.88,112.26 433.25,108.17 440.21,108.17 		"/>
	</g>
</g>
</svg>
