<?xml version="1.0" encoding="utf-8"?>
<!-- Generator: Adobe Illustrator 25.4.1, SVG Export Plug-In . SVG Version: 6.00 Build 0)  -->
<svg version="1.1" id="Layer_1" xmlns="http://www.w3.org/2000/svg" xmlns:xlink="http://www.w3.org/1999/xlink" x="0px" y="0px"
	 viewBox="0 0 634.3 93.6" style="enable-background:new 0 0 634.3 93.6;" xml:space="preserve">
<style type="text/css">
	.logo0{fill-rule:evenodd;clip-rule:evenodd;fill:#00A7E1;}
	.logo1{fill-rule:evenodd;clip-rule:evenodd;fill:#002856;}
	.logo2{fill-rule:evenodd;clip-rule:evenodd;fill:#00A7E1;stroke:#FFFFFF;stroke-miterlimit:10;}
	.st3{fill-rule:evenodd;clip-rule:evenodd;fill:#FFFFFF;stroke:#002856;stroke-miterlimit:10;}
	.st4{fill-rule:evenodd;clip-rule:evenodd;fill:#FFFFFF;}
	.st5{fill:#002856;}
	.st6{fill-rule:evenodd;clip-rule:evenodd;fill:#002856;stroke:#FFFFFF;stroke-width:1.0061;stroke-miterlimit:10;}
	.st7{clip-path:url(#SVGID_00000093144705630372538540000000193391494811341756_);}
	.st8{clip-path:url(#SVGID_00000072961703915092250840000008367931902911769749_);}
	.st9{clip-path:url(#SVGID_00000139294344167444891830000012312890721475046798_);}
	.logo10{clip-path:url(#SVGID_00000179612030663346085290000008141226650289857191_);}
	.logo11{clip-path:url(#SVGID_00000042734853284822882690000004840093065130610063_);}
	.logo12{clip-path:url(#SVGID_00000139990387234825750810000017934032727981209521_);}
	.logo13{fill:#FFFFFF;stroke:#002856;stroke-width:0.503;stroke-miterlimit:10;}
</style>
<g id="Base_and_Tag">
	<polygon class="logo0" points="634.3,23.7 380.7,23.7 365.8,80.6 619.3,80.6 	"/>
	<polygon class="logo1" points="380.7,23.7 15,23.7 0,80.6 365.8,80.6 	"/>
	<path class="logo2" d="M68.7,71.2c-3.4,0-5.4-2.8-4.5-6.2c2.2-8.3,4.5-16.7,6.7-25c0.9-3.4,4.4-6.2,7.8-6.2c11.3,0,22.6,0,33.9,0
		c3.4,0,5.4,2.8,4.5,6.2c-2.2,8.3-4.5,16.7-6.7,25c-0.9,3.4-4.4,6.2-7.8,6.2C91.3,71.2,80,71.2,68.7,71.2L68.7,71.2z M81.2,43.1
		c-3,11.3-1.9,6.9-5.1,18.9c8,0,16,0,24,0c3.2-12,2-7.6,5.1-18.9C97.2,43.1,89.2,43.1,81.2,43.1z"/>
	<path class="st3" d="M535,62c4.1-15.2,0.8-2.8,7.5-28.1c-13.4,0,2.2,0-11.1,0L523,65.3c-0.9,3.2,1.1,5.9,4.3,5.9h36.5l2.5-9.2
		C555.9,62,545.5,62,535,62z"/>
	<path class="st3" d="M580.5,62c4.1-15.2,0.8-2.8,7.5-28.1c-13.4,0,2.2,0-11.1,0l-8.4,31.4c-0.9,3.2,1.1,5.9,4.3,5.9h36.5l2.5-9.2
		C601.3,62,590.9,62,580.5,62z"/>
	<path class="logo2" d="M325.3,47.5c3.2,0,5.2,2.7,4.3,5.9c-0.9,3.5-2.2,8.3-3.2,11.9c-0.9,3.2-4.2,5.9-7.5,5.9c-13.3,0-25.4,0-38.7,0
		l2.5-9.2c11.3,0,21.5,0,32.9,0l1.4-5.2c-9.4,0-18.8,0-28.1,0c-3.2,0-5.2-2.7-4.3-5.9c1-3.8,2-7.5,3-11.3c0.9-3.2,4.1-5.8,7.3-5.8
		c13.3,0,25.2,0,38.5,0l-2.5,9.2h-32.5l-1.2,4.4C297.2,47.6,325.3,47.6,325.3,47.5z"/>
	<path class="logo2" d="M33.8,43.1c-1.2,4.7-2.8,10.3-5.1,18.9c10.4,0,20.9,0,31.3,0l-2.5,9.2H21.1c-3.2,0-5.2-2.6-4.3-5.9l6.8-25.5
		c0.9-3.2,4.2-5.9,7.5-5.9h36.5l-2.5,9.2C54.7,43.1,44.3,43.1,33.8,43.1z"/>
	<path class="st3" d="M441.3,43.1c-1.2,4.7-2.8,10.3-5.1,18.9c10.4,0,20.9,0,31.3,0l-2.5,9.2h-36.5c-3.2,0-5.2-2.6-4.3-5.9l6.8-25.5
		c0.9-3.2,4.2-5.9,7.5-5.9H475l-2.5,9.2C462.1,43.1,451.7,43.1,441.3,43.1z"/>
	<path class="logo2" d="M184.3,43.1c-1.2,4.7-2.8,10.3-5.1,18.9c10.4,0,20.9,0,31.3,0l-2.5,9.2h-36.5c-3.2,0-5.2-2.6-4.3-5.9l6.8-25.5
		c0.9-3.2,4.2-5.9,7.5-5.9H218l-2.5,9.2C205.1,43.1,194.7,43.1,184.3,43.1z"/>
	<polygon class="logo2" points="222.8,33.9 234,33.9 230.1,48.4 250.3,48.4 254.1,33.9 265.3,33.9 255.3,71.2 244.1,71.2 248.1,56.3 
		228,56.3 224,71.2 212.9,71.2 	"/>
	<path class="logo2" d="M163.1,71.2h-11.9l-1.5-6h-20.9l-4.7,6h-11.9l29.6-37.3h11.7L163.1,71.2L163.1,71.2z M147.7,57.2l-3.1-12.1
		l-9.5,12.1H147.7z"/>
	<path class="st3" d="M519.3,71.2h-11.9l-1.5-6H485l-4.8,6h-11.9L498,33.9h11.7L519.3,71.2L519.3,71.2z M503.9,57.2l-3.1-12.1
		l-9.5,12.1H503.9z"/>
	<path class="logo2" d="M269.8,33.7h14.4l-3.2,11.9l0,0c-1.1,4.2-5.5,7.6-9.6,7.6h-4.4l2-7.6h-2.4L269.8,33.7z"/>
</g>
<g id="Crest">
	<g>
		<g>
			<g>
				<path class="st4" d="M381.2,91.9c47-16.4,32.9-75.9,32.9-75.9h-33h-33c0,0-14.1,59.5,32.9,75.9H381.2z"/>
				<path class="st5" d="M381.5,93.6h-0.7l-0.3-0.1c-19.9-6.9-32-22.6-35.2-45.4c-2.4-17,1-31.8,1.2-32.4l0.3-1.3h68.6l0.3,1.3
					c0.1,0.6,3.6,15.4,1.2,32.4c-3.2,22.8-15.3,38.5-35.2,45.4L381.5,93.6z M349.5,17.7c-0.8,3.9-2.8,16.4-0.9,30
					c3,21.6,14,35.8,32.5,42.5c18.5-6.6,29.5-21,32.5-42.6c1.9-13.6-0.1-26-0.9-29.9L349.5,17.7L349.5,17.7z"/>
			</g>
		</g>
		<polygon class="st5" points="363.7,0 365.2,4.7 370.2,4.7 366.2,7.6 367.7,12.3 363.7,9.4 359.7,12.3 361.2,7.6 357.2,4.7 
			362.2,4.7 		"/>
		<polygon class="st5" points="380.9,0 382.5,4.7 387.4,4.7 383.4,7.6 384.9,12.3 380.9,9.4 376.9,12.3 378.5,7.6 374.4,4.7 
			379.4,4.7 		"/>
		<polygon class="st5" points="397.8,0 399.3,4.7 404.3,4.7 400.3,7.6 401.8,12.3 397.8,9.4 393.8,12.3 395.3,7.6 391.3,4.7 
			396.2,4.7 		"/>
		<path class="logo0" d="M410.6,20h-29.6h-29.6c-0.8,5.1-2.1,15.8-0.5,27.5c2.9,20.2,13,33.7,30.1,40.2c17.1-6.4,27.2-19.9,30.1-40.2
			C412.7,35.9,411.4,25.1,410.6,20z"/>
		<path class="st6" d="M363.4,29.8c-0.7,3-1.5,6.5-2.8,12c5.8,0,11.5,0,17.2,0l-1.4,5.8h-20.1c-1.8,0-2.9-1.7-2.4-3.8l3.8-16.2
			c0.5-2.1,2.3-3.8,4.1-3.8H382l-1.4,5.9C374.9,29.8,369.1,29.8,363.4,29.8z"/>
		<path class="st6" d="M389.2,29.8c-0.7,3-1.5,6.5-2.8,12c5.8,0,11.5,0,17.2,0l-1.4,5.8h-20.1c-1.8,0-2.9-1.7-2.4-3.8l3.8-16.2
			c0.5-2.1,2.3-3.8,4.1-3.8h20.1l-1.4,5.9C400.7,29.8,394.9,29.8,389.2,29.8z"/>
		<rect x="350.5" y="51" class="st4" width="61.2" height="4.3"/>
		<g>
			<g>
				<defs>
					<path id="SVGID_1_" d="M410.6,20h-29.6h-29.6c-0.8,5.1-2.1,15.8-0.5,27.5c2.9,20.2,13,33.7,30.1,40.2
						c17.1-6.4,27.2-19.9,30.1-40.2C412.7,35.9,411.4,25.1,410.6,20z"/>
				</defs>
				<clipPath id="SVGID_00000099650057324197918900000000097217185651266977_">
					<use xlink:href="#SVGID_1_"  style="overflow:visible;"/>
				</clipPath>
				<g style="clip-path:url(#SVGID_00000099650057324197918900000000097217185651266977_);">
					<polygon class="logo1" points="356.7,55.5 348.4,89.4 353.5,89.4 361.7,55.5 					"/>
				</g>
			</g>
			<g>
				<defs>
					<path id="SVGID_00000135653635493271589130000011219965393190961598_" d="M410.6,20h-29.6h-29.6c-0.8,5.1-2.1,15.8-0.5,27.5
						c2.9,20.2,13,33.7,30.1,40.2c17.1-6.4,27.2-19.9,30.1-40.2C412.7,35.9,411.4,25.1,410.6,20z"/>
				</defs>
				<clipPath id="SVGID_00000127030644565702385390000016389608555670208159_">
					<use xlink:href="#SVGID_00000135653635493271589130000011219965393190961598_"  style="overflow:visible;"/>
				</clipPath>
				<g style="clip-path:url(#SVGID_00000127030644565702385390000016389608555670208159_);">
					<polygon class="logo1" points="365.6,55.5 357.4,89.4 362.4,89.4 370.7,55.5 					"/>
				</g>
			</g>
			<g>
				<defs>
					<path id="SVGID_00000057112608149156510950000002662213578842104234_" d="M410.6,20h-29.6h-29.6c-0.8,5.1-2.1,15.8-0.5,27.5
						c2.9,20.2,13,33.7,30.1,40.2c17.1-6.4,27.2-19.9,30.1-40.2C412.7,35.9,411.4,25.1,410.6,20z"/>
				</defs>
				<clipPath id="SVGID_00000127740515474779821780000007629776708455394739_">
					<use xlink:href="#SVGID_00000057112608149156510950000002662213578842104234_"  style="overflow:visible;"/>
				</clipPath>
				<g style="clip-path:url(#SVGID_00000127740515474779821780000007629776708455394739_);">
					<polygon class="logo1" points="374.6,55.5 366.4,89.4 371.4,89.4 379.7,55.5 					"/>
				</g>
			</g>
			<g>
				<defs>
					<path id="SVGID_00000168085230366730916360000005139417836496280218_" d="M410.6,20h-29.6h-29.6c-0.8,5.1-2.1,15.8-0.5,27.5
						c2.9,20.2,13,33.7,30.1,40.2c17.1-6.4,27.2-19.9,30.1-40.2C412.7,35.9,411.4,25.1,410.6,20z"/>
				</defs>
				<clipPath id="SVGID_00000145742255904439775960000018000781779522480020_">
					<use xlink:href="#SVGID_00000168085230366730916360000005139417836496280218_"  style="overflow:visible;"/>
				</clipPath>
				<g style="clip-path:url(#SVGID_00000145742255904439775960000018000781779522480020_);">
					<polygon class="logo1" points="383.6,55.5 375.4,89.4 380.4,89.4 388.6,55.5 					"/>
				</g>
			</g>
			<g>
				<defs>
					<path id="SVGID_00000165199593616890914600000012721019980161876364_" d="M410.6,20h-29.6h-29.6c-0.8,5.1-2.1,15.8-0.5,27.5
						c2.9,20.2,13,33.7,30.1,40.2c17.1-6.4,27.2-19.9,30.1-40.2C412.7,35.9,411.4,25.1,410.6,20z"/>
				</defs>
				<clipPath id="SVGID_00000143593671371785681970000010065995042140496260_">
					<use xlink:href="#SVGID_00000165199593616890914600000012721019980161876364_"  style="overflow:visible;"/>
				</clipPath>
				<g style="clip-path:url(#SVGID_00000143593671371785681970000010065995042140496260_);">
					<polygon class="logo1" points="392.6,55.5 384.4,89.4 389.4,89.4 397.6,55.5 					"/>
				</g>
			</g>
			<g>
				<defs>
					<path id="SVGID_00000122704793165768228800000008836669026077837440_" d="M410.6,20h-29.6h-29.6c-0.8,5.1-2.1,15.8-0.5,27.5
						c2.9,20.2,13,33.7,30.1,40.2c17.1-6.4,27.2-19.9,30.1-40.2C412.7,35.9,411.4,25.1,410.6,20z"/>
				</defs>
				<clipPath id="SVGID_00000023961028291742564630000001613218142566566062_">
					<use xlink:href="#SVGID_00000122704793165768228800000008836669026077837440_"  style="overflow:visible;"/>
				</clipPath>
				<g style="clip-path:url(#SVGID_00000023961028291742564630000001613218142566566062_);">
					<polygon class="logo1" points="401.6,55.5 393.4,89.4 398.4,89.4 406.6,55.5 					"/>
				</g>
			</g>
		</g>
		<polygon class="logo13" points="381,60 383.2,66.6 390.1,66.6 384.5,70.7 386.6,77.3 381,73.2 375.4,77.3 377.5,70.7 371.9,66.6 
			378.9,66.6 		"/>
	</g>
</g>
</svg>
