<?xml version="1.0" encoding="utf-8"?>
<!-- Generator: Adobe Illustrator 26.0.1, SVG Export Plug-In . SVG Version: 6.00 Build 0)  -->
<svg version="1.1" id="map" xmlns="http://www.w3.org/2000/svg" xmlns:xlink="http://www.w3.org/1999/xlink" x="0px" y="0px"
	 viewBox="0 0 1884.4 1314.2" style="enable-background:new 0 0 1884.4 1314.2;" xml:space="preserve">
<style type="text/css">
	.st0{fill:#B2B2B2;}
	.st1{fill:#00A7E1;}
	.map-hidden{display:none;}
	.st4{fill:#002856;}
	.st5{fill:#FFFFFF;}
	.st7{font-size:36.7692px;}
	.st8{font-size:59.75px;}
</style>
<g id="US">
	<path class="st0" d="M398.2,905.5c-4.3-1.1-8.7-1.4-12.9-1.7c-1.9-0.1-3.9-0.3-5.8-0.5c-17.2-1.9-34.7-3.6-51.6-5.2l-6.1-0.6
		c-1.4-0.1-2.1-0.7-2.9-2.3c-2.7-5-5.3-10-8-14.9c-4.8-8.8-9.7-18-14.4-27c-2.8-5.4-6.4-10.2-10-14.8c-1.5-2-3-4-4.5-6
		c-1.3-1.8-2.9-2.2-4-2.2c-0.2,0-0.4,0-0.5,0c-0.8,0.1-1.7,0.1-2.5,0.1c-9,0-14.6-5.9-21.1-13.7c-0.1-0.2-0.3-0.3-0.4-0.5
		c-0.3-0.3-0.5-0.6-0.7-0.9c-5.4-8.6-14.4-10.4-22.4-11.3c-1.1-0.1-2.1-0.3-3.2-0.5c-0.5-0.1-0.9-0.2-1.4-0.3
		c-3.3-0.6-5.5-1.8-6.7-3.7c-1.1-1.8-1.2-4.2-0.3-7.2c1.9-6.3,1.5-12.1-1.3-18.8c-4.4-10.6-8.7-21.6-12.8-32.1
		c-1.9-4.9-3.8-9.8-5.7-14.7c-1.3-3.3-2-6.8-2.6-10.5c-0.4-2.1-0.8-4.3-1.3-6.4c-0.1-0.2,0.1-0.5,0.5-1.2c0.1-0.2,0.3-0.4,0.4-0.6
		c1.9-3.5,4.1-7.7,5.6-12.3c1.4-4.3,0.5-7.6-2.8-10.3c-3-2.5-6-5.2-9.2-8.2c-1.7-1.5-2.3-3-2-4.6c2-11-2.1-20.6-6.1-29.8
		c-3.6-8.3-7.6-16.6-11.5-24.6c-1.1-2.2-2.1-4.4-3.2-6.5c-1.6-3.3-2.3-6.2-2.3-9.3c0-2.4,0-4.8,0-7.2c0-7.9,0-16.1,1-24.1
		c0.9-6.6-1-13.5-2.7-19.5c-0.3-1.2-0.6-2.3-0.9-3.5c-1.7-6.2-3.4-12.7-6.2-18.7V528l3.5-5.1c5.4-8,10.9-16.1,16.3-24.1
		c1-1.5,1.1-3,1-4c-0.1-3.2-0.1-6.5,0-9.7c0.1-5.3,0.2-10.8-0.5-16.2l5.8,1.7c5.9,1.8,11.8,3.5,17.7,5.3c6,1.8,12.1,3.6,18.1,5.4
		c15.4,4.6,31.4,9.4,47.1,14.2c3.5,1.1,7.1,2.1,10.5,3.1c7,2,14.2,4.1,21.1,6.7l-2.5,10.5c-2.2,9-4.4,17.9-6.5,26.8l-1.9,7.7
		c-5.5,22.5-11,44.9-16.5,67.4c-0.8,3-0.3,5.5,1.4,7.8c11,14.9,22.1,29.7,33.1,44.6c9.6,13,19.3,26,28.9,39
		c20.5,27.7,41.1,55.3,61.6,83c3.8,5.1,7.7,10.3,11.4,15.3c1.7,2.3,3.5,4.6,5.2,6.9l2.1,3.6c1.7,2.9,3.4,5.8,5.1,8.7l0.1,0.2
		c0.8,1.2,1.4,2.3,1.2,3.5c-0.9,5.4,0.9,9.7,5.3,12.9c0.8,0.6,1,1,1,1.1c0,0-0.1,0.4-1.2,1.2c-7.6,4.8-13.3,11.3-17.4,16.5
		c-1.5,1.9-2.8,4.3-0.7,7.5c0.5,0.8,0.8,1.5,0.7,1.9c-0.1,0.2-0.4,0.8-2,1.5c-7,3.3-7.5,4-6.7,11.7v0.2c0,0.2,0,0.4,0,0.4
		c-0.4,2.8-1.5,11.3,8.1,13.5c-2.1,1.7-4.2,3.5-6.2,5.2C399.5,904.4,398.8,904.9,398.2,905.5z"/>
	<path class="st0" d="M1709,366.8c-1.9-4.3-3.8-8.6-5.7-12.9c-2.9-6.6-5.8-13.2-8.7-19.9c-5-11.5-10-23.1-15-34.6l-6.3-14.5
		c-0.6-6.2,1.2-11.9,3.2-18c0.6-2,1.3-4,1.8-6c1.7-6.1,1.8-12.2,0.5-18.1c-3.2-14.1-0.7-27.7,1.9-38.1c1.4-5.4,2.6-11.2,3.7-17.2
		c0.2-0.9,0.4-1.2,0.4-1.3c0.1,0,0.2,0,0.4,0.1c1.9,0.9,3.7,1.3,5.4,1.3c5.1,0,8.3-3.8,11.1-7.2c0.4-0.4,0.8-0.9,1.2-1.4h0.5
		c2.9,1.6,6.1,2.5,9.2,3.3c1.4,0.4,2.8,0.8,4.2,1.2c2.7,0.9,4.2,2.1,5.4,4.6c3.7,7.5,7.6,15.1,11.4,22.5c3.4,6.6,6.9,13.5,10.2,20.3
		c0.6,1.3,1.9,3.9,4.8,3.9c0.7,0,1.3-0.1,2.1-0.4c0,0,0.1,0,0.2,0c1.1-0.1,2.3-0.1,3.3-0.1c3.1,0,3.7,0,4,6.3
		c0.2,3.9,1.9,5.9,5.2,5.9c0.5,0,1,0,1.5-0.1c0.4-0.1,0.8-0.1,1.2-0.1c2.4,0,3.5,1.4,5.4,4.8c4.3,7.7,3.4,13.6-3.2,20.7
		c-4.9,5.2-9.2,11.1-13.4,16.7c-1.8,2.4-3.6,4.9-5.4,7.2c-1.5,1.9-2,2-2,2c-0.1,0-0.6-0.1-2.1-1.9c-0.9-1.1-1.6-2.4-2.4-3.8
		c-0.7-1.2-1.3-2.5-2.2-3.8c-0.3-0.4-0.8-0.7-1.3-0.7c-0.1,0-0.2,0-0.3,0c-0.6,0.1-1.1,0.6-1.3,1.2c-0.6,2.2-1.1,4.4-1.7,6.5
		c-1.4,5.4-2.7,10.4-3.9,15.6c-0.6,2.4-1.5,4.2-3.2,5.6c-0.4,0.4-0.8,0.7-1.1,1.1c-0.4,0.4-0.7,0.8-1.1,1
		c-8.7,6.3-13.5,15.5-15,28.8c-0.6,5.5-1.5,11.1-2.3,16.5C1709.3,364.8,1709.1,365.8,1709,366.8z"/>
	<path id="TX" class="st0" d="M983.4,1193.2c-5.6,0-11.4-1.8-17-3.5c-11.7-3.5-22.9-8.5-33.8-13.2c-1.8-0.8-3.6-1.6-5.3-2.3
		c-0.9-0.4-1.5-0.9-1.8-1.9c-2-5.1-4.6-9.8-7.8-14c-3.9-5.1-5.8-10.8-5.6-16.8c0.3-9.8-4.4-17.4-8.9-23.4
		c-13.2-17.6-25.6-35.1-35.9-50c-3.1-4.4-7.1-8.1-12.7-11.7c-3.3-2.2-5.3-4.3-6.2-7.1c-0.9-2.6-2.7-3.8-5.6-4
		c-4.8-0.2-9.8-0.7-14.5-1c-1.4-0.1-2.8-0.2-4.2-0.3c-0.7-0.1-1.3-0.1-2-0.1c-3.5-0.2-6.8-0.4-9.6-2.3c-0.6-0.4-1.5-0.9-2.5-0.9
		c-0.6,0-1.1,0.2-1.6,0.5c-1.2,0.8-2.5,1.5-3.9,2.2c-3.1,1.6-6.3,3.3-8.5,6.7c-1.2,1.9-2.5,3.9-3.7,5.8c-4.3,6.8-8.8,13.9-13.1,20.9
		c-0.7,1.2-1.1,1.4-1.2,1.4c-0.1,0-0.5-0.1-1.4-0.6c-14-8.8-28.2-17.5-41.5-25.7c-1.6-1-2.2-1.7-2.2-3c0-0.9-0.2-1.8-0.4-2.6
		c-0.2-0.7-0.3-1.4-0.3-2.1c-0.5-7.1-3.6-13-6.7-18.8c-0.4-0.8-0.9-1.7-1.3-2.5c-7.5-14.6-19.4-24.1-28.9-30.8
		c-2.5-1.8-3.6-3.3-3.6-5.4c-0.1-3.4-2.2-5.3-4.2-6.7c-4.8-3.3-9.7-6.8-14.3-10.2c-1.6-1.2-3.2-2.3-4.8-3.5c0-0.2,0-0.5,0-0.7
		c0-1,0-1.8,0-2.5c0-0.8,0-1.7,0-2.1c0.2,0,0.5,0,1,0c0.3,0,0.8,0,1.2,0c0.6,0,1.3,0,2.2,0h5c15.2,0,30.4,0,45.6,0
		c23,0,41.9,0,59.5,0.1h0.1c1.7,0,3.6-0.2,4.9-1.5c1.3-1.3,1.5-3.2,1.5-5.1c-0.1-46.6-0.1-94-0.1-139.9v-26.2c0-1.2,0-2.3,0.1-3.5
		v-0.1c6.8,0,13.5,0,20.3,0c23.3,0,47.3,0,71-0.1c1.4,0,2.3,0.2,2.6,0.5c0.4,0.4,0.6,1.3,0.5,2.9c-0.1,16-0.1,32.2-0.1,47.9
		c0,5.4,0,10.8,0,16.2v0.3c0,1.7,0,3.8,2.2,5.6c4.7,3.8,10.2,7.8,17.3,7.8c1.3,0,2.6-0.1,3.9-0.4c0.1,0,0.1,0,0.2,0
		c0.1,0,0.3,0,0.4,0c0.2,0,0.4,0,0.6,0c0.2,0,0.4,0,0.6,0c0.2,0,0.5,0,0.7,0c0.6,0,0.8,0.1,0.8,0.1s0.2,0.2,0,1.1
		c-0.4,3,1.6,4.3,3.1,5.2c4.9,2.9,10.5,4.3,17.5,4.3c1.8,0,3.7-0.1,5.9-0.3c0.8-0.1,1.5-0.1,2.2-0.1c5.1,0,8.7,1.6,11.5,5.3
		c1.9,2.5,4.4,3.7,7.4,3.7c0.8,0,1.8-0.1,2.7-0.3c1.5-0.3,3.2-0.5,5.1-0.5c2,0,4,0.2,6,0.3l0.8,0.1c0.5,0,1,0.1,1.5,0.2
		c1.2,0.1,2.3,0.2,3.5,0.2c1.8,0,4.5-0.2,7.2-2.3c0.5-0.4,1.1-0.9,1.7-1.4c1.7-1.5,3.6-3.2,5.1-3.2c0.1,0,0.2,0,0.3,0
		c1.4,0.3,2.5,2.6,3.4,4.6c0.4,0.8,0.8,1.7,1.2,2.4c1.3,2.2,2.8,3.3,4.7,3.3c1,0,2.1-0.3,3.5-1c12.8-6.1,25.2-9,37.8-9.1h0.1
		c2.2,0,4,0.4,5.7,1.2c2,1,4,2,5.9,3c4.1,2.2,8.4,4.4,12.9,6.1c0.2,0.1,0.4,0.1,0.6,0.1c1.4,0,2.8,0,4.2,0c1.7,0,3.4,0,5.1,0
		c1.9,0,3.6,0,5.1-0.1c0.1,0,0.2,0,0.3,0c1.1,0,1.3,0.2,1.4,0.3s0.3,0.4,0.3,1.7c-0.1,4.5-0.1,9.2,0,13.6c0,1.8,0,3.7,0,5.5
		c0,2.3,0,4.7,0,7.1c0,5.2,0.1,10.7-0.3,16c-0.6,8.9,1.7,15.1,7.7,21c9.4,9.1,13.4,19.7,11.7,31.4c-0.4,3-0.6,6-0.7,9v0.3
		c-0.5,10.5-0.9,21-1.3,31.4l-0.4,10.4c-6.8,2.1-12,4.1-16.7,6.5c-6,3.1-10.8,6.9-14.8,11.6c-6.6,7.8-15.2,13.8-23.5,19.5
		c-1.1,0.8-2.3,1.6-3.4,2.3c-5.4,3.8-11.5,7.5-19.3,11.7c-18.1,9.9-31.2,25.8-38.9,47.4c-2.2,6.1-2.3,12.7-2.4,19.1
		c0,2.1-0.1,4.2-0.2,6.3c-0.1,1.3,0.6,2.4,1.2,3.4c0.1,0.2,0.3,0.4,0.4,0.7l2.3,4.1c3.5,6.3,7.2,12.9,10.9,19.3
		c0.4,0.8,0.6,1.2,0.6,1.3c-0.2,0.1-0.4,0.2-0.9,0.2c-0.2,0-0.6,0.1-0.9,0.3C991.5,1192.2,987.7,1193.2,983.4,1193.2z"/>
	<path class="st0" d="M607.2,978.7c-0.9,0-1.9-0.1-2.8-0.2c-0.8-0.1-1.6-0.2-2.4-0.2c-4.2-0.2-8.5-0.4-12.6-0.6
		c-1.2-0.1-2.4-0.1-3.6-0.2c0.2-3.3,0.5-6.5,0.7-9.8c0.6-8.3,1.2-16.8,1.7-25.2c0.8-12.6,1.6-25.5,2.3-37.9
		c0.6-10.5,1.3-21,1.9-31.5c1.6-25.2,3.3-52.9,5.5-87.2c0.5-7.2,1-14.6,1.5-21.8c0.2-3,0.4-6.1,0.6-9.1c0.7,0,1.5,0.2,2.3,0.3
		c1,0.2,2,0.4,3.1,0.4c0.1,0,0.2,0,0.3,0c1.8-0.1,3.6-0.1,5.6-0.1c5.8,0,11.8,0.3,17.5,0.6c2.9,0.1,5.8,0.3,8.8,0.4
		c39.4,1.5,78.3,3.1,114.6,4.7c3.6,0.2,7.2,0.2,10.7,0.3c7.7,0.2,15.5,0.4,23.3,1.2v20.4c0,0.5,0,1,0,1.6c0,1.2-0.1,2.4-0.1,3.6
		v26.2c0,45.8,0,93.2,0.1,139.9c0,1.5-0.2,2.4-0.5,2.8c-0.3,0.3-1.2,0.5-2.6,0.5c-17.7-0.1-36.6-0.1-59.6-0.1c-15.2,0-30.4,0-45.6,0
		H673c-0.9,0-1.6,0-2.2,0c-0.5,0-0.9,0-1.3,0c-1.3,0-2.5,0.1-3.3,0.9c-0.9,1-0.9,2.2-0.9,4.5c0,0.7,0,1.5,0,2.4l0,0h-9.6
		c-11.8,0-23.9,0-35.9,0.1c-1.4,0-2.8,0.2-4.1,0.4c-0.8,0.1-1.6,0.2-2.3,0.3c-2,0.2-3.1,1.4-3.2,3.3c0,0.2,0,0.3,0,0.5s0,0.4,0,0.5
		c-0.2,1.2,0,2.5,0.1,3.7c0.2,2,0.3,3.3-0.4,3.8C609.1,978.6,608.3,978.7,607.2,978.7z"/>
	<path class="st0" d="M567.7,976.5c-17.1-0.9-34.8-1.9-52.2-2.8c-2.7-0.1-5-0.8-7.6-2.2c-29.3-15.3-59.1-30.9-87.9-45.9l-20-10.4
		c-1.3-0.7-2.5-1.3-2.9-1.7c0.1-0.5,0.9-1.8,1.6-3c0.4-0.6,0.7-1.2,1-1.8c0.1-0.2,0.2-0.3,0.2-0.5c0.8-0.7,1.6-1.3,2.4-2
		c2-1.7,4.1-3.5,6.2-5.2c1.7-1.3,1.8-2.6,1.6-3.4c-0.1-0.6-0.7-1.7-2.7-2.1c-5-1-6.7-3.8-5.9-10c0.1-0.4,0-0.8,0-1.1v-0.2
		c-0.3-3-0.5-4.7,0-5.5c0.5-0.9,2.1-1.6,4.9-2.9c1.3-0.6,3.2-1.7,3.7-3.5c0.4-1.3,0-2.8-1.1-4.5c-0.8-1.2-0.8-2,0.6-3.7
		c3.9-5,9.3-11.3,16.5-15.8c1.8-1.1,2.7-2.4,2.7-3.8c0-1.3-0.7-2.6-2.3-3.8c-3.5-2.5-4.7-5.7-4.1-9.8c0.4-2.3-0.7-4.2-1.6-5.7
		l-0.1-0.2c-1.7-2.9-3.4-5.8-5.1-8.7l-1.8-3.1c3.1-10.5,5.4-21.2,7.7-31.6l0.8-3.7c0.7-3.3,1.7-3.9,3.7-3.9c0.3,0,0.7,0,1.1,0.1
		c0.3,0,0.7,0.1,1.1,0.2c0.7,0.1,1.6,0.3,2.4,0.3c1.9,0,3.3-0.7,4.3-2.2l0.2-0.2c2.3-3.4,4.6-6.9,5.1-11.6
		c0.6-5.8,1.5-11.7,2.5-17.4c0.3-2,0.6-3.9,0.9-5.8c3.3,0.2,6.5,0.6,9.7,1.1c2.3,0.3,4.6,0.6,6.9,0.8c9.1,0.9,18.4,2.1,27.4,3.2
		c5.7,0.7,11.7,1.5,17.5,2.1c6.5,0.7,13,1.4,19.4,2.1c6.5,0.7,13.2,1.3,19.7,2.1c12.6,1.5,25.4,3,37.8,4.5c4.9,0.6,9.8,1.2,14.7,1.8
		c-0.2,2.8-0.4,5.7-0.6,8.5c-0.5,7.3-1,14.8-1.5,22.2c-2.2,34.3-3.9,62-5.5,87.2c-0.7,10.5-1.3,21-1.9,31.5
		c-0.7,12.4-1.5,25.3-2.3,37.9c-0.5,8.4-1.1,16.9-1.7,25.2c-0.2,3.3-0.5,6.6-0.7,9.9L567.7,976.5z"/>
	<path class="st0" d="M1404.5,961.7c-0.8,0-1.5-0.1-2-2c-0.6-2.2-1.4-4.4-2.2-6.5c-0.3-0.9-0.7-1.8-1-2.6c-1-3.4-2.8-6.4-4.6-9.3
		c-0.6-1-1.2-2-1.8-3c-1.6-2.9-2.3-5.5-2.3-8.6c0.1-5.3,0.1-10.8,0.1-16c0-3.9,0-8,0-11.9c0-2.8-0.6-5.2-1.9-7.6
		c-1.3-2.3-2.7-4.6-4.1-6.9c-3.3-5.5-6.7-11.2-9-17.1c-6.4-17-12.5-34.5-18.4-51.3c-2.2-6.2-4.3-12.4-6.5-18.6
		c1.7-0.3,3.4-0.6,5-0.9c5.3-0.9,10.8-1.8,16.1-2.8c1.9-0.3,3.9-0.6,5.8-0.9c4-0.5,8.2-1.1,12.1-2.5c1-0.2,2-0.4,3-0.6
		c2.3-0.4,4.6-0.9,6.9-1.4c2.1-0.5,4.1-0.9,6.2-1.3c7.6-1.6,15.4-3.3,23-5.8c-0.8,2-2,3.9-3.2,5.8c-0.8,1.2-1.5,2.5-2.2,3.8
		c-1.6,2.9-1,4.7,1.9,6.4c1.6,0.9,3.2,1.7,4.8,2.5c4.9,2.5,9.6,5,13.6,8.6c8.2,7.6,18,15,30.6,23.5c3.9,2.6,7.7,5.3,11.5,7.9
		c3,2.1,6.1,4.3,9.2,6.4c1.6,1.1,2.6,2.3,3.4,4.1l1.1,2.4c2.8,6.5,5.7,13.2,7.5,20.1c2.1,7.9,7.1,13.3,12.2,17.9c0,0.2,0,0.5,0,0.6
		c-6.8,14.2-9.4,29.4-7.5,45.2h-2.8c-3.4,0-6.8,0-10.2,0c-3.1,0-4.7,0-5.7,1.2s-0.7,2.7-0.1,5.7v0.2c0.7,3.6,1.4,7.2,2.1,11
		c0.1,0.6,0.2,1.2,0.3,1.7c-0.4-0.2-0.7-0.5-1.1-0.7c-3.2-2.1-6.2-4.1-9-6.1c-1.8-1.3-3.6-1.9-5.4-1.9c-0.4,0-0.9,0-1.3,0.1
		c-12.1,1.8-24.2,3.7-36.3,5.5l-12.7,1.9c-8.2,1.2-16.4,2.5-24.6,3.7C1405,961.6,1404.7,961.7,1404.5,961.7z"/>
	<path class="st0" d="M1575.3,1175c-0.4,0-0.9-0.1-1.3-0.3l18.1-19.2c0.5-0.5,0.6-1.2,0.2-1.9c-0.3-0.5-0.8-0.8-1.4-0.8
		c-0.1,0-0.2,0-0.3,0c-2,0.4-4,0.7-5.9,1c-4.7,0.8-9.2,1.6-13.7,2.6c-0.4,0.1-0.8,0.2-1.1,0.2c-0.6,0-1-0.1-1.8-1.6
		c-1.3-2.4-2.7-4.8-4-7.2c-1.7-3-3.5-6.1-5.1-9.2s-3.9-4.7-6.9-4.7c-8.4,0-13.4-3.9-16.1-12.2c-1.7-5.3-4.6-9-8.6-11.1
		c-0.4-0.2-0.5-0.3-0.6-0.4c0.3-5.2-3.5-7.4-6.6-9.2l-0.3-0.2c-2-1.2-3.6-2.8-5.1-5.4c-3.4-5.8-6.8-11.6-10.2-17.2
		c-3.3-5.6-6.8-11.5-10.2-17.2c-1.8-3.1-2.3-6.7-2.9-10.5c-0.2-1.6-0.5-3.2-0.8-4.9c-1.4-6.4-2.6-13-3.8-19.3
		c-0.6-3.3-1.3-6.7-1.9-10v-0.1c-0.2-1-0.5-2.5-1.5-3.3c-1.4-1.2-2.8-2.6-4.1-3.9c-3.1-3.1-6.3-6.3-10.8-8.1
		c-12.6-5.2-25.4-10.8-36.3-15.6c-1.2-0.5-2.2-0.8-3.3-0.8c-1.2,0-2.3,0.3-3.6,0.9c-8.7,4.1-17.7,8.2-26.3,12.1l-3.5,1.6l-0.4,0.2
		c-0.6,0.3-1.2,0.5-1.6,0.5c-0.1,0-0.4,0-1-0.5c-11.2-10.3-25.1-14.3-37.1-16.8c-6-1.2-12.1-1.7-18.1-2.2c-1.4-0.1-2.9-0.2-4.3-0.3
		c-0.4,0-0.7,0-1.1,0c-2.4,0-4.6,0.6-6.7,1.2c-1.7,0.5-3.3,0.9-4.9,1.1c-1.1-2.7-2.5-5.2-4-7.6c-0.6-0.9-1.1-1.9-1.7-2.8l-0.1-0.2
		c-0.5-0.8-1-1.7-1.2-2.3c0.6-0.2,1.6-0.4,2.7-0.6h0.2c6.1-1.2,12.1-2.4,18.2-3.6c5.6-1.1,11.1-2.2,16.7-3.3
		c10.9-2.2,21.8-4.3,32.7-6.4l12.9-2.5c0.2,0.5,0.4,1,0.6,1.5c0.8,2,1.6,4.1,2.1,6.2c0.8,2.9,2.5,4.3,5.1,4.3c0.4,0,0.8,0,1.3-0.1
		c8.2-1.3,16.4-2.5,24.6-3.7l12.9-2c12.1-1.8,24.1-3.7,36.1-5.5c0.3,0,0.6-0.1,0.8-0.1c1.2,0,2.3,0.4,3.6,1.3c2.9,2,5.9,4,9.1,6.2
		c1.4,0.9,2.8,1.8,4.2,2.8c0.3,0.2,0.6,0.3,0.9,0.3s0.6-0.1,0.9-0.3c0.5-0.3,0.8-1,0.7-1.6c-0.3-1.9-0.7-3.7-1-5.5
		c-0.7-3.8-1.4-7.5-2.1-11.1v-0.2c-0.2-1.2-0.5-2.4-0.5-3c0.6-0.1,1.8-0.1,3.1-0.1c3.4,0,6.8,0,10.2,0h3.3
		c5.8,27.2,20.8,50.5,47.2,73.4c1.6,1.3,2,2.4,1.9,4.1c-0.6,6.7,1,13.1,4.9,19.5c5.6,9.4,11.3,19.8,17.3,31.9
		c2.4,4.8,3.8,10.2,5.2,15.3c0.8,2.9,1.6,5.8,2.5,8.7c0.4,1.2,0.7,2.4,1,3.6c0.6,2.2,1.2,4.4,2.2,6.5c4.2,9.1,3.5,18.3,2.8,28.1
		c-0.3,3.5-0.5,7-0.6,10.6c-0.1,8-2.9,14-9.3,19.3c-3.4,2.9-6.3,6.3-8.5,8.9C1577.8,1174.1,1576.5,1175,1575.3,1175z"/>
	<path class="st0" d="M1575.4,788.4c-8.8-7.6-17.9-15.4-26.8-23.1c-1.2-1.1-2.7-1.6-4.3-1.6c-0.8,0-1.6,0.1-2.2,0.2l-2.4,0.4
		c-3.9,0.7-7.9,1.4-11.8,2.3l-0.5,0.1c-4.6,1.1-8.9,2-13.2,2c-4.9,0-8.9-1.4-12.6-4.3c-0.3-0.2-0.9-0.6-1.7-0.7
		c-2.7-0.1-5.5-0.3-8.2-0.5c-4.3-0.3-8.8-0.6-13.2-0.6c-5.9,0-10.8,0.5-15.2,1.7c-9.5,2.4-18.3,7.4-26.9,12.3
		c-1.4,0.8-2.9,1.7-4.3,2.5c-0.1,0-0.1,0-0.1,0.1l-1.2,0.9c-0.1,0-0.1,0.1-0.2,0.1c-8.1,2.9-16.6,4.7-24.9,6.5
		c-2.1,0.4-4.2,0.9-6.2,1.3c-2.2,0.5-4.6,0.9-6.8,1.3c-0.3,0.1-0.6,0.1-0.9,0.2c0.6-2.8,1.4-5.7,2.2-8.5c0.5-1.6,0.9-3.3,1.4-4.9
		c0.2-0.7,0.5-1.1,1.2-1.7c3.8-2.9,7.5-5.8,11.2-8.7c13.7-10.8,28-22,43.9-30c2.2-1.1,3.6-2.8,4.4-5.5c1.4-4.8,2.9-9.6,4.3-14.3
		c0.5-1.5,1-3.1,1.4-4.7l38.2-8.9c37-8.7,75.3-17.6,112.9-26.5c2.6-0.6,5.3-1.2,7.9-1.8c6.5-1.4,13.2-2.9,19.7-5c2.2,1.7,4,3.8,6,6
		c1.6,1.8,3.2,3.6,5,5.2c6.3,5.6,9.7,12.2,10.2,20.2c0.2,3.6,1,7.4,2.4,12.1c1.1,3.5,0.5,6-2.1,9c-4.6,5.3-8.9,11-13.2,16.4
		c-1.2,1.5-2.4,3.1-3.6,4.6s-2.4,2.3-4.2,2.8c-18.2,4.6-29.7,16.4-34.2,34.9c-0.4,1.5-0.8,3-1.2,4.4c-0.6,2.2-1.3,4.5-1.7,6.9
		c-0.3,1.5-0.8,1.6-1.7,1.6c-0.2,0-0.3,0-0.5,0c-4.3-0.4-7.8-1.1-11-2.1c-1.1-0.4-2.1-0.6-2.9-0.6c-2.3,0-4,1.3-4.9,4
		c0,0,0,0.1-0.1,0.1L1575.4,788.4z"/>
	<path class="st0" d="M1282.5,992c-0.2-3.4-1.2-6.5-2.2-9.6c-0.2-0.7-0.4-1.4-0.7-2.1c-6.4-20.7-8.9-39.9-7.7-58.8
		c0.4-6.5-0.2-13.1-0.7-19.4c-0.1-1.6-0.3-3.2-0.4-4.7c-0.4-5-0.9-10.2-1.5-15.1c-1.2-11-2.4-22.4-2.2-33.7c0.2-8.3,0.1-16.8,0-24.9
		c0-3.2-0.1-6.5-0.1-9.7l0.4-0.1c1.3-0.2,2.5-0.4,3.8-0.6c5.3-0.9,10.7-1.8,16-2.8c12.4-2.2,25.3-4.4,37.9-6.3
		c2.7-0.4,5.5-1,8.1-1.5c4.7-1,9.6-1.9,14.4-2.2c2.2,6.4,4.5,12.8,6.7,19.2c5.9,16.9,11.9,34.4,18.4,51.4c2.3,6.2,5.8,12,9.2,17.6
		c1.3,2.2,2.7,4.5,4,6.8c1.1,1.9,1.5,3.8,1.5,6c0,4,0,8,0,12c0,5.2,0,10.7-0.1,16c-0.1,3.6,0.8,6.9,2.7,10.2c0.6,1,1.2,2.1,1.8,3
		c1.4,2.3,2.8,4.5,3.7,6.9l-12.4,2.4c-10.9,2.1-21.8,4.3-32.7,6.4c-5.6,1.1-11.1,2.2-16.7,3.3c-6,1.2-12.1,2.4-18.1,3.6h-0.2
		c-3,0.6-4.5,0.9-5.2,2.3c-0.6,1.4,0.1,2.7,1.5,5.3l0.1,0.2c0.6,1,1.1,2,1.7,2.9c1.3,2.3,2.6,4.4,3.6,6.7c-2.3,0.9-4.7,1.5-7.2,2.1
		c-1.6,0.3-3.2,0.7-4.8,1.2c-0.3,0.1-0.5,0.1-0.7,0.1c-0.7,0-1.2-0.6-2-1.9c-0.4-0.6-0.8-1.2-1.3-1.8c-0.2-0.2-0.4-0.7-0.7-1.1
		c-0.6-1.1-1.4-2.8-3.4-2.8c-0.2,0-0.4,0-0.7,0.1c-2.1,0.4-2.4,2.7-2.6,4.2c-0.1,0.4-0.1,0.9-0.2,1.2c-0.9,3.7-1.5,5.9-2.6,6.7
		s-3.3,0.9-7.2,1c-0.3,0-0.6,0-0.8,0C1283,992,1282.7,992,1282.5,992z"/>
	<path class="st0" d="M1472,485.1c0-0.2-0.1-0.6,0.1-1.5c0.3-2.1,0.2-4.3,0.1-6.4c0-0.8-0.1-1.6-0.1-2.4c0.8-2.2,2.3-3.9,3.8-5.8
		c0.7-0.8,1.5-1.7,2.2-2.6c3.7-5,6.7-8.8,9.5-12.2c1.9-2.3,1.8-4.2-0.2-6.4c-3.2-3.6-5.8-6.7-8-9.8c-1.6-2.2-1.7-2.8-1.6-2.9
		c0.1-0.2,0.5-0.6,2.9-1.6c1-0.4,2-0.8,3-1.1c1.1-0.4,2.2-0.8,3.3-1.2c16.7-7.1,34.2-10.8,47.6-13.3c1.3-0.2,2.8-0.6,4-1.9
		c2.9-2.8,5.8-5.6,8.7-8.3c2.1-2,4.2-4,6.3-6.1c0.1-0.1,0.2-0.2,0.3-0.2c0.6-0.5,1.5-1.3,1.5-2.5c0-0.8-0.4-1.5-1.2-2.1
		c-2.1-1.8-2.2-3.9-2-7.1c0-0.7,0.1-1.3,0-2v-0.1c-0.1-7.7-0.6-8.3-7.9-10.3c-0.1,0-0.1,0-0.2,0l1.2-1.9c1.5-2.3,2.9-4.6,4.3-6.8
		l4.3-6.9c4.6-7.3,9.3-14.8,13.9-22.2c1-1.6,2.1-2.5,3.6-3.2c4.7-2,9.5-4,14.2-5.9c8.9-3.6,18-7.4,26.9-11.6h0.1
		c0.2,0.7,0.4,1.4,0.6,2.1l3.6,9.6c5.5,14.6,11.2,29.7,16.9,44.6c1,2.6,2,5.3,2.9,7.9c2.3,6.3,4.7,12.8,7.6,19
		c-0.1,5.2,0.6,10.3,1.2,15.3c0.3,2.3,0.6,4.7,0.8,7c0.1,0.9,0.1,1.8,0.2,2.7c0.2,3.2,0.3,6.5,1.9,9.6c-0.2,1-0.2,2,0.2,3.1
		c3.1,9.7,6.2,19.4,9.4,29.1c-1.8,1.5-3.8,2.8-6,4.1c-1,0.6-2,1.3-3,1.9c-10.2-1.3-19.2-2.1-27.7-2.6c-0.6-0.4-1.1-0.7-1.7-1.1
		c-5.6-3.6-11.4-7.4-15.9-12.5c-0.9-1.1-2.1-1.6-3.6-1.6c-0.9,0-1.7,0.2-2.4,0.4l-36.7,8.2c-14.8,3.3-29.5,6.6-44.3,9.9
		c-4.8,1.1-9.6,2.1-14.4,3.2c-9.3,2.1-19,4.2-28.5,6.3c-0.5,0.1-1.2,0.2-1.6,0.2C1472.1,485.1,1472.1,485.1,1472,485.1z"/>
	<path class="st0" d="M1211,1050.2c-0.3,0-1-0.1-2-0.6c-2.2-1-4.8-1.8-7.7-2.3c-6.1-1-8.9-3.4-9.7-8.3c-0.3-2.1-1.7-3.7-3.5-4.3
		c-5.9-1.8-11.8-3.6-17.9-5.4l-6.3-1.9c-0.2-0.1-0.3-0.1-0.5-0.1c-0.3,0-0.7,0.1-1,0.3c-0.4,0.3-0.6,0.8-0.6,1.3
		c0.2,4.7,2.6,7,5.3,8.5c-1.8,0.1-3.5,0.2-5.3,0.2c-3.9,0-7.1-0.3-10.1-1.1c-3.4-0.9-6.9-1.7-10.3-2.4c-2.7-0.6-5.5-1.2-8.3-1.9
		c-1.9-0.5-3.8-0.7-5.8-0.7c-3.8,0-7.4,0.8-11,1.5c-1.6,0.3-3.3,0.7-5,0.9c-2.2,0.3-4.4,0.8-6.5,1.3c-0.3,0.1-0.6,0.1-0.9,0.2
		l0.4-9.5c0.4-10.5,0.9-21,1.3-31.4v-0.3c0.1-2.9,0.3-5.8,0.7-8.7c1.8-12.6-2.6-24.4-12.7-34.1c-5.4-5.2-7.3-10.5-6.8-18.5
		c0.4-5.4,0.4-10.9,0.3-16.2c0-1.9,0-3.7,0-5.6l7.1-0.6c6.3-0.5,12.6-1,18.8-1.5c15.2-1.3,30.4-2.5,45.6-3.8l17.9-1.5
		c0.8,1.9,1.7,3.8,2.6,5.7c2.3,5,4.7,10.2,6.3,15.5c1.8,5.7,2.9,12.3-1.6,18.3c-2.4,3.2-4.7,6.5-6.9,9.7c-1.4,2-2.8,4.1-4.2,6.1
		c-1.6,2.3-2.3,4.5-2.2,6.9c0.1,2.8,0.1,5.8,0,9.5c0,1,0,2.6,1,3.6c0.7,0.7,1.7,1.1,3,1.1c0.2,0,0.4,0,0.6,0
		c5.8-0.4,11.8-0.8,17.5-1.2c4.2-0.3,8.5-0.6,12.8-0.9c4.9-0.3,9.8-0.7,14.6-1.1c4-0.3,8-0.6,12-0.9h0.1c0.3,0,0.5,0,0.8,0
		c0.5,0,0.6,0,0.7,0.7c1.3,5.5,2.7,11.2,4,16.6c0.4,1.7,0.9,3.5,1.3,5.2c-0.2,0.1-0.5,0.1-0.9,0.1c-0.3,0-0.6,0-0.8,0
		c-0.3,0-0.7,0-1,0c-0.2,0-0.4,0-0.5,0c-0.6,0-1.3,0.1-2,0.1c-0.6,0-1.3,0-1.9,0c-0.7,0-1.3,0-2,0c-1.7,0-3.8,0.1-5.9,0.6
		c-0.1,0-0.2,0-0.4,0c-0.2,0-0.5,0-0.7,0c-0.3,0-0.6,0-0.9,0c-1.6,0-2.8,0.7-3.4,2c-1.3,2.8-2.3,5.6-3.1,8.5c-0.3,1,0,1.7,0.3,2.1
		c0.8,1,2,1.1,2.9,1.1h0.2c0.4,0,0.8,0,1.2,0c2.6,0,5.2-0.5,8.4-1.5c1.5-0.5,2.8-0.7,4.1-0.7c1.6,0,3,0.3,4.3,1.1
		c2.3,1.3,4.6,1.9,7,1.9c2.7,0,5.3-0.8,8.1-2.4c1-0.6,1.5-0.6,1.6-0.6c0.3,0.1,0.7,0.9,1.2,2.4c1.4,4-0.4,6.6-2.6,9.9l-0.5,0.8
		c-3.5,5.3-3.3,6.3,1.8,10l0.1,0.1c3.1,2.2,6.1,4.4,9.3,6.7c0.8,0.5,1.5,1.1,2.3,1.7c-1.5,0.7-3,1.1-4.5,1.5c-1,0.3-2,0.6-3.1,1
		c-0.1-0.1-0.4-0.4-0.5-0.5c-0.2-0.2-0.4-0.4-0.6-0.6c-2.4-2.2-4.8-4.5-7.2-6.7l-2.7-2.5c-1.3-1.2-3.1-1.9-5.1-1.9
		c-3.4,0-7.3,2-8.2,5.9c-0.6,2.4-0.8,4.3-0.9,6.2c-0.1,1.4-0.7,2-2.6,3c-0.8,0.4-1.2,0.4-1.3,0.4l0,0c0,0-0.2-0.2-0.3-0.7
		c-0.9-4.9-4.8-5.1-7.3-5.2c-0.6,0-1.1-0.1-1.6-0.1c-0.3,0-0.6-0.1-0.9-0.1c-2.1,0-4.8,1-5.9,6
		C1212,1050.2,1211.3,1050.2,1211,1050.2z"/>
	<path class="st0" d="M1240.9,992.5c-1.3-5.4-2.7-11-4-16.5c-0.5-2.1-1.8-3.2-3.9-3.2c-0.3,0-0.7,0-1,0h-0.1c-4,0.3-8,0.6-12.1,0.9
		c-4.9,0.4-9.7,0.7-14.6,1.1c-4.2,0.3-8.5,0.6-12.8,0.9c-5.8,0.4-11.7,0.8-17.5,1.2c-0.1,0-0.3,0-0.4,0c-0.5,0-0.7-0.1-0.7-0.1
		s-0.2-0.2-0.1-1.3c0.1-3.7,0.1-6.8,0-9.7c-0.1-1.7,0.4-3.2,1.6-4.9c1.4-2,2.9-4.1,4.3-6.1c2.2-3.2,4.4-6.4,6.8-9.5
		c5.4-7.2,4-15.1,2.1-21.2c-1.7-5.5-4.1-10.8-6.4-15.9c-0.9-2.1-1.9-4.2-2.9-6.4c0-3,0-5.9,0-8.9c0-8.2,0-16.8-0.1-25.2
		c0-2.4,0.5-4.6,1.7-6.8c5.2-10,10.5-20.2,15.7-30l4.9-9.5c5.2-0.1,10.4-0.8,15.4-1.5c2.3-0.3,4.7-0.6,7-0.9
		c9.8-1.1,19.8-2.2,29.5-3.4c3.5-0.4,7-0.8,10.5-1.2c0,3.1,0.1,6.2,0.1,9.3c0.1,8.2,0.2,16.6,0,24.8c-0.2,11.5,1,23,2.2,34.1
		c0.5,4.9,1.1,10,1.5,15c0.1,1.6,0.3,3.2,0.4,4.8c0.6,6.2,1.2,12.6,0.7,18.9c-1.3,19.3,1.2,38.9,7.8,59.9c0.2,0.7,0.4,1.4,0.7,2.1
		c1,3.1,2,6,2.1,9c-1.3,0.3-2.6,0.4-3.7,0.4c-0.6,0-1.1,0-1.7,0s-1.2,0-1.8,0h-0.2c-8.5,0-17.5,1.5-27.5,4.4l-0.4,0.1
		c-0.6,0.2-1.3,0.4-1.8,0.4C1241.7,995.9,1241.3,994.2,1240.9,992.5z"/>
	<path class="st0" d="M340.9,1164.3c-8-7.6-11.6-14.6-12.1-22.8c-0.1-2.2-0.5-8.1-6.8-8.1c-0.4,0-0.8,0-1.3,0.1l0,0
		c-0.6,0-1.3-0.6-1.9-1.2l-0.3-0.3c-1.5-1.3-3.1-2.7-4.6-4c-2.8-2.4-5.6-4.8-8.3-7.3c-5-4.8-10.5-8-16.6-9.8
		c-2.9-0.8-5.8-1.8-8.6-2.7c-5-1.6-10.3-3.3-15.5-4.6c-1-0.2-1.9-0.4-2.7-0.4c-2.2,0-4.2,0.8-6,2.6c-3.1,2.9-6.4,5.8-9.6,8.6
		l-0.1,0.1c1.2-3,2.4-6,3.8-8.9c0.8-1.7,1-3.1,0.5-4.4c-0.6-1.7-2.3-2.4-3.6-3c-0.6-0.3-1.3-0.6-1.6-0.9c-0.9-0.9-1.8-1.3-2.7-1.3
		c-1.8,0-2.7,1.6-3.3,2.7c-0.1,0.3-0.3,0.6-0.4,0.7c-2.5,3.6-5,7.3-7.4,10.9l-0.5,0.7c-1,1.5-1.9,2.5-3.1,3.4
		c-2.7,2-4.1,3.1-4.2,4.8s1.4,2.9,3.7,4.8c1.7,1.3,1.8,1.9,1.8,2.1c0,0.1-0.1,0.6-1.4,1.5c-0.7,0.5-1.4,1-1.7,1.9
		c-0.1,0.1-0.5,0.4-0.7,0.5c-0.8,0.6-1.9,1.3-2,2.7c-0.1,1.5,1.1,2.6,1.6,2.9c1.8,1.6,3.2,2.5,4.8,2.5c2,0,3.3-1.6,4.6-3.3
		c0.2-0.3,0.5-0.7,0.7-1c0.9,2.3,1.5,4.1,1.2,4.6c-0.3,0.7-2.7,1.4-5.6,2.2l-0.6,0.2c-3,0.9-5.8,1.3-8.7,1.3c-1.6,0-3.2-0.1-4.8-0.4
		c-0.5-0.1-0.9-0.1-1.3-0.1c-2.3,0-3.6,1.3-4.6,2.6c-3.3,4.4-6.9,9-11.7,12.4c-1.1,0.8-2.2,1.2-3.3,1.2c-1.4,0-2.6-0.7-3.2-2
		c-0.5-1-0.4-1.3-0.4-1.3s0.1-0.2,0.9-0.6c3.9-1.5,7.7-3.6,11.2-6.1c2.3-1.6,3.6-2.9,3.9-4.6c0.3-1.7-0.6-3.3-2.2-5.4
		c-0.4-0.5-0.7-0.9-1.1-1.4c-3-3.9-5.8-7.6-4.9-13.3c0.1-0.6-0.2-1.2-0.7-1.6c-0.3-0.2-0.6-0.3-0.9-0.3c-0.3,0-0.6,0.1-0.8,0.2
		l-6.3,3.8c-0.1-0.2-0.2-0.5-0.3-0.7c-0.6-1.7-1.2-3.4-1.5-5c-0.7-4.5-3.4-6.8-7.9-7c-2.7-0.1-4-1.2-4.8-4.1
		c-1.4-5.3-3.3-10.5-5.1-15.5l-0.4-1c-0.5-1.4-0.4-2,0.5-2.9c0.8-0.7,1.4-1.5,2.1-2.3c2-2.3,3.7-4.2,7.2-4.5c2.5-0.2,4.3-1.9,6-3.6
		c1.1-1,2.1-2,3.3-2.6c6.8-3.6,7.2-4.6,3.9-11.4l-0.2-0.4c-0.4-0.8-1.6-3.3-4.2-3.3c-0.9,0-1.7,0.3-2.7,0.8c-2,1.2-3.9,1.7-5.8,1.7
		c-2.8,0-5.5-1.1-8.8-3.6c-2.9-2.2-6.1-4.1-9.5-6.1c-0.2-0.1-0.5-0.3-0.7-0.4l29.5-2.5c0.6-0.1,1.2-0.5,1.4-1.1s0-1.3-0.4-1.7
		l-26.3-23.8c0.5-0.1,0.9-0.2,1.4-0.3c3.3-0.8,6.5-1.5,9.6-2.1c2.6-0.5,4.6-1.5,6.4-3.1l1.7-1.5c4.9-4.4,10-8.9,15.2-13.1
		c3.5-2.8,7.6-4.2,11.9-5.8c1.9-0.7,3.8-1.3,5.6-2.1c0.2,0,0.5,0.2,0.7,0.2c0.2,0.1,0.4,0.2,0.6,0.2c0.6,0.2,1.3,0.4,1.9,0.6
		c1.8,0.6,3.5,1.1,5.1,1.8c11.4,5.1,23.6,6.2,35.5,7.4h0.4c6.2,0.6,12.3,2.5,18.2,4.3c3.4,1,7,2.1,10.5,3c0.1,0,0.2,0.1,0.2,0.1
		c0.1,0.1,0.1,0.7,0.1,1v0.2c0.3,4.8,0.6,9.7,0.9,14.6c0.4,7.1,0.9,14.2,1.3,21.4l0.3,4.9c1,16.6,2,33.7,3,50.6c0.2,3,1.9,4.2,3.4,5
		c1.9,1,3.8,2,5.6,3c2.4,1.3,5,2.6,7.5,3.9c1.5,0.8,3.2,1.1,5.3,1.1c1,0,2-0.1,2.9-0.2s1.8-0.1,2.7-0.1c1.9,0,2.6,0.4,3.3,2.2
		c1.1,2.6,2.3,5.2,3.4,7.8c3.5,8.1,7.1,16.4,11.6,24.2c0.5,0.9,0.6,1.2,0.4,1.7c-0.9,2.5-1.6,5.1-2.5,7.7
		C341,1163.8,340.9,1164,340.9,1164.3z"/>
	<path class="st0" d="M1521.5,890.7c-4.7-4.2-9.1-9.1-10.9-16c-1.9-7.1-4.8-13.9-7.7-20.5l-1.1-2.4c-1-2.3-2.4-4.1-4.5-5.5
		c-3.1-2.1-6.2-4.2-9.2-6.3c-3.8-2.6-7.7-5.3-11.5-7.9c-12.5-8.3-22.1-15.7-30.2-23.1c-4.3-4-9.4-6.6-14.3-9.1
		c-1.6-0.8-3.2-1.6-4.7-2.5c-1-0.5-1.1-0.8-1.1-0.8s0-0.3,0.5-1.2c0.7-1.2,1.4-2.5,2.1-3.6c1.7-2.7,3.3-5.5,4.3-8.7
		c0.5-0.3,0.8-0.8,0.9-1.1c1.3-0.7,2.6-1.5,3.9-2.2c8.4-4.8,17.1-9.7,26.1-12c4.2-1.1,8.8-1.5,14.4-1.5c4.3,0,8.7,0.3,13,0.6
		c2.6,0.2,5.4,0.3,8.1,0.5c4.2,3.4,9,5,14.6,5c4.6,0,9.3-1.1,13.9-2.1l0.5-0.1c3.8-0.9,7.8-1.6,11.6-2.3l2.4-0.4
		c0.5-0.1,1.1-0.2,1.7-0.2c0.9,0,1.6,0.2,2.2,0.8c8.9,7.8,18,15.6,26.8,23.1l7.8,6.7c-1.6,4.4-4.2,8.5-6.6,12.4l-0.8,1.3
		c-2.7,4.2-3.8,8.9-3.3,13.2c1.1,8.4-3.8,13.4-8.7,17.1c-8.1,6.2-14.2,14-20.2,21.7c-0.8,1-1.5,2-2.3,3c-1.4,1.8-2.8,3.5-4.2,5.2
		C1530.1,877.3,1525,883.5,1521.5,890.7z"/>
	<path class="st0" d="M1403.6,721.7c0.2-1.2,0.9-2.2,2.2-3.4c10.2-9.6,20.6-19.5,30.6-29c3.1-2.9,6.1-5.8,9.2-8.8
		c3.8,1.2,7.6,2.8,11.2,4.4c1.7,0.7,3.4,1.5,5.1,2.2c1.2,0.5,2.2,0.7,3.2,0.7c1.2,0,2.4-0.3,3.7-1c7.2-3.7,14.7-7.4,22.9-11.3
		c2.8-1.3,4.2-3.1,4.9-6c1.2-5.1,2.6-10.2,3.9-15.2c1-3.9,2.1-7.9,3.1-11.8c0.5-2,1.4-3.1,3.2-4.1c3.6-2.1,7.2-4.2,10.8-6.4
		c3-1.8,6.1-3.7,9.2-5.5c2.2-1.3,4.3-2.6,6.4-3.9c3.6-2.3,7.4-4.6,11.3-6.5c1.1,2.2,2.8,3.9,4.4,5.5c0.4,0.4,0.8,0.8,1.2,1.2
		c5.1,5.3,11.7,8,18.1,10.5c1.6,0.6,3.2,1.2,4.7,1.9c12.9,5.5,26.8,6,39,6c0.4,1.8,1.8,2.9,2.8,3.7c0.2,0.2,0.5,0.4,0.7,0.6
		c1.4,1.2,2.8,2.3,4.1,3.5c6.2,5.3,12.7,10.7,18.3,16.9c0.2,0.2,0.3,0.3,0.5,0.5l0.1,0.1c-6,1.9-12.3,3.3-18.4,4.6
		c-2.6,0.6-5.3,1.2-7.9,1.8c-37.6,8.9-75.9,17.8-112.9,26.5l-38.9,9.1c-0.2,0-0.4,0-0.6,0c-0.6,0-1.2,0.1-1.8,0.2
		c-15.6,3.7-31.1,7.4-46.7,11L1403.6,721.7z"/>
	<path class="st0" d="M1664.6,394.4c-0.6-4.7-1-9.4-1.5-14l-0.3-3.6c-0.2-1.9-0.3-3.8-0.4-5.6c-0.3-4.6-0.6-9.3-1.8-14
		c-1.6-6-3.4-12.4-5.9-18.4c-1.2-2.9-0.7-4.6,1.9-6.4c1.9-1.3,3.5-2.9,5-4.4c0.6-0.5,1.1-1.1,1.7-1.6c0.7-0.6,2-1.9,2-3.8
		c0.3-7.8,0.3-16.8-3.3-25.5c-0.4-6.2,3-8.5,8.8-9.9l5.8,13.5c5,11.5,10,23.1,15,34.6c2.9,6.6,5.8,13.3,8.7,19.9
		c2.2,4.9,4.3,9.8,6.5,14.7c0.1,0.1,0.1,0.3,0.2,0.4c0.2,0.6,0.5,1.5,1.3,2.1v0.3l-9,4.5c-10.4,5.2-20.9,10.4-31.3,15.6
		C1667,393.5,1665.8,394.1,1664.6,394.4z"/>
	<path class="st0" d="M533.8,1225.2c-3.4-4.4-7.5-7.7-11.7-10.9c-1.8-1.4-2.6-3.2-2.3-5.5c1.2-8.5-0.8-16.6-6-24.1
		c-2.6-3.7-2.5-7.4,0.3-11.5c1-1.4,1.9-2.9,2.7-4.3c2.2-3.6,4.2-6.9,7.2-9.6c0.8-0.7,1.8-1.8,1.8-3.3s-1.3-2.5-2.3-3.2
		c-0.2-0.1-0.4-0.3-0.6-0.4c-2.3-1.6-3.5-2.5-3.1-4.8c0.1-0.4,0.1-0.6,0.2-0.7c0.1,0,0.2,0,0.5,0c0.7,0,1.4,0,2.1,0s1.4,0,2.1,0
		c3.9,0,6.8,0.6,9,3.6c1,1.3,2.5,2,4.7,2.3c4.8,0.5,8.6,3.1,12.6,6c2.8,1.9,5.6,3.9,8.9,5.2c0.1,0.1,0.2,0.3,0.2,0.5
		c2,9.2,8.1,15.8,13.6,21.7c2.5,2.7,2.8,4.8,1,7.7c-2.9,4.9-5.6,8.7-11,8.7c-0.6,0-1.3-0.1-1.9-0.1c-1.2-0.2-2.8-0.4-4.4-0.4
		c-3,0-5.6,0.7-7.8,2.1c-4.3,2.7-6.9,5.4-8.7,9c-1.6,3.2-3.5,6.3-5.6,9.5C534.9,1223.5,534.4,1224.3,533.8,1225.2z"/>
	<path id="MA" class="st0" d="M1651.1,434.3c-1-2.4-1.1-5-1.3-7.8c-0.1-0.9-0.1-1.9-0.2-2.8c-0.2-2.4-0.5-4.8-0.8-7.1
		c-0.6-4.5-1.1-9.1-1.1-13.7c0.7,0,1.3,0,2-0.1c1.6-0.1,3.2-0.1,4.8-0.1c1.1,0,2.1,0,3.1,0.1c0.5,0,1,0.1,1.4,0.1l0,0
		c1.4,0,3.5-0.2,4.8-1.7c0.8-0.9,1.1-2.1,1.1-3.6c1.7-0.4,3.2-1.1,4.6-1.8c10.4-5.2,20.9-10.4,31.3-15.6l8.9-4.5
		c0.2,0.2,0.4,0.5,0.6,0.7c1.2,1.3,2.4,2.6,4,3.4c1.3,0.6,2.1,1.2,2.4,1.8c0.3,0.9-0.2,2.2-1.2,4c-0.3,0.6-0.7,1.2-1.1,1.9
		c-1.7,2.9-3.4,6-2.6,8.6c0.8,2.5,3.6,4,6.3,5.4c0.9,0.5,1.8,0.9,2.5,1.4c5.7,3.5,11.4,7,17.5,10.7c1.2,0.7,2.3,1.4,3.5,2.1
		c-1.5,0.2-2.8,0.3-4.2,0.3c-0.2,0-0.3,0-0.5,0c-0.4,0-0.8,0-1.2,0c-7.4,0-14.5,2-20.9,5.9c-1.2,0.8-2.4,1.1-3.6,1.1
		c-1,0-2-0.2-3.2-0.8c-2.4-1-4.8-1.8-7.2-2.5c-1-0.3-2.1-0.6-3.1-1c-0.2,0-0.3-0.1-0.5-0.1c-0.1,0-0.1,0-0.2,0
		c-5.2,0.7-10,2.7-14.6,4.6c-1.6,0.7-3.3,1.4-4.9,2l-1.5,0.5c-1.1,0.4-2.3,0.7-3.4,1.1c-2.9,1-5.8,2.1-8.6,3.1
		C1659.9,431.5,1655.5,433.1,1651.1,434.3z"/>
	<path class="st0" d="M1643.6,568.3c-0.3,0-0.9-0.2-1.4-0.4c-0.3-0.1-0.7-0.2-1.1-0.3l2.8-7.9c0.2-0.6,0.1-1.2-0.4-1.7
		c-0.3-0.3-0.7-0.5-1.1-0.5c-0.2,0-0.4,0-0.5,0.1c-1.5,0.5-3.1,1-4.5,1.5c-4,1.2-7.8,2.4-11.2,4.8c-0.2-0.3-0.3-0.7-0.4-1.3
		c-0.2-0.7-0.3-1.5-0.8-2.3l-0.1-0.1l-0.2-0.3c0-0.7,0-1.9-1-2.8c-1.1-6-2.9-11.8-5.5-17.3v-0.5c0.5-0.6,1.2-1,2-1.5
		c1.2-0.8,2.6-1.7,3.6-3.4c2.8-5.2,5.8-10,9-14.3c0.8-1,1.7-2.6,1.3-4.2s-1.8-2.6-3.4-3.4c-2.2-1.2-4.4-2.6-6.6-3.8
		c-2.3-1.4-4.7-2.8-7.2-4.1c-1.1-0.6-1.4-1.2-1.1-2.5c1.6-6.9,3.3-13.9,4.9-20.8l1.4-5.7c7.8,0.4,16.2,1.2,25.4,2.4
		c-0.3,1.3-0.6,2.6-0.9,4c-1.1,4.7-2.3,9.6-3.6,14.4c-0.3,1.1-0.7,2.8,0.2,4.1c0.9,1.1,2.4,1.3,3.5,1.3h0.2c0.9,0,1.9-0.1,2.8-0.3
		s1.9-0.2,2.7-0.2c1.5,0,1.8,0.4,1.9,0.6c0.7,0.9,0.4,3.2,0.1,5.2c-0.1,0.9-0.2,1.8-0.3,2.6c-0.2,3.3-0.4,6.6-0.5,9.8
		c-0.4,8.4-0.8,17.1-2,25.5c-0.9,6.9-3.7,13.6-6.4,20.1c-0.5,1.1-0.9,2.2-1.4,3.3C1643.6,568.3,1643.5,568.4,1643.6,568.3
		L1643.6,568.3z"/>
	<path class="st0" d="M1612.2,638.1c-11.9,0-25.7-0.5-38.1-5.8c-1.6-0.7-3.2-1.3-4.8-1.9c-6.1-2.4-12.4-4.9-16.9-9.7
		c-0.4-0.4-0.8-0.8-1.2-1.2c-1.6-1.6-3.2-3.2-4.1-5.1c0.3-0.3,0.8-0.5,1.3-0.8c1.1-0.7,2.5-1.5,3.3-3.2c1.4-3,3.1-6,4.6-8.9
		c2.2-4.1,4.4-8.2,6.3-12.6c0.1,0,0.2,0,0.3,0c0.5,0,1.2,0.4,1.8,0.7c0.4,0.2,0.8,0.4,1.2,0.6c10.1,4.5,20.4,9.2,30.4,13.7l9.3,4.2
		c0.1,0,0.2,0.1,0.2,0.1c1.1,2.5,2.8,4.9,5.1,7.3c2.9,3,3.9,6.4,3.2,11.1c-0.1,0.9-0.3,1.9-0.4,2.8
		C1613.3,632.4,1612.9,635.3,1612.2,638.1z"/>
	<path class="st0" d="M1633.7,643c-1.7-2.2-2.9-4.2-2.9-7.1c0.2-7.2-0.3-14.5-1.4-21.8c-0.3-2.2-1.1-4.2-2.2-6.2
		c-2.6-4.3-4.8-6.8-8.5-6.8c-1.7,0-3.6,0.5-6.5,1.7c-1.3,0.5-2.7,1.1-4,1.7l-0.4,0.2c-0.2-19-0.8-38.8-1.7-58.7
		c2.2-0.8,4.1-2,5.9-3.1c1-0.6,2-1.2,3-1.8c0.2,7.1,2,12.6,5.5,17.2c0,0.9,0,2.2,1.3,3.1l0.3,0.5c0.2,0.3,0.3,0.8,0.4,1.3
		c0.3,1.3,0.7,3.2,2.9,4.1c0.8,0.5,1.6,1.1,2.4,1.6c1.9,1.3,3.9,2.7,6.2,3.7c4.6,1.9,6.4,5,6.5,11c0.1,6.7,0.7,13.4,1.2,19.9
		c0.1,1.4,0.2,2.7,0.3,4.1c0.1,1.4-0.4,2.5-1.1,4l-0.1,0.1c-0.4,0.8-0.8,1.5-1.2,2.4c-2,3.9-4.3,8.3-2.2,13.7
		c-3.8,3.3-3.7,7.6-3.6,11.4C1633.8,640.5,1633.8,641.8,1633.7,643z"/>
	<path class="st0" d="M1651.7,438.4c-0.1-0.3-0.2-0.6-0.2-0.9c4.7-1.2,9.3-3,13.8-4.7c2.8-1,5.6-2.1,8.5-3.1c1.1-0.4,2.2-0.7,3.3-1
		l0.2-0.1c0.9,1.8,1.8,3.5,2.6,5.3c2.8,5.6,5.7,11.4,8.9,17c-9.3,4.8-18.9,9.9-28.1,15.7C1657.7,457.2,1654.7,447.8,1651.7,438.4z"
		/>
	<path class="st0" d="M1653.6,493.3c0.6-6.3,2.2-10.4,7.5-13.3c5.4-3,10.8-6.7,17.6-12.2c5.9-4.8,12.9-5.7,20.3-6.6
		c0.6-0.1,1.1-0.1,1.7-0.2C1689.7,479.2,1671.6,487.1,1653.6,493.3z"/>
	<path class="st0" d="M520.5,1131.5c-1.5,0-2.5-0.2-2.9-2.9c-0.5-3.5-4.3-5-6.6-5.9c-1.5-0.6-3.2-3.2-3.8-6c-0.5-2.1-0.4-4,0.4-4.9
		c0.9-1,2.3-1.5,4.2-1.5c0.7,0,1.4,0.1,2.2,0.2l0,0c0,0.2-0.1,0.4-0.1,0.6c-0.1,0.7-0.2,1.4,0,2.2c0.1,0.4,0,1,0,1.6v0.3
		c-0.1,1-0.1,2.3,0.7,3.2c0.4,0.5,1,0.7,1.7,0.7s1.5-0.3,2.4-0.8c0.5-0.3,1.2-0.6,1.8-0.9c0.5-0.2,1.1-0.5,1.7-0.8
		c0.5-0.3,1-0.4,1.4-0.4s0.8,0.1,1.3,0.9c2.9,5.1,7.7,6.7,12.3,8.3l1,0.3c0.3,0.1,0.6,0.2,0.8,0.3c1.2,0.4,2.3,0.8,3.2,1.4
		c0.6,0.4,1.5,1.2,1.4,2.2c0,0.2,0,0.3-1.1,0.6c-0.3,0.1-0.6,0.2-0.9,0.3c-2.4,0.9-4.9,1-7.1,1c-0.8,0-1.5,0-2.2,0
		c-0.8,0-1.5,0-2.2,0c-0.5,0-1,0-1.5,0h-3.1c-0.6,0-1.1,0-1.7,0h-0.2c-0.5,0-1.1,0-1.6,0.1C521.5,1131.5,521,1131.5,520.5,1131.5z"
		/>
	<path class="st0" d="M1691.7,449.4c-3.2-5.5-6.1-11.3-8.9-17c-0.8-1.6-1.6-3.3-2.5-4.9c1.2-0.5,2.3-0.9,3.4-1.4
		c4.2-1.7,8.1-3.4,12.4-4.1c0.3,1.5,0.7,3.1,1,4.7c1.2,5.5,2.4,11.2,3.7,16.8c0.3,1.5,0.2,1.5-0.6,1.9c-2.3,1-4.7,2.1-6.9,3.2
		C1692.7,449,1692.2,449.2,1691.7,449.4z"/>
	<path class="st0" d="M457.4,1099c-0.2,0-0.5-0.1-0.7-0.2s-0.3-0.1-0.5-0.2c-3.3-0.9-6.8-1.4-11.4-1.4c-1.8,0-3.7,0.1-5.5,0.1
		l-1.5,0.1c-0.1,0-0.2,0-0.4,0c-1.3,0-1.8-0.3-1.9-0.4c-0.1-0.2-0.4-0.6-0.2-1.9c0-0.5,0-0.9,0-1.3c0-0.2,0-0.5,0-0.8
		c0.1-2.6,0.2-4-0.6-4.9c-0.3-0.3-0.9-0.7-1.8-0.7c-0.5,0-1.1,0.1-1.8,0.4c0-4.5,2-6.3,10-6.9c0.5-0.1,1-0.1,1.5-0.1
		c2.3,0,4,0.5,5.5,3.2c2.2,4,5.1,8.4,9.7,11.4c0.4,0.2,0.5,0.5-0.1,2.3C457.6,1098.2,457.5,1098.5,457.4,1099
		C457.4,1098.9,457.4,1099,457.4,1099z"/>
	<path class="st0" d="M410.5,1080.9c-0.2-0.2-0.4-0.4-0.5-0.4c-1.7-1.5-3.3-3.1-5-4.6c-2.1-2-4.3-4-6.5-5.9
		c-0.1-0.1-0.2-0.2-0.2-0.2c0-0.2,0.2-0.6,0.3-0.8l0.1-0.2c1.7-3.8,5-5,8.8-6.4c0.4-0.2,0.9-0.3,1.3-0.5c2.1-0.8,4.4-1.6,5.9-1.6
		c1.2,0,2.1,0.5,2.5,7.1v0.9C415.3,1072.9,413,1077.2,410.5,1080.9z"/>
	<path class="st0" d="M482.3,1108.3c-0.8,0-1.7,0-2.6-0.1c-0.8,0-1.6-0.2-2.6-0.5c-0.5-0.1-1-0.2-1.5-0.3c-1-0.2-2.3-0.7-3-1.8
		c-0.7-1.1-0.5-2.5-0.2-3.5c0.3,0,0.9,0,0.9,0c1.2,0,2.4,0,3.6,0s2.4,0,3.6,0c5.9,0,10.9,0.5,15.7,2.8
		C492.5,1107.2,488.1,1108.3,482.3,1108.3z"/>
	<path class="st0" d="M490.9,1123.8c-1.6,0-3.6-0.3-4.6-1.7c-0.6-0.9-0.8-2.2-0.4-3.9c1.3,1,2.7,1.7,4.1,2.4
		c0.3,0.2,0.6,0.3,0.9,0.5c1.4,0.7,2.7,1.4,4.2,2.2C493.6,1123.7,492.2,1123.8,490.9,1123.8z"/>
	<path class="st0" d="M545,441.5c-3.8,0-6.9-0.7-9.5-2.3c-0.8-0.5-1.7-0.7-2.8-0.7c-1.3,0-2.6,0.4-3.6,0.7c-2.4,0.8-5,1.1-8.1,1.1
		h-0.7c-3.3,0-5.7-0.1-6.2-0.7c-0.6-0.6-0.5-3.4-0.4-6c0.2-5.8-1.5-10-5.4-13.3c-1.1-0.9-1.7-1.9-1.9-3c-0.2-1.4-0.4-2.8-0.6-4.2
		c-0.3-2.3-0.7-4.6-1.1-6.9c-0.2-1-0.4-2-0.5-3c-0.8-5.3-1.7-10.7-6.8-14.8c-1.1-0.9-2.4-1.8-4-1.8c-1.1,0-2.1,0.4-3.3,1.2
		c-1.9,1.3-3.9,2.5-6.2,3.9h-0.1c0.3-1.3,0.5-2.6,0.8-3.8c0.6-3.2,1.2-6.2,2.5-9c0.9-1.9,2-3.9,3.1-5.8c3.5-6.1,7.1-12.5,6-20.7
		c-0.3-2.1-0.7-5.2-4.7-5.2c-0.3,0-0.6,0-0.9,0h-0.2c-0.5,0-0.9,0.1-1.3,0.1c-0.9,0-1.6-0.2-2.2-1.2c-9-14.3-18.9-31.1-22.7-50.5
		c-0.3-1.5-0.7-3-1-4.4c-1-3.9-1.9-7.5-1.3-11.5c1.3-7.9,2.4-15.9,3.4-23.7c0.4-2.7,0.7-5.4,1.1-8.1c4.9,1,9.7,2.1,14.5,3.1
		c11.8,2.6,24.1,5.2,36.2,7.5c27.2,5.3,56.4,9.8,92.1,14.3c32,4,65.9,7.2,106.7,10.1c11.8,0.8,23.9,1.5,35.6,2
		c6,0.3,12,0.6,17.9,0.9c1.1,0.1,2.2,0.2,3.4,0.4c0,0,0,0,0.1,0c0,0,0,0,0,0.1c-0.2,1.2-0.3,2.4-0.3,3.6
		c-0.5,10.1-0.9,20.3-1.4,30.5c-0.4,9.4-0.8,18.8-1.3,28.1c-0.1,3.1-0.3,6.2-0.5,9.2s-0.3,6-0.5,9.1c-0.5,10.5-1,21.1-1.4,31.6
		l-0.5,12.2c-0.8,1.5-0.8,3.1-0.8,4.5c0,0.3,0,0.6,0,0.9c-0.3,6.6-0.5,13.1-0.8,19.7l-0.2,5.3c-1.9-0.1-3.8-0.2-5.7-0.3
		c-5.2-0.3-10.6-0.6-15.8-1c-17.5-1.2-34.9-2.4-52.4-3.6l-33.4-2.3c-11-0.8-22-1.5-33-2.3c-5.5-0.4-10.9-0.7-16.4-1.1
		c-11.1-0.7-22.5-1.5-33.8-2.3c-0.3,0-0.5,0-0.7,0c-0.5,0-2,0-3,1c-0.9,1-1,2.4-1,3.4c0.1,2.3,0,4.6,0,6.9c0,0.5,0,0.9,0,1.3h-0.3
		c-3.1-0.2-6.4-0.4-9.6-0.4c-1.6,0-3,0-4.5,0.1c-1.3,0.1-2.6,0.2-3.9,0.3C549.3,441.2,547.1,441.5,545,441.5z"/>
	<path class="st0" d="M381,517.8c-2.3-0.3-4.6-0.7-6.9-1.1c-19.1-3.5-38.2-7-57.4-10.5l-18-3.3c-7.4-2.8-15.1-5-22.5-7.2
		c-3.4-1-7-2-10.5-3.1c-15.7-4.8-31.6-9.6-47.1-14.2c-6-1.8-12.1-3.6-18.1-5.4c-5.9-1.8-11.8-3.5-17.7-5.3l-7.5-2.2
		c-1.7-4.7-1.1-8.4,1.9-11.7c2.3-2.5,2.5-5.4,2.5-7.4c0-0.7,0-1.4,0.1-2.2c0.1-0.9,0.1-1.7,0.1-2.6c-0.2-8,2-15.2,7.6-24.2
		c11.4-18.6,19.1-39.3,26.6-59.3c0.8-2.1,1.5-4.1,2.3-6.2c3.6-9.6,7-19.5,10.4-29c1.7-4.8,3.3-9.5,5-14.2c0.2-0.6,0.5-1.2,0.8-1.9
		c1.3,0.3,2.6,0.7,4,1c4.8,1.2,9.7,2.4,14.5,3.6c1.1,0.3,1.9,0.8,2.8,1.7c3.8,4.4,7.5,9.8,6.2,17.1c-0.2,1-0.1,2-0.1,2.9
		c0,0.7,0.1,1.4,0,2c-0.2,1.9,0,3.3,0.9,4.2c0.8,0.9,2,1.4,3.8,1.4c0.3,0,0.5,0,0.9,0c2.6-0.2,5.2-0.3,7.6-0.3
		c10.4,0,19.3,1.6,27.3,5c0.6,0.2,1.2,0.4,1.7,0.5h0.1c16.3,3.5,30.8,5.1,44.2,5.1c3.1,0,6.3-0.1,9.3-0.3c1.9-0.1,3.8-0.2,5.6-0.2
		c10,0,19.8,1.5,30,4.7c0.8,0.3,1.7,0.5,2.5,0.8c5.7,1.8,11.7,3.7,18,3.7c1.5,0,3-0.1,4.5-0.3c0.7,1.4,1.4,2.7,2.1,4.1
		c2.3,4.5,4.6,9.1,7,13.7c0.6,1.2,0.6,1.8-0.2,3c-1.9,3-3.5,6.1-5.1,9.2c-0.7,1.3-1.3,2.6-2,3.8l-0.6,1.2c-4.3,8-8.3,15.5-16.1,20.1
		c-0.8,0.5-2.6,1.7-2.6,3.4c0,1.3-0.2,2.6-0.4,4.1c-0.5,3.6-1.1,7.6,2.1,11.4c2.2,2.6,3.4,4.9,2.6,7.6c-0.4,1.4-0.8,2.8-1.2,4.1
		c-1.3,4.4-2.7,9-3.8,13.5c-0.6,2.5-1.7,4.7-2.9,7.1c-1.2,2.5-2.5,5.2-3.2,8.1c-2.2,9.3-4.1,18.9-5.9,28.1
		c-1.1,5.4-2.1,10.9-3.3,16.4C382.1,518,381.6,517.9,381,517.8z"/>
	<path class="st0" d="M556.4,545.9c-5.8-0.2-11.7-1.1-17.4-2c-2.9-0.4-6-0.9-8.9-1.3c-5.6-0.7-11.3-1.5-16.8-2.3
		c-5.1-0.7-10.5-1.5-15.8-2.2c-3.1-0.4-6.4-0.9-9.4-1.3c-5.7-0.9-11.7-1.8-17.6-2.1c-1.1-1-2.5-1.1-3.6-1.2c-0.3,0-0.6-0.1-0.9-0.1
		c-22.6-4.2-45.7-8.5-67.9-12.6l-12.1-2.2c1.1-5.4,2.2-11,3.3-16.3c1.8-9.2,3.7-18.7,5.9-28c0.6-2.6,1.8-4.9,3-7.4
		c1.2-2.4,2.4-5,3.1-7.7c1.1-4.5,2.5-9,3.8-13.4c0.4-1.4,0.8-2.8,1.2-4.2c1.5-4.9-1.7-8.8-3.2-10.6c-2.3-2.7-1.9-5.6-1.4-8.9
		c0.2-1.4,0.4-2.9,0.4-4.4c0.2-0.2,0.6-0.5,1-0.8c8.6-5,13-13.3,17.3-21.3l0.6-1.2c0.7-1.3,1.4-2.6,2-3.9c1.5-3,3.1-6.1,5-8.9
		c1.4-2.2,1.5-4,0.3-6.3c-2.4-4.5-4.7-9.1-7-13.6c-0.8-1.6-1.6-3.2-2.4-4.7c0.8-5.1,1.4-10.3,2.1-15.3c1.6-11.9,3.2-24.2,5.9-36.1
		c3.5-15.2,7.2-30.6,10.8-45.5c1.5-6.1,2.9-12.1,4.4-18.2c5.9,1.2,11.7,2.8,17.4,4.4c1.2,0.3,2.5,0.7,3.7,1
		c-0.4,2.8-0.8,5.6-1.1,8.4c-1,7.8-2.1,15.8-3.4,23.6c-0.8,4.6,0.3,8.8,1.3,12.8c0.4,1.4,0.7,2.8,1,4.2c3.9,19.9,14,37,23.1,51.5
		c1.5,2.4,3.5,2.7,4.9,2.7c0.5,0,1.1,0,1.6-0.1h0.2c0.2,0,0.4,0,0.6,0c1,0,1.2,0,1.6,2.5c1,7.1-2.2,12.7-5.6,18.7
		c-1.1,1.9-2.2,3.9-3.2,6c-1.5,3.2-2.1,6.4-2.7,9.7c-0.5,2.4-0.9,4.8-1.7,7.4c-0.2,0.6,0,1.3,0.5,1.8c0.3,0.2,0.6,0.3,1,0.3
		c0.3,0,0.6-0.1,0.9-0.2c1.2-0.8,2.4-1.5,3.5-2.1c2.3-1.4,4.3-2.6,6.3-4c0.9-0.6,1.3-0.6,1.5-0.6c0.5,0,1.1,0.3,2,1.1
		c4.1,3.3,4.9,8,5.6,12.9c0.2,1,0.3,2.1,0.5,3.1c0.4,2.2,0.8,4.5,1.1,6.8c0.2,1.4,0.4,2.8,0.6,4.2c0.3,1.9,1.3,3.6,3,5
		c3.1,2.6,4.4,5.9,4.2,10.7c-0.2,4.4-0.2,6.8,1.2,8.4c1.5,1.6,3.9,1.6,8.5,1.7h0.7c3.4,0,6.4-0.4,9-1.2c0.7-0.2,1.8-0.5,2.7-0.5
		c0.5,0,0.8,0.1,1.1,0.2c3.2,1.9,6.7,2.8,11.2,2.8c2.2,0,4.5-0.2,6.7-0.4c1.3-0.1,2.5-0.2,3.8-0.3c1.4-0.1,2.8-0.1,4.3-0.1
		c3.2,0,6.4,0.2,9.5,0.4h0.4c0,0.9,0,1.8-0.1,2.6c-2.5,19.2-5.1,39.6-7.8,60.2c-1.2,9.3-2.5,18.7-3.8,27.8
		C557.4,538.5,556.9,542.2,556.4,545.9z"/>
	<path class="st0" d="M985.9,500.8c-0.2-2.4-0.3-4.8-0.7-7.2l-0.2-1c-2.7-17.3-5.6-35.2-8.6-52.8c-0.2-0.9-0.3-1.8-0.4-2.8
		c-0.5-3.5-0.9-7.1-3.2-10.4c-2.6-3.8-3.9-5.7-3.8-7.2c0.1-1.5,1.7-3.3,4.5-6.7l0.1-0.1c0.1-0.2,0.2-0.3,0.3-0.4
		c1.3-1.3,1.2-2.9,1.1-3.9c0-0.2,0-0.5,0-0.7c0-2.1,0-4.2,0-6.3c0-3.2,0-6.4,0.1-9.6c0.1-4.3-0.6-8.6-2.3-13.1
		c-0.5-1.4-1.1-2.9-1.7-4.3c-1.7-4.1-3.4-8.4-4.2-12.8c-3.2-17.9-6.8-36-10.8-53.7c-1.4-6-2.9-12.8-3.3-19.7
		c3.5-0.1,7.1-0.2,10.6-0.3c12.1-0.4,24.6-0.7,36.9-1c3.5-0.1,5.1-1.6,5.2-5c0-1.1,0.2-2.2,0.3-3.4c0.2-1.2,0.3-2.5,0.4-3.7
		c0-1.4,0.3-1.8,1.7-2.3c0.8-0.3,1.5-0.6,2.1-0.8c0.7-0.3,1.4-0.5,1.8-0.7c0.2,0.3,0.4,0.8,0.6,1.3c0.3,0.6,0.7,1.5,1.2,2.4
		c2,4,4,8.1,5.9,12.1c1,2.1,2,4.1,3,6.2c0.1,0.2,0.2,0.4,0.3,0.6c0.4,0.9,0.8,2.1,2,2.5c1.8,0.7,3.6,1.6,5.5,2.6
		c3.8,2,7.7,4.1,12.1,4.1c1,0,2-0.1,3-0.3c1.7-0.4,3.4-0.6,5.1-0.6c7.2,0,13.6,3.6,19.1,6.8c1.2,0.7,2.8,1.4,4.6,1.4
		c0.9,0,1.8-0.2,2.7-0.5c3.1-1.2,6.1-1.8,9.1-1.8c4.8,0,9.6,1.5,14.2,4.6c1.9,1.2,3.6,1.8,5.1,1.8c1.8,0,3.5-0.8,5-2.3
		c1.4-1.4,3-2,5.1-2c1.6,0,3.2,0.3,4.9,0.7l0.6,0.1c3,0.6,6.8,1.4,10.4,1.4c3.5,0,6.5-0.7,9.3-2.1c0.1,0,0.2-0.1,0.2-0.1
		c0.2,0,0.5,0.2,0.9,0.4c0.1,0.1,0.3,0.1,0.4,0.2c2.1,1.1,4.1,2.2,6.2,3.3c-13.7,7.9-24.4,19.3-34.8,30.3c-1.6,1.7-3.1,3.3-4.7,5
		c-3.8,4-7.4,8.3-10.9,12.5c-1,1.2-2,2.4-3,3.6c-0.2,0.2-0.3,0.4-0.5,0.6c-0.9,1-2.1,2.4-2.4,4.3c0,0.1,0,0.3,0,0.4l0.3,2.2
		c0.8,5.5,1.5,11.3,1.3,17c-0.1,1.9-0.2,2.7-1.1,3.2c-4,2.2-7,5.4-10,8.4c-0.9,1-1.9,2-2.9,2.9c-3,3-4.5,4.4-4.3,6.4
		c0.2,1.9,2.1,3,5.7,5.2c0.2,0.1,0.3,0.2,0.5,0.3c1.9,1.1,2.3,1.5,2.1,2.4c-0.8,4.2-0.7,8.4-0.6,12.5c0.1,2.3,0.1,4.6,0,6.9
		c-0.2,3.6,1.2,6.8,4.2,9.3c6.7,5.7,13.3,11.4,20,17.1c6.3,5.4,12.7,10.9,19,16.3c2.1,1.8,2.8,3.3,2.5,5.5c-0.2,1.3-0.1,2.6-0.1,3.8
		v0.1l-18.2,1.6c-15.4,1.4-30.8,2.7-46.3,4.1c-6,0.5-12,1.1-18,1.7c-7.1,0.7-14.5,1.4-21.7,2c-9.3,0.8-18.8,1.6-27.9,2.3
		c-3.5,0.3-7.1,0.6-10.6,0.9C986,501.9,986,501.3,985.9,500.8z"/>
	<path class="st0" d="M971,409.8c-1.2,0-2.4-0.1-3.6-0.1c-57.5,0-115,0-172.5,0h-24.8l0.5-10.9c0.5-10.5,1-21.1,1.4-31.6
		c0.1-3,0.3-6,0.5-9c0.2-3.1,0.3-6.2,0.5-9.3c0.4-9.4,0.9-18.7,1.3-28.1c0.5-10.2,0.9-20.3,1.4-30.5c0-1.1,0.2-2.2,0.3-3.4
		c0-0.1,0-0.1,0-0.2c14.4,0.1,28.7,0.5,42.4,1.3c1.1,0.1,2.2,0.1,3.2,0.1h1.3c0.7,0,1.3,0,2,0c20,0.6,41.3,0.8,69,0.8
		c11.3,0,22.7,0,33.5-0.1c5.5,0,11-0.2,16.4-0.4c2-0.1,4-0.1,5.9-0.2c0.4,7.2,2,14.1,3.3,20.3c4,17.7,7.6,35.7,10.8,53.5
		c0.8,4.7,2.6,9.1,4.3,13.4c0.6,1.4,1.1,2.8,1.7,4.2c1.5,4.1,2.2,7.9,2.1,11.8c-0.1,3.3-0.1,6.6-0.1,9.8c0,2.1,0,4.2,0,6.3
		c0,0.3,0,0.7,0,1c0,0.6,0,0.9,0,1.1C971.5,409.8,971.3,409.8,971,409.8z"/>
	<path class="st0" d="M411.8,356.2c-5.8,0-11.5-1.8-17-3.5c-0.8-0.3-1.7-0.5-2.5-0.8c-10.5-3.3-20.6-4.8-31-4.8
		c-1.9,0-3.9,0.1-5.8,0.2c-3,0.2-6.1,0.3-9.1,0.3c-13.3,0-27.5-1.7-43.6-5.1h-0.1c-0.4-0.1-0.8-0.2-1.1-0.3
		c-8.4-3.6-17.8-5.3-28.6-5.3c-2.5,0-5.1,0.1-7.8,0.3c-0.2,0-0.4,0-0.6,0c-0.8,0-1.2-0.1-1.4-0.3c0-0.1-0.3-0.4-0.1-1.7
		c0.1-0.9,0.1-1.7,0-2.6c0-0.8-0.1-1.5,0-2.2c1.6-8.7-2.9-15.1-6.9-19.7c-1.3-1.5-2.6-2.3-4.4-2.7c-4.8-1.1-9.7-2.4-14.5-3.6
		c-1.3-0.3-2.6-0.6-3.9-1c0.3-2.1,0.7-4.3,1-6.4c1-6.7,2.1-13.6,3.3-20.4c0.4-2.2,0.4-4.4,0.4-6.6c0-0.7,0-1.4,0-2
		c0.1-4.3,0.1-8.6,0.1-12.8c0-7.3-0.1-14.9,0.5-22.3c0.4-4.3,0.1-8.7-0.2-12.9c-0.1-2-0.3-4-0.3-6v-0.2c0-1.1-0.1-2.1,0.1-2.9
		c0.1-0.6,0.3-1,0.4-1.1c0.1,0.1,0.4,0.2,0.8,0.6c8.9,8,19.3,14.1,29.3,19.9l2.3,1.4c3.5,2.1,7.2,2.5,10.8,2.9
		c1.4,0.2,2.7,0.3,4,0.6c1.7,0.3,3.4,0.5,5,0.6c1,0.1,2,0.2,3,0.3c0.4,0.1,0.7,0.1,1,0.1c3.2,0,3.9-2.6,4.3-4.2
		c1.5-6.1-0.1-11.5-1.7-16.7c-0.8-2.8-1.6-5.3-2-8c0-0.3-0.1-0.6-0.1-0.9c-0.1-1-0.3-1.9-0.3-2.8c0-0.3,0-0.5,0-0.6
		c0.2,0,0.5,0.1,0.9,0.2c16.4,5.5,33.4,9.8,49.8,14c3.7,0.9,7.3,1.9,11,2.8c17,4.4,34.4,8.8,51.1,13c9.5,2.4,19,4.8,28.5,7.2
		c0.9,0.2,1.7,0.6,2.6,0.9l0,0c-1.5,6.1-3,12.2-4.4,18.3c-3.6,14.9-7.4,30.3-10.8,45.6c-2.7,12-4.4,24.4-5.9,36.4
		c-0.6,4.8-1.3,9.7-2,14.6C414.5,356.1,413.2,356.2,411.8,356.2z"/>
	<path class="st0" d="M1157.2,529.3c-0.8-0.8-1.5-1.5-2.3-2.3c-3.4-3.5-6.9-7-12-8.8c-2.2-0.8-3.1-2.3-3.9-5
		c-0.7-2.3-1.3-4.6-1.9-6.9c-1.4-5.1-2.8-10.4-5-15.4c0-0.4,0-0.9,0-1.3c0-1.2-0.1-2.3,0.1-3.3c0.6-4.2-1.8-6.8-3.6-8.3
		c-6.3-5.4-12.7-10.8-19-16.2c-6.7-5.7-13.3-11.4-20-17.1c-2.2-1.9-3.2-4-3.1-6.7c0.1-2.4,0.1-4.8,0-7.1c-0.1-4.1-0.2-7.9,0.5-11.8
		c0.6-3.3-2.1-4.8-3.7-5.8l-0.5-0.3c-1.9-1.1-3.8-2.3-4.2-2.8c0.2-0.6,1.9-2.2,3.3-3.7c1-1,2-2,2.9-3c2.9-3,5.6-5.9,9.2-7.8
		c2.6-1.4,2.7-3.9,2.8-5.8c0.3-6-0.5-11.9-1.3-17.5l-0.1-0.5c4-0.6,7.6-2.2,11.1-3.7c1.6-0.7,3.3-1.4,5-2c5.2-1.9,10.4-4.2,15.2-6.3
		c0.2-0.1,0.4-0.1,0.5-0.2c0,0.1,0,0.2,0,0.3c-0.5,7,3,11.1,10.4,12.1c1.3,0.2,2.6,0.6,3.6,1.1c12.3,6.6,25.6,8.8,36.9,10.1
		c4.9,0.5,9.8,2,14.5,3.3c4.8,1.4,9.8,2.9,15,3.4c6.3,0.7,8.2,4.1,9.3,9.4c0.2,1.2,0.5,2.4,0.8,3.6c0.5,2.2,1,4.6,1.4,6.9
		c0.8,4.2,0.4,7.3-1.1,10.3c-1,2-1.7,4.1-2.3,6.2c-0.2,0.5-0.3,1-0.5,1.6c-0.7,2.3-0.4,4.8,0.8,7c1.3,2.3,3.4,3.9,5.7,4.5
		c0.3,0.1,0.7,0.1,0.9,0.1c2.1,0,2.6-1.8,2.8-2.4c0-0.1,0.1-0.3,0.1-0.4c0.8-1.7,1.5-3.5,2.3-5.2c1.1-2.6,2.3-5.3,3.5-7.9
		c2.2-4.6,5.3-8.5,8.6-12.6c0.1-0.1,0.1-0.1,0.2-0.2c-0.6,2.3-1.5,4.7-2.7,7.4c-3,7-4.8,14.5-6.5,21.7c-0.6,2.5-1.2,5.1-1.9,7.7
		c-0.3,1.1-0.2,2.2-0.1,3.2c0,0.3,0.1,0.6,0.1,0.9l1.8,24.9c0.9,12.2,1.7,24.4,2.6,36.6c0.1,0.7,0,1.3,0,2.1
		c-0.9,0.1-1.8,0.2-2.7,0.4c-20.1,3.8-40.2,7.7-60.3,11.6L1157.2,529.3z"/>
	<path id="IL" class="st0" d="M1225.8,735.8c-0.4-0.5-0.8-0.9-1.2-1.4c-0.9-1.1-1.8-2.2-2.7-3.3c-3.8-4.5-7.4-8.9-8.9-14.3
		c-0.8-3-2.2-6.4-5.3-8.8c-7.5-5.9-15.4-12.5-22.5-19.9c-1.8-1.9-1.7-2.6-0.4-4.2c1.1-1.4,2.1-2.9,3.1-4.4c1-1.6,2-3,3.1-4.4
		c0.8-1,1.8-2.4,1.4-4.1c-0.3-1.6-1.8-2.6-3.1-3.2c-5.7-2.9-10.3-4.2-15-4.2c-0.9,0-1.8,0-2.7,0.2c-0.4,0-0.7,0.1-1,0.1
		c-1.3,0-2-0.4-2.5-1.3c-4.4-8.1-11.5-13.5-18.4-18.7l-0.4-0.3c-1.5-1.1-2.3-2.4-2.6-4.2c-1.1-6.2-2.1-12.5-3.1-18.7
		c-0.3-2.1-0.7-4.2-1-6.3l0.5-1.1c5.1-11.9,10.4-24.2,8.3-38.1c-0.2-1.1,0.1-1.8,1.8-2.5c3.5-1.5,6.9-3,10.3-4.5l1.1-0.5
		c0.2-0.1,0.3-0.1,0.5-0.2c1.2-0.5,3-1.3,3.4-3.4l0.1-0.4c1.5-7.5,3-15.2-1.9-22.8c-1.3-2-2.8-3.7-4.3-5.4c-1-1.1-1.9-2.1-2.7-3.2
		l10.4-2c20.6-4,41.1-7.9,61.7-11.8c0.7-0.1,1.3-0.2,2-0.3c0.3,6.4,4.2,11.2,7.8,15.7l0.4,0.5c2.1,2.5,4.2,5.1,6.2,7.6
		c0.8,1,1.7,2,2.5,3c0.2,1.4,0.3,2.7,0.5,4.1c0.4,3.4,0.8,6.7,1.1,10.1c0.3,2.8,0.6,5.5,0.9,8.3c0.9,9.1,1.9,18.5,2.8,27.8l0.3,3
		c1,10.1,1.9,19.6,0.5,29.6c-0.1,0.8-0.2,1.5-0.3,2.3c-1.2,8.2-2.6,17.6,3.5,25.8c0.4,0.5,0.5,1.4,0.3,2.1
		c-1.6,5.5-1.9,11.2-2.1,16.6c-0.2,4-0.4,8.1-1.1,12c-0.2,1.3-0.3,2.5-0.4,3.8c-0.2,2.8-0.4,5.5-2.2,7.7c-1.3,1.6-2.7,3.2-4,4.8
		c-2.6,3.2-5.3,6.4-8,9.5c-2.3,2.6-2.3,5,0,7.5l6.2,9.3c-1.5-0.2-3-0.3-4.4-0.3C1236.9,729,1230.9,731.2,1225.8,735.8z"/>
	<path id="PA" class="st0" d="M1472.8,577.1c-0.2,0-0.2,0-0.2,0l0,0c0,0-0.2-0.2-0.4-1.2c-1-4.9-2.2-9.9-3.3-14.7
		c-0.5-2-0.9-3.9-1.4-5.8c0,0,0-0.1,0-0.2c-0.5-1.5-0.6-3.2-0.7-5s-0.2-3.6-0.7-5.5c-3.7-12.2-7.3-24.6-10.8-36.6
		c-1.2-4.1-2.4-8.2-3.6-12.3c0.5-0.8,1.4-1.4,2.4-2c0.5-0.4,1.1-0.7,1.6-1.1c4.5-3.7,8.8-8.4,13.5-14.6c0.1,1.8,0.2,3.5-0.1,5.1
		c-0.2,1.4-0.3,3,0.7,4.2c0.6,0.7,1.5,1,2.6,1c0.6,0,1.3-0.1,2.3-0.3c9.5-2.1,19.1-4.3,28.4-6.3c4.8-1.1,9.6-2.1,14.4-3.2
		c14.8-3.3,29.5-6.6,44.3-9.9l36.8-8.2c0.6-0.1,1.2-0.3,1.7-0.3s0.8,0.1,1.2,0.5c4.8,5.4,10.8,9.3,16.6,13c0.4,0.2,0.7,0.5,1.1,0.7
		l-1.5,6.2c-1.6,6.9-3.2,13.7-4.8,20.6c-0.6,2.7,0.3,4.7,2.7,6c2.4,1.3,4.8,2.7,7.1,4.1c2.2,1.3,4.4,2.6,6.7,3.9
		c1.1,0.6,1.7,1.1,1.8,1.3c0,0,0.1,0.4-0.8,1.6c-3.2,4.4-6.3,9.4-9.2,14.7c-0.5,1-1.4,1.6-2.5,2.3c-1,0.6-2.1,1.3-2.9,2.5
		c-1.9,0.8-3.5,1.8-5.2,2.8c-2.1,1.3-4,2.5-6.2,3.1c-0.4,0.1-0.8,0.1-1.2,0.2c-0.9,0.1-1.9,0.3-2.8,0.5l-3.2,0.8
		c-16.1,4.2-32.7,8.5-49,12.8c-9.2,2.4-18.6,5-27.7,7.4c-4.1,1.1-8.2,2.2-12.2,3.3c-0.3,0-0.6,0.1-0.9,0.1c-0.8,0.1-1.5,0.2-2.3,0.4
		l-4.3,1.1c-8.7,2.2-17.7,4.6-26.5,6.9C1473.5,577,1473.1,577.1,1472.8,577.1z"/>
	<path id="MI" class="st0" d="M1269.9,538.3c4.2-6,6.6-12.9,8.8-19.5c0.6-1.7,1.2-3.5,1.8-5.3c1.5-4.2,1.5-8.6,0.1-13.5
		c-0.3-0.9-0.5-1.7-0.8-2.6c-1.5-5-3-10.2-5.8-14.9c-1.6-2.8-2.3-6.1-2.6-8.5c-0.7-5.6-2.2-11.3-4.8-18.5c-1.3-3.5-1.9-6.6-0.6-10
		c1.6-4.3,1.7-8.8,1.7-13.1c0-1.8,0-3.6,0.2-5.4c0.2-2.7,1.2-5.5,3-8.2c2.7-4.2,5.2-8.1,7.5-12.5c0.4,1.4,0.7,2.8,1.2,4
		c0,0.1,0.1,0.4,0.1,0.5c0.1,0.8,0.5,3.3,3.1,3.3c0.4,0,0.8-0.1,1.2-0.2c0.2,0,0.4-0.1,0.6-0.1c1.8-0.4,4.7-1.1,4.3-5.1
		c-0.2-2.1-0.4-4.2-0.5-6.2c-0.1-1.4-0.2-2.7-0.3-4c-0.2-2,0.2-2.3,1.6-2.5c1.7-0.2,2.9-0.9,3.6-2c1.2-1.9,0.6-4.3,0.2-5.9l-0.1-0.4
		c-0.6-2.5,0.3-3.5,2.2-5.5c0.2-0.2,0.4-0.4,0.6-0.6c3-3.2,5.8-4.7,8.8-4.7c2.4,0,5.2,1,8.4,3.1c5.7,3.7,11.9,6.7,17.9,9.6
		c2.7,1.3,5.4,2.6,8,4c0.2,0.1,0.4,0.2,0.6,0.3c0.2,0.1,0.4,0.2,0.6,0.3c0.6,2.3,1.5,4.5,2.3,6.7c2.1,5.1,4,10,2.1,15.6
		c-0.6,1.9-1.3,3.7-1.9,5.6c-2.6,7.5-5.3,15.2-7.1,23.1c-0.1,0.3-0.1,0.6-0.2,0.9c-0.6,2.3-1.5,5.8,1.5,7.9c0.9,0.6,1.8,0.9,2.8,0.9
		c2,0,3.6-1.4,4.8-2.6c0.4-0.4,0.8-0.7,1.2-1c1.7-1.3,3.2-3.2,4.2-5.2c2.5-5.3,7.4-7,12.6-8.8c0.8-0.3,1.6-0.5,2.4-0.8
		c0.2-0.1,0.3-0.1,0.3-0.1c0.1,0,0.3,0.2,0.8,1.1c1.7,3,3.4,6.1,5.1,9.1c3.7,6.6,7.5,13.5,11,20.3c2.3,4.5,3.2,10,2.8,16.7v0.2
		c0,0.3,0,0.7-0.1,0.9c-0.1-0.1-0.2-0.2-0.3-0.2c-0.2-0.2-0.4-0.4-0.7-0.6c-0.2-0.2-0.6-0.6-0.9-1c-0.7-0.9-1.7-2.2-3.3-2.2
		c-0.4,0-0.9,0.1-1.3,0.3c-3,1.4-2.4,5.2-2.2,6.8c0.9,5.9-1.2,11.1-3.4,16.6c-0.4,1.1-0.9,2.2-1.3,3.3v0.1c-2,5.3-4.1,10.9-4.8,16.8
		c-3.7,0.8-7.4,1.3-11.1,1.8c-3,0.4-6.2,0.8-9.2,1.3c-1.4,0.3-2.8,0.4-4.2,0.5c-2.8,0.3-5.7,0.6-8.5,1.8c-0.7-0.2-1.4-0.3-2.1-0.3
		c-0.9,0-1.8,0.2-2.6,0.3c-0.3,0.1-0.7,0.1-1,0.2c-6,0.8-12,1.7-17.9,2.5c-5.9,0.9-12,1.7-18,2.6c-2.7,0.4-5.4,0.8-8,1.2
		C1279.5,537.1,1274.7,537.9,1269.9,538.3z"/>
	<path class="st0" d="M1418.3,645.7c-2.8-1.4-5.1-3.5-7.6-5.8c-0.6-0.5-1.2-1.1-1.8-1.6c-2.2-2-4.3-3-6.5-3c-1.2,0-2.4,0.3-3.7,0.8
		c-7.1,3.1-14.5,3.5-21.4,3.5c-2.2,0-4.4,0-6.5-0.1c-1.1,0-2-0.4-3.1-0.8l-0.6-0.2c-2.3-0.9-4.6-2-6.9-3c-3.5-1.6-7-3.3-10.8-4.4
		c-1.2-4-1.6-8-2.1-12.3c-0.2-2-0.4-4.1-0.8-6.2c-3.1-20.4-5.6-37.4-7.7-53.6c-0.4-2.9-0.8-5.8-1.3-8.6c-0.9-5.8-1.9-11.8-2.2-17.8
		c2.2-0.9,4.6-1.1,7.2-1.4c1.5-0.2,3-0.3,4.5-0.6c3-0.6,6-0.9,9-1.3c4-0.5,8.1-1,12.1-2c1.4,0.4,2.8,0.8,4.2,1.2
		c3.5,1,7.1,2.1,10.6,3.3c2.1,0.7,4,1.1,5.9,1.1c2.6,0,4.9-0.7,7.3-2c5.6-3.1,11.6-5.6,17.4-8c3-1.2,6-2.5,9-3.8
		c5.2-2.3,9.1-5.4,11.9-9.2c2.7-3.8,6.4-6.2,10.4-8.9c1.4-0.9,2.8-1.8,4.1-2.8c1,3.6,2.1,7.1,3.1,10.7c3.5,12,7.1,24.5,10.8,36.7
		c0.4,1.5,0.5,3.1,0.6,4.7c0.1,1.7,0.2,3.5,0.7,5.3c-0.8,1.9-0.7,3.8-0.6,5.5c0,1.3,0.1,2.5-0.2,3.6c-1.8,7.4-3.6,14.9-5.2,22.2
		l-0.2,1.1c-0.5,2.3-1.4,3.6-3.2,4.5c-1.9,1-3.9,2.2-5.7,3.4c-2.1,1.3-4.2,2.6-6.3,3.7c-3.5,1.8-4.9,4.3-4.8,8.4
		c0.1,2.5,0.2,5-0.4,5.6c-0.5,0.5-3,0.6-5.6,0.6c-1.2,0-2.8,0.2-4,1.3c-1.1,1.2-1.2,2.8-1.2,4.2c0.1,1.8,0,3.7,0,5.5
		c0,2.5-0.1,5.2,0.1,7.8c0.3,4.4-0.7,6.8-3.7,8.6c-1.6,0.9-2.8,2.2-4.1,3.4C1418.9,645.2,1418.6,645.4,1418.3,645.7z"/>
	<path class="st0" d="M1243.8,716.8c-0.4-0.7-0.2-1.2,0.7-2.3c2.8-3.1,5.5-6.4,8.1-9.6c1.3-1.6,2.7-3.2,4-4.8c2.5-2.9,2.7-6.4,3-9.5
		c0.1-1.2,0.2-2.3,0.4-3.4c0.8-4.1,1-8.3,1.2-12.4c0.2-5.3,0.5-10.7,2-15.9c0.5-1.7,0.2-3.5-0.8-4.9c-5.3-7.2-4.1-15.5-2.9-23.5
		c0.1-0.8,0.2-1.6,0.3-2.4c1.4-10.3,0.5-20.5-0.5-30.3l-0.3-3c-0.9-9.3-1.8-18.7-2.8-27.9c-0.3-2.8-0.6-5.5-0.9-8.3
		c-0.3-3.4-0.7-6.8-1.1-10.1c-0.1-0.4-0.1-0.8-0.1-1.2c0.8,0.3,1.6,0.5,2.5,0.5c2.1,0,4.1-1,6.3-2.9c0.9-0.8,2-1.6,3.1-2.4
		c0.4-0.3,0.7-0.5,1.1-0.8c6-0.4,11.9-1.3,17.7-2.2c2.6-0.4,5.3-0.8,8-1.2c6-0.8,12.1-1.7,18-2.6c5.8-0.8,11.9-1.7,17.8-2.5
		c0.4,0,0.7-0.1,1.1-0.2c0.7-0.1,1.4-0.2,2-0.2c0.2,0,0.4,0,0.6,0c0.3,6.1,1.3,12.2,2.2,18.1c0.4,2.8,0.9,5.7,1.3,8.5
		c2.2,16.2,4.6,33.3,7.7,53.7c0.3,2,0.5,4,0.8,6c0.5,4.5,1,9.2,2.4,13.7c0.8,4.1-0.6,6.6-4.8,8.2c-0.9,0.4-1.8,0.9-2.5,1.4
		c-0.6,0.4-1.1,0.8-1.7,1c-5,2.2-7,5.8-6.2,10.8c0.6,4-0.4,7.4-3.1,10.5c-1.9,2.2-3.7,4.6-5.3,6.9c-0.7,1-1.4,2-2.2,3
		c-3,4.1-3.9,5.1-5.4,5.1c-1.3,0-3.3-0.7-6.1-1.6c-1.2-0.4-2.2-0.6-3.1-0.6c-1.7,0-3.3,0.7-4.9,2l-0.4,0.3c-3,2.6-6.1,5.2-8.7,8.3
		c-4.5,5.3-9.4,7.7-16.2,7.7c-0.5,0-1.1,0-1.6,0c-0.3,0-0.7,0-1,0c-6.4,0-12.3,3.3-16.1,9.2C1253.6,710.6,1248.5,714.1,1243.8,716.8
		z"/>
	<path class="st0" d="M1647.1,399.8c-2.8-5.9-5-12.1-7.2-18.1c-0.9-2.6-1.9-5.3-2.9-8c-5.7-14.8-11.4-29.9-16.9-44.6l-3.6-9.6
		c-0.2-0.5-0.3-1.1-0.5-1.6c6.4-3.3,13.2-6,19.8-8.7c2.8-1.1,5.8-2.3,8.7-3.5c1.6-0.6,3.1-1.4,4.6-2c3.4-1.5,6.8-3.1,10.4-4.1
		c2.6,6.9,3,14.3,2.6,23c0,0.5-0.3,0.9-1,1.6c-0.6,0.5-1.2,1.1-1.7,1.7c-1.5,1.5-2.9,2.9-4.6,4c-3.9,2.6-4.9,5.9-3.1,10.3
		c2.4,5.8,4.2,12.1,5.8,18c1.2,4.3,1.5,8.9,1.7,13.3c0.1,1.9,0.2,3.8,0.4,5.7l0.3,3.6c0.5,5.2,1,10.6,1.7,15.8
		c0.2,1.3,0.1,2.2-0.3,2.6c-0.3,0.4-1.2,0.6-2.4,0.6c-0.4,0-0.8,0-1.2,0c-1-0.1-2.1-0.1-3.3-0.1c-1.7,0-3.3,0.1-4.9,0.1
		C1648.7,399.7,1647.9,399.7,1647.1,399.8z"/>
	<path class="st0" d="M408,805.4c-3.8-5-7.6-10.2-11.4-15.2c-20.5-27.6-41.1-55.3-61.6-82.9c-9.6-13-19.3-26-29-39
		c-11-14.9-22-29.7-33.1-44.6c-1.1-1.5-1.3-3-0.8-5.1c5.5-22.5,11-45,16.5-67.4l1.9-7.7c2.2-9,4.4-18,6.5-26.9l2.5-10.3l16.1,3
		c19.3,3.6,38.6,7.1,57.9,10.7c2.3,0.4,4.7,0.8,7,1.1c1.1,0.2,2.1,0.3,3.2,0.5l13.7,2.5c22.3,4.1,45.3,8.3,67.9,12.6
		c0.4,0.1,0.8,0.1,1.2,0.2c0.6,0.1,1.1,0.1,1.4,0.2c0,0.2-0.1,0.3-0.1,0.5c-0.2,1.1-0.4,2.2-0.6,3.3c-1,7.5-2.1,15-3.1,22.5l-1.4,10
		l-2.6,18.8c-1.6,11.6-3.2,23.3-4.9,34.9l-1.2,8.5c-2.1,15.5-4.4,31.5-6.5,47.2c-1.7,12.2-3.3,24.4-4.9,36.6
		c-0.7,5.3-1.4,10.7-2.1,16c-0.4,2.4-0.7,4.8-1.1,7.2c-0.9,5.7-1.9,11.7-2.5,17.6c-0.4,3.9-2.4,6.9-4.6,10.1l-0.2,0.2
		c-0.4,0.6-0.8,0.8-1.6,0.8c-0.6,0-1.2-0.1-1.9-0.2c-0.4-0.1-0.9-0.2-1.3-0.2c-0.5-0.1-1-0.1-1.5-0.1c-4.8,0-6.1,3.2-6.8,6.4
		l-0.8,3.7c-2.1,9.6-4.3,19.4-7,29C410.2,808.4,409.1,806.9,408,805.4z"/>
	<path class="st0" d="M1001.1,885.1c-0.3,0-0.9,0-1.9-1.7c-0.4-0.7-0.7-1.4-1.1-2.2c-1.3-2.7-2.7-5.8-5.7-6.4
		c-0.3-0.1-0.6-0.1-0.9-0.1c-2.7,0-5.1,2.1-7.2,4c-0.5,0.5-1,0.9-1.5,1.3c-1.4,1.1-3,1.6-5.2,1.6c-1,0-2.1-0.1-3.2-0.2
		c-0.5-0.1-1.1-0.1-1.6-0.2l-0.8-0.1c-2-0.2-4.2-0.3-6.3-0.3s-4,0.2-5.7,0.5c-0.7,0.2-1.4,0.2-2,0.2c-2.1,0-3.6-0.8-4.9-2.4
		c-3.4-4.4-7.9-6.6-14-6.6c-0.8,0-1.6,0-2.5,0.1c-2.1,0.2-3.9,0.3-5.6,0.3c-6.4,0-11.5-1.2-15.9-3.8c-1.7-1-1.7-1.2-1.6-1.9
		c0.2-1.6,0-2.8-0.8-3.7c-0.7-0.8-1.8-1.2-3.2-1.2c-0.3,0-0.7,0-1.1,0.1c-0.1,0-0.1,0-0.2,0c-0.1,0-0.3,0-0.4,0c-0.2,0-0.4,0-0.6,0
		c-0.3,0-0.6,0-0.9,0.1c-1.1,0.2-2.2,0.3-3.2,0.3c-6,0-10.8-3.5-15.3-7.1c-1-0.8-1-1.5-1-3.1v-0.3c0-5.4,0-10.8,0-16.1
		c0-15.7,0-31.9,0.1-47.9c0-1.9-0.2-3.9-1.5-5.2s-3.3-1.5-4.8-1.5h-0.1c-23.7,0.1-47.7,0.1-71,0.1c-6.8,0-13.5,0-20.2,0v-18.6
		l30.6,1.2c1.2,0.8,2.4,0.9,3.6,1.1h0.1c6.5,1,13.5,1.4,21.5,1.4c2,0,4.1,0,6.3-0.1c21.6-0.6,42.7-1.2,63.9-2.3
		c28.8-1.5,58-3.5,86.3-5.3l8.2-0.5c10.2-0.7,20.7-1.5,30.7-2.3c4.3-0.3,8.5-0.7,12.8-1c0.1,0.4,0.1,0.8,0.2,1.3
		c0,0.4,0.1,0.8,0.1,1.1c0.4,2.6,0.7,5.2,1,7.8c0.5,4.2,1,8.6,2,12.9c0.8,12.7,2.8,25.5,4.6,36.8l0.3,2.3
		c2.6,16.5,5.2,33.6,4.3,50.6c-0.2,4.3-0.1,8.8-0.1,13c0,1.2,0.1,2.3,0.1,3.5c-3.5-1.5-7-3.3-10.3-5c-2-1-4-2.1-6-3.1
		c-2.2-1.1-4.4-1.5-7.1-1.5h-0.1c-13.1,0-25.9,3.1-39.2,9.4C1002.3,884.9,1001.6,885.1,1001.1,885.1z"/>
	<path class="st0" d="M1087.1,904.2c0-4.4-0.1-9,0-13.5c0-1.2-0.1-2.8-1.2-4c-1.1-1.1-2.6-1.2-3.7-1.2c-0.2,0-0.3,0-0.5,0
		c-1.5,0-3.1,0.1-5,0.1c-1.7,0-3.4,0-5,0c-0.9,0-1.8,0-2.7,0c0-1.4-0.1-2.9-0.1-4.3c-0.1-4.2-0.2-8.6,0.1-12.8
		c0.9-17.4-1.8-34.6-4.4-51.3l-0.3-2.3c-1.7-10.8-3.6-22.9-4.4-34.9c1.8,0,3.7-0.3,5.4-0.5c0.7-0.1,1.5-0.2,2.2-0.3
		c5-0.6,10-1.2,15.1-1.8c4.9-0.6,9.7-1.1,14.6-1.7c11.3-1.4,23.6-2.9,37.5-4.6c5.5-0.7,11-1.4,16.5-2.1c6.1-0.8,12.1-1.6,18.2-2.3
		c8.8-1.1,17.7-2.2,26.4-3.2c0,0,2.9-0.3,3-0.3c0,0.1-0.1,0.1-0.1,0.2c-1,2-2,4.1-2.9,6.1c-1.1,2.3-2.1,4.6-3.3,6.9
		c-0.6,1.3-1.2,2.7-0.4,4c0.8,1.4,2.7,1.4,3.4,1.4h0.3c3.4-0.1,6.8-0.1,9.8-0.1h6.4c-0.1,0.5-0.3,1.1-0.6,1.7
		c-0.2,0.4-0.3,0.8-0.4,1.2c-3,8.8-6,17.5-9,26.3l-3,8.6l-5.3,10.2c-5.1,9.8-10.4,20-15.7,30c-1.4,2.7-2.1,5.4-2.1,8.4
		c0.1,8.4,0.1,16.9,0.1,25.1c0,2.6,0,5.2,0,7.8l-18.5,1.5c-14.9,1.2-29.8,2.5-44.7,3.7c-6.3,0.5-12.5,1-18.8,1.5l-6.9,0.5
		C1087.1,906.7,1087.1,905.5,1087.1,904.2z"/>
	<path class="st0" d="M787.7,759.9c-8.3-0.9-16.7-1.2-24.9-1.4c-3.5-0.1-7.1-0.2-10.6-0.3c-36.3-1.5-75.2-3.2-114.6-4.7
		c-2.9-0.1-5.9-0.3-8.7-0.4c-5.8-0.3-11.8-0.6-17.7-0.6c-2,0-3.9,0-5.7,0.1h-0.2c-0.8,0-1.6-0.2-2.5-0.4c-0.8-0.2-1.7-0.4-2.7-0.4
		c0.1-2,0.2-4.1,0.4-6.1c0.4-6,0.7-12.2,1.3-18.2c0.7-7,1.2-14,1.7-20.3c0.5-6.7,1.1-13.4,1.8-20c0.4-4.5,0.8-9.1,1.2-13.7
		c0.2-2.1,0.4-4.2,0.5-6.2c0.5-5.2,1-10.7,1.3-16c0.7-12.2,1.9-24.5,3-35.2c0.3-2.7,0.5-5.4,0.7-8c0.3-4.5,0.7-9.2,1.5-13.8
		l11.3,0.8c9.4,0.7,18.9,1.3,28.3,2c7.6,0.5,15.2,1.1,22.7,1.6c21.4,1.5,43.5,3.1,65.3,4.6c2,0.1,4,0.3,6,0.5
		c3.7,0.3,7.5,0.7,11.3,0.7c1.5,0,3-0.1,4.3-0.2c4.7,0,9.4,0,14,0c6.3,0,12.6,0.1,18.9,0.1c7.5,0,13.7,0,19.6-0.1h0.2
		c1.4,0,2.2,0.2,2.6,0.5c0.5,0.5,0.5,1.9,0.5,3c-0.1,9.7-0.1,19.5,0,28.9c0,3.7,0,7.3,0.1,11V761L787.7,759.9z"/>
	<path class="st0" d="M597,751.8c-4.9-0.6-9.8-1.2-14.7-1.8c-12.4-1.5-25.2-3.1-37.8-4.5c-6.6-0.8-13.3-1.5-19.8-2.1
		c-6.3-0.7-12.9-1.3-19.4-2.1c-5.8-0.7-11.8-1.4-17.5-2.1c-9-1.1-18.3-2.3-27.5-3.2c-2.3-0.2-4.6-0.5-6.8-0.8
		c-3.2-0.4-6.4-0.9-9.7-1.1l1.9-14c1.6-12.3,3.3-24.6,5-36.9c2.1-15.8,4.4-31.8,6.5-47.2l1.2-8.5c1.6-11.7,3.2-23.3,4.9-34.9
		l2.6-18.8l1.4-10c1-7.5,2.1-15,3.1-22.5c0.1-1,0.4-2.1,0.6-3.2V538c5.5,0.4,11.1,1.2,16.5,2.1c3.1,0.5,6.3,1,9.5,1.4
		c5.2,0.7,10.5,1.4,15.7,2.2c5.5,0.8,11.3,1.6,16.9,2.3c3,0.4,6,0.8,8.8,1.2c5.7,0.9,11.6,1.8,17.6,2c0,0.9-0.1,1.8-0.2,2.6
		c-1.4,10.8-2.9,21.9-4.4,32.9c-0.2,1.4-0.2,3,0.8,4.1c1,1.2,2.6,1.3,3.8,1.3h0.4c2.5,0,5.1,0.2,7.6,0.5c1,0.1,2.1,0.2,3.1,0.3
		c11.1,0.8,22.1,1.7,33.2,2.5l10.1,0.8c-0.8,4.6-1.1,9.3-1.4,13.8c-0.2,2.6-0.4,5.3-0.7,7.9c-1.1,10.7-2.4,23.1-3.1,35.3
		c-0.3,5.3-0.8,10.7-1.3,15.9c-0.2,2.1-0.4,4.2-0.6,6.2c-0.4,4.6-0.8,9.2-1.2,13.7c-0.6,6.5-1.2,13.3-1.8,20
		c-0.5,6.2-1,13.3-1.7,20.2c-0.6,6.1-1,12.3-1.3,18.4C597.3,747.6,597.1,749.7,597,751.8z"/>
	<path class="st0" d="M1205,811.6c3-8.8,6-17.5,9-26.3c0.1-0.4,0.3-0.7,0.4-1.1c0.5-1.2,1-2.5,1-4.1l0.1-0.1c0.2-0.5,0.5-1,0.6-1.6
		c1.5-6.5,3-12.9,4.4-19.4l0.9-4.1c0.9-0.1,1.8-0.3,2.7-0.4c2.7-0.4,5.4-0.8,8.1-1.2c21.8-3.5,46.5-7.5,70.9-11.5
		c24.5-4,48.5-7.9,71.3-11.7c6.4-1.1,12.9-2.2,19.2-3.3c2.9-0.5,5.8-1,8.7-1.5h0.1l9.4-2.2c15.4-3.7,30.9-7.3,46.3-11
		c-0.3,1-0.7,2.1-1,3.2c-1.4,4.7-2.9,9.5-4.3,14.3c-0.5,1.8-1.3,2.8-2.7,3.5c-16.3,8.1-30.6,19.4-44.5,30.3
		c-3.6,2.9-7.4,5.8-11.1,8.7c-1.3,1-2,2-2.4,3.4c-0.4,1.6-0.9,3.2-1.4,4.8c-1,3.3-1.9,6.7-2.6,10.2c-3.4,1.1-7,1.6-10.7,2.1
		c-1.9,0.3-4,0.5-5.9,0.9c-5.3,1-10.8,1.9-16.1,2.8c-2.3,0.4-4.5,0.8-6.8,1.2c-5.5,0.1-10.8,1.2-16,2.2c-2.6,0.5-5.3,1.1-8,1.5
		c-12.7,2-25.6,4.2-38,6.3c-5.3,0.9-10.7,1.9-16,2.8c-1.2,0.2-2.5,0.4-3.7,0.6l-1.8,0.3c-4,0.5-8.1,0.9-12.2,1.4
		c-9.7,1.1-19.7,2.3-29.5,3.4c-2.4,0.3-4.8,0.6-7.1,0.9c-4.5,0.6-9.1,1.2-13.7,1.4L1205,811.6z"/>
	<path class="st0" d="M1432.8,780.6c-0.3,0.4-0.3,1.3-1.2,0.9C1431.9,781.2,1432.3,780.9,1432.8,780.6z"/>
	<path class="st0" d="M1227.1,739c4.7-4.6,10.2-6.9,16.9-6.9c1.5,0,3.1,0.1,4.6,0.3c0.2,0,0.4,0,0.6,0c0.4,0,0.8,0,1.2-0.1
		c0.3,0,0.6-0.1,1-0.1c0.6,0,1.1-0.4,1.3-0.9s0.2-1.1-0.1-1.6l-6.9-10.4c5-2.9,10.4-6.7,14.3-12.6c3.2-4.9,8.1-7.8,13.4-7.8
		c0.3,0,0.5,0,0.8,0c0.6,0,1.2,0,1.8,0c7.7,0,13.6-2.8,18.6-8.8c2.4-2.9,5.5-5.5,8.4-8l0.4-0.3c1.3-1.1,2.2-1.3,2.8-1.3
		c0.6,0,1.2,0.1,2.1,0.4c3.2,1.1,5.4,1.8,7.2,1.8c3.2,0,4.6-2,7.9-6.3c0.8-1.1,1.5-2.1,2.3-3.1c1.6-2.3,3.3-4.6,5.1-6.7
		c3.3-3.8,4.6-8.2,3.8-13.1c-0.6-3.5,0.7-5.7,4.4-7.3c0.8-0.4,1.5-0.8,2.2-1.3c0.7-0.4,1.3-0.8,1.9-1.1c4.8-1.8,7.2-5,7.1-9.4
		c3,1,5.9,2.3,8.9,3.7c2.3,1.1,4.7,2.2,7.1,3.1l0.6,0.2c1.2,0.5,2.5,1,4.1,1c2.2,0,4.5,0.1,6.7,0.1c6.9,0,15-0.5,22.7-3.8
		c0.9-0.4,1.7-0.6,2.4-0.6c1.4,0,2.7,0.7,4.4,2.1c0.6,0.5,1.1,1,1.7,1.6c2.6,2.4,5.2,4.8,8.6,6.5c0.3,1,0.9,1.8,1.5,2.4
		c1.6,1.8,3.2,3.5,4.9,5.2c4.5,4.8,9.2,9.8,13.5,14.9c0.7,0.8,1.4,1.6,2.2,2.3c1.5,1.6,3,3,3.9,4.8c-3,2.9-6,5.7-9,8.6
		c-10,9.5-20.3,19.4-30.6,29c-1.6,1.5-3.2,3.5-3.2,6.4c-2.4,0.4-4.8,0.8-7.3,1.3c-6.3,1.1-12.8,2.2-19.2,3.3
		c-22.8,3.8-46.8,7.7-71.3,11.7c-24.4,4-49.1,8-70.9,11.5c-2.7,0.4-5.4,0.8-8.1,1.2c-0.3,0-0.7,0.1-1.1,0.2L1227.1,739z"/>
	<path class="st0" d="M1465.1,684.7c-0.6,0-1.2-0.2-2-0.5c-1.7-0.7-3.4-1.5-5.1-2.2c-3.8-1.7-7.7-3.4-11.8-4.6
		c-1.2-2.5-3-4.3-4.7-6.1c-0.7-0.7-1.4-1.4-2-2.2c-4.4-5.1-9.1-10.1-13.6-15c-1.6-1.7-3.2-3.5-4.9-5.2c-0.3-0.3-0.5-0.6-0.6-0.8
		c0.3-0.3,0.7-0.6,1-1c1.2-1.1,2.2-2.2,3.5-2.9c5.2-3.1,5.6-7.8,5.3-11.6c-0.2-2.5-0.2-5-0.1-7.5c0-1.8,0.1-3.8,0-5.7
		c0-1.3,0.2-1.7,0.3-1.8c0.1-0.1,0.5-0.3,1.7-0.3c4,0,6.4,0,7.9-1.6c1.5-1.5,1.4-4,1.2-8c-0.1-2.9,0.7-4.2,3-5.5
		c2.3-1.2,4.4-2.5,6.5-3.8c1.8-1.1,3.7-2.3,5.5-3.3c2.6-1.4,4.1-3.5,4.8-6.6l0.2-1.1c1.7-7.3,3.4-14.8,5.2-22.2c0-0.1,0-0.2,0.1-0.2
		c0.9,3.8,1.8,7.6,2.6,11.4c0.2,0.9,0.8,3.8,3.8,3.8c0.6,0,1.2-0.1,2-0.3c8.8-2.4,17.8-4.7,26.5-6.9l4.3-1.1
		c0.4-0.1,0.9-0.2,1.4-0.3c0.6,3.5,1.5,6.8,2.4,10.1c0.8,2.9,1.7,5.9,2.2,8.8c0.5,2.6,2.7,3.4,3.5,3.6c2.8,1,5.3,1.5,7.8,1.5
		c1.1,0,2.2-0.1,3.3-0.3c4.1-0.8,8.1-1.7,12.1-2.5c5.3-1.1,10.8-2.3,16.3-3.3c0.8-0.1,1.5-0.4,2.1-0.6c0.8-0.3,1.6-0.6,2.3-0.6
		c0.1,0,0.2,0,0.3,0c-1.7,3.9-3.8,7.8-5.8,11.5c-1.6,2.9-3.2,6-4.7,9.1c-0.4,0.8-1,1.2-2.1,1.8c-0.8,0.5-1.8,1.1-2.5,2
		c-4.5,2.1-8.7,4.7-12.8,7.2c-2.1,1.3-4.2,2.6-6.3,3.8c-3.1,1.8-6.2,3.7-9.2,5.5c-3.5,2.1-7.1,4.3-10.7,6.3c-2.5,1.4-4,3.3-4.7,6.1
		c-1,3.9-2.1,7.9-3.1,11.8c-1.3,5-2.7,10.2-3.9,15.3c-0.5,1.9-1.3,3-3.2,3.8c-8.2,3.9-15.7,7.7-22.9,11.4
		C1466.5,684.5,1465.8,684.7,1465.1,684.7z"/>
	<path class="st0" d="M1622.2,557.9c-4.2-5.2-5.5-11.3-5.6-17.8C1619.2,545.8,1621.1,551.7,1622.2,557.9z"/>
	<path class="st0" d="M1623,560.3c-1.1-0.5-0.9-1.5-0.8-2.4C1623.2,558.5,1622.9,559.4,1623,560.3z"/>
	<path class="st0" d="M1623.5,561.1c-0.2-0.3-0.4-0.5-0.6-0.8C1623.1,560.6,1623.3,560.8,1623.5,561.1z"/>
	<path class="st0" d="M1597.9,601.1c-10.1-4.6-20.5-9.3-30.7-13.9c-0.3-0.1-0.6-0.3-0.9-0.5c-0.9-0.5-2-1.1-3.4-1.1
		c-0.5,0-0.9,0.1-1.4,0.2c-0.8-0.4-1.6-0.6-2.5-0.6c-1.2,0-2.4,0.4-3.4,0.8c-0.6,0.2-1.2,0.4-1.6,0.5c-5.5,1-11,2.2-16.3,3.3
		c-3.9,0.8-8,1.7-12.1,2.5c-0.8,0.2-1.7,0.2-2.6,0.2c-2.1,0-4.2-0.4-6.7-1.3c-1.2-0.4-1.3-0.8-1.4-1.2c-0.6-3.1-1.4-6.2-2.2-9.1
		c-0.9-3.2-1.8-6.5-2.4-9.9c3.6-1,7.3-2,10.9-2.9c9.1-2.4,18.5-5,27.7-7.4c16.3-4.3,32.9-8.6,49-12.8l3.1-0.8c0.6-0.2,1.3-0.3,2-0.4
		c0.9,19.5,1.4,38.8,1.6,57.4L1597.9,601.1z"/>
	<path class="st0" d="M758.5,601.3c-3.7,0-7.4-0.3-11-0.7c-2-0.2-4-0.4-6.1-0.5c-21.8-1.4-43.9-3-65.3-4.6
		c-7.6-0.5-15.2-1.1-22.7-1.6c-9.5-0.7-18.9-1.3-28.3-2l-12.7-0.9l-11.8-0.9c-11.1-0.8-22.1-1.7-33.2-2.5c-1-0.1-2.1-0.2-3.1-0.3
		c-2.6-0.2-5.2-0.5-7.9-0.5h-0.3c-1.2,0-1.4-0.2-1.4-0.2s-0.2-0.2,0-1.6c1.5-11,3-22.1,4.4-32.9c0.1-1,0.2-2.1,0.3-3.1
		c0-0.4,0-0.9,0.1-1.3c0.6-4.2,1.1-8.3,1.7-12.5c1.2-9.1,2.5-18.6,3.8-27.9c2.7-20.6,5.3-41,7.8-60.2c0.1-1.1,0.1-2.1,0.2-3.2
		c0-0.5,0-0.9,0-1.4c0-1,0-2,0.1-3c0.1-2.3,0.1-4.7,0-7.1c0-0.8,0.1-1,0.1-1.1l0,0c0,0,0.2,0,0.6,0c0.2,0,0.3,0,0.5,0
		c11.3,0.8,22.7,1.6,33.8,2.3c5.5,0.4,10.9,0.7,16.4,1.1c11,0.8,22,1.5,33,2.3l33.4,2.3c17.5,1.2,34.9,2.4,52.4,3.6
		c5.3,0.4,10.7,0.7,16,1c1.9,0.1,3.8,0.2,5.7,0.3l-0.2,9.1c-0.2,8.3-0.3,16.6-0.5,24.9c-0.2,10.5-0.5,20.9-0.8,31.4l-0.3,13.3
		c-0.5,5.7-0.5,11.4-0.6,17c0,4.2-0.1,8.7-0.3,13c-0.6,11.6-0.7,23.5-0.8,34.9c0,4.3-0.1,8.8-0.2,13.2
		C760.3,601.3,759.4,601.3,758.5,601.3z"/>
	<path class="st0" d="M974.7,534.1c-1.7-0.4-3.4-0.8-5.1-1.2c-4.4-1-8.9-2.1-13.2-3.6c-3.4-1.2-6.4-1.8-9.1-1.8
		c-4.8,0-8.9,1.9-12.4,5.7c-0.3,0.4-0.7,0.6-0.9,0.6c-0.1,0-0.5-0.1-1.4-1c-1-1-2-2-3-2.9c-1.2-1.2-2.4-2.3-3.5-3.5
		c-2.7-3.2-5.9-4.6-10.5-4.6c-30.5,0.1-60.7,0.1-83.6,0.1c-12.2,0-62.2,0-62.2,0c-1.2,0-2.3,0-3.5-0.1c0,0,0,0-0.1,0l0.3-11.8
		c0.2-10.5,0.5-20.9,0.7-31.4c0.2-8.3,0.4-16.6,0.5-24.9l0.2-10.7l0.3-6.9c0.3-6.6,0.6-13.1,0.8-19.7c0-0.3,0-0.6,0-1
		c0-1,0-1.8,0.2-2.6h24.9c57.7,0,115.3,0,173,0c0.7,0,1.3,0,2,0c-5.1,6.3-4.6,7.7,0.8,15.6c1.8,2.7,2.2,5.8,2.7,9
		c0.1,1,0.3,1.9,0.4,2.9c3,17.5,5.9,35.4,8.6,52.7l0.2,1c0.4,2.3,0.5,4.6,0.7,6.9c0,0.5,0.1,1,0.1,1.5h-7.4c-0.5,0-1.1,0.3-1.4,0.8
		s-0.3,1.1-0.1,1.6l1.1,2.2c0.6,1.3,1.2,2.4,1.7,3.4c0.7,1.4,1.5,2.8,2.4,4.2c1.7,2.8,3.5,5.8,3.4,8.3c-0.2,2.5-2.4,4.9-4.8,7.5
		C976.7,531.7,975.6,532.9,974.7,534.1z"/>
	<path class="st0" d="M1008.8,614.3c-0.5-0.9-0.4-1.9-0.2-3.3c0-0.5,0.1-0.9,0.1-1.3c0.6-10.5,0.2-21.6-7.3-31.3
		c-0.2-0.3-0.4-0.8-0.6-1.2c-0.1-0.2-0.1-0.4-0.2-0.5c-1.1-2.8-2.3-5.6-3.4-8.4c-3-7.5-6.2-15.3-9.1-23c-1.3-3.5-3.2-4.9-6.8-4.9
		c-0.2,0-0.4,0-0.6,0c-0.8,0-1.5,0-2.1,0c-1.4,0-1.8-0.2-1.8-0.2c-0.2-0.3-0.2-1.8-0.1-3.4c0.1-0.1,0.2-0.2,0.3-0.3
		c0.9-1.2,2-2.4,3.1-3.6c2.7-2.8,5.4-5.8,5.7-9.5c0.2-3.5-1.8-6.9-3.8-10.1c-0.8-1.4-1.6-2.6-2.2-3.9c-0.5-1.1-1-2.1-1.7-3.4h6.5
		h0.1c4.1-0.3,8.1-0.7,12.2-1c9.2-0.8,18.6-1.5,28-2.3c7.2-0.6,14.6-1.3,21.7-2c6-0.6,12-1.1,18-1.7c15.4-1.4,30.8-2.7,46.2-4.1
		l18.6-1.6c1.9,4.6,3.2,9.4,4.5,14.2c0.6,2.3,1.3,4.7,2,7c0.8,2.8,2.1,5.8,6,7.1c4.4,1.5,7.5,4.6,10.7,8c0.9,0.9,1.8,1.9,2.8,2.8
		c1.3,2,2.8,3.7,4.3,5.4s2.9,3.2,4,5c4.2,6.4,2.8,13.2,1.4,20.4l-0.1,0.4c-0.1,0.4-0.5,0.6-1.5,1.1c-0.2,0.1-0.3,0.2-0.5,0.2
		l-1.1,0.5c-3.3,1.5-6.8,3.1-10.2,4.5c-1.1,0.5-4.4,1.8-3.8,5.9c1.9,12.9-2.8,24.1-7.9,36c-1.4-1.2-2.5-2.7-3.7-4.3
		c-0.3-0.4-0.6-0.8-0.8-1.1c-2.2-2.8-4.8-4.1-8.4-4.1c-0.7,0-1.4,0-2.2,0.1c-15.5,1.8-31.9,3.5-50,5.4c-15.9,1.7-32.2,3.3-47.8,4.9
		C1021,613,1014.9,613.6,1008.8,614.3z"/>
	<path class="st0" d="M1195.5,778.3c-0.2,0-0.4,0-0.5,0c0.1-0.2,0.2-0.4,0.3-0.7c1.2-2.3,2.2-4.7,3.3-7c0.9-2,1.9-4,2.9-6
		c0.3-0.5,1.1-2.2,0.2-3.6c-0.3-0.6-1.1-1.2-2.7-1.2c-0.3,0-0.6,0-0.9,0.1l-2.8,0.3c-8.7,1-17.6,2.1-26.4,3.2
		c-6.1,0.8-12.1,1.5-18.2,2.3c-5.5,0.7-11,1.4-16.5,2.1c-13.9,1.8-26.1,3.3-37.5,4.6c-4.8,0.6-9.7,1.1-14.6,1.7
		c-5,0.6-10.1,1.2-15.1,1.8c-0.8,0.1-1.5,0.2-2.3,0.3c-1.8,0.3-3.4,0.5-5.1,0.5c-0.1,0-0.2,0-0.2,0c-0.8-3.8-1.3-7.7-1.7-11.5
		c-0.3-2.6-0.6-5.3-1-7.9c-0.1-0.3-0.1-0.6-0.1-0.9c-0.1-1-0.2-2-0.8-3.1c0.1-6.5-0.6-12.9-1.2-19.2c-0.4-3.6-0.8-7.3-1-11
		c-0.8-13-1.9-26.2-3-39c-0.3-3.8-0.6-7.5-0.9-11.3c-0.2-2-0.5-6.1-5.1-6.1c-0.5,0-0.9,0-1.5,0.1c-0.3,0-0.6,0.1-0.8,0.1
		c-0.7,0-1.4,0-1.8-2c-0.8-4.4-2-8.5-3.5-12.1c-1.3-3.1-0.9-4.9,1.6-6.7c0.5-0.4,2.2-1.7,1.9-3.4c-0.3-1.8-2.4-2.3-3.1-2.5
		c-2.1-0.6-4.2-1.3-6.3-2c-0.8-0.3-1.6-0.5-2.3-0.8c-1.2-1.3-2.3-2.5-3.5-3.8c-2.9-3.2-6-6.5-8.8-9.8c-0.7-0.8-1.5-1.7-2.2-2.4
		c-1.2-1.3-2.5-2.6-3.4-4c5.9-0.6,11.8-1.2,17.7-1.8c15.4-1.6,31.4-3.2,47-4.8c18.2-1.9,34.5-3.7,50-5.4c0.7-0.1,1.3-0.1,1.8-0.1
		c2.6,0,4.3,0.8,5.8,2.8c0.3,0.4,0.6,0.7,0.8,1.1c1.6,2.1,3.2,4.2,5.5,5.8c0.3,2,0.7,4.1,1,6.1c1,6.1,2,12.5,3.1,18.7
		c0.4,2.6,1.7,4.6,3.8,6.2l0.4,0.3c6.6,5,13.5,10.2,17.6,17.7c1.1,2,2.9,3,5.3,3c0.4,0,0.9,0,1.4-0.1c0.8-0.1,1.6-0.1,2.4-0.1
		c4.2,0,8.3,1.2,13.6,3.8c1.3,0.7,1.4,1,1.4,1s0.1,0.4-0.8,1.4c-1.2,1.5-2.3,3.1-3.3,4.7c-1,1.5-1.9,2.8-2.9,4.2
		c-2.4,3-2.2,5.5,0.6,8.5c7.3,7.6,15.3,14.2,22.8,20.2c2.4,1.9,3.4,4.6,4.2,7.2c1.8,6.1,5.7,10.9,9.6,15.5c0.9,1.1,1.8,2.2,2.7,3.2
		c0.5,0.7,1.1,1.3,1.6,1.9c0,0,0.1,0.1,0.1,0.2l-5.3,14.5c0,0.1,0,0.1-0.1,0.2l-1.2,5.1c-1.5,6.5-3,13-4.4,19.5
		c0,0.1-0.1,0.3-0.2,0.5h-7.2c-2.9,0-6.4,0-9.9,0.1L1195.5,778.3z"/>
	<path class="st0" d="M845,763.7c-7.8,0-14.7-0.5-21-1.4h-0.1c-0.7-0.1-1.4-0.2-1.9-0.4V649.4h0.6c16.2,0,33.9-0.5,55.7-1.5
		c7.3-0.3,14.7-0.7,22-1c9.9-0.5,20.2-0.9,30.2-1.4c4.1-0.2,8.2-0.4,12.3-0.6c11.4-0.5,23.2-1.1,34.8-1.8s23.5-1.3,35-1.9
		c5-0.2,10-0.5,15-0.8c0.8,0.3,1.6,0.5,2.4,0.8c2.1,0.7,4.3,1.4,6.4,2c0.1,0,0.2,0.1,0.3,0.1c-0.1,0-0.1,0.1-0.2,0.2
		c-3.6,2.7-4.5,6.1-2.6,10.5c1.4,3.4,2.5,7.3,3.3,11.5c0.6,3,2.2,4.6,5,4.6c0.4,0,0.8,0,1.2-0.1c0.4-0.1,0.8-0.1,1.1-0.1
		c1.1,0,1.7,0,1.9,3.2c0.3,3.8,0.6,7.5,0.9,11.3c1.1,12.8,2.2,25.9,3,38.9c0.2,3.7,0.6,7.5,1,11.1c0.6,5.8,1.3,11.8,1.2,17.8
		c-4.1,0.3-8.3,0.7-12.4,1c-10.1,0.8-20.5,1.6-30.7,2.3l-8.2,0.5c-28.3,1.8-57.5,3.8-86.3,5.3c-21.2,1.1-42.3,1.7-63.8,2.3
		C849,763.6,847,763.7,845,763.7z"/>
	<path class="st0" d="M822,646.2c0-3.1,0-6.3,0-9.4c-0.1-9.5-0.1-19.3,0-28.9c0-2.3-0.2-4-1.4-5.3c-1.3-1.3-3.3-1.5-4.9-1.5h-0.3
		c-5.8,0.1-12.2,0.1-19.6,0.1c-6.3,0-12.6,0-18.9-0.1c-4.2,0-8.3,0-12.5,0c0.1-4.4,0.1-8.8,0.2-13.1c0.1-11.4,0.2-23.2,0.8-34.8
		c0.2-4.4,0.3-8.8,0.3-13.1c0-5,0.1-10.2,0.4-15.3h0.1c1.2,0,2.4,0.1,3.6,0.1c0,0,50,0,62.2,0c22.9,0,53.1,0,83.5-0.1
		c3.7,0,6.1,1,8.1,3.4c1.2,1.4,2.5,2.6,3.7,3.8c1,0.9,1.9,1.8,2.8,2.8c0.8,0.9,2.1,2.1,3.8,2.1c1.2,0,2.2-0.6,3.2-1.7
		c2.9-3.2,6.1-4.7,10.1-4.7c2.3,0,5,0.5,8.1,1.6c4.4,1.6,9,2.7,13.5,3.7c1.5,0.4,3.1,0.7,4.7,1.1c-0.1,2.6,0,4.1,1,5.2
		s2.6,1.2,4.1,1.2c0.6,0,1.4,0,2.2,0c0.2,0,0.3,0,0.5,0c2,0,2.9,0.4,3.8,2.8c2.9,7.8,6,15.5,9.1,23.1c1.1,2.8,2.3,5.6,3.4,8.4
		c0.1,0.2,0.1,0.3,0.2,0.5c0.2,0.7,0.5,1.4,1,2.1c6.8,8.8,7.2,19.2,6.7,29.2c0,0.4-0.1,0.8-0.1,1.2c-0.2,1.9-0.5,4.2,1.3,6.3
		c1.3,2.7,3.2,4.7,5.1,6.6c0.8,0.8,1.5,1.5,2.1,2.3c2.9,3.4,6,6.7,8.9,9.9c0.5,0.5,1,1.1,1.5,1.6c-4,0.2-7.9,0.4-11.8,0.6
		c-11.5,0.6-23.3,1.2-35,1.9c-11.6,0.7-23.3,1.3-34.7,1.8c-4.1,0.2-8.2,0.4-12.3,0.6c-10.1,0.5-20.3,1-30.2,1.4
		c-7.3,0.3-14.7,0.7-22,1c-21.8,1-39.4,1.5-55.6,1.5L822,646.2z"/>
</g>
<g id="pins">
	<g id="christian-academy">
		<circle class="st1" cx="1611.6" cy="529.6" r="35.1"/>
	</g>
	<g id="messiah">
		<circle class="st1" cx="1503.7" cy="524.8" r="35.1"/>
	</g>
	<g id="valley-forge">
		<circle class="st1" cx="1552.7" cy="553.8" r="35.1"/>
	</g>
	<g id="liberty">
		<circle class="st1" cx="1528.2" cy="668.9" r="35.1"/>
	</g>
	<g id="dcc">
		<circle class="st1" cx="1587.8" cy="490.3" r="35.1"/>
	</g>
	<g id="eastern">
		<circle class="st1" cx="1547.1" cy="512.3" r="35.1"/>
	</g>
	<g id="scranton">
		<circle class="st1" cx="1538.8" cy="477.2" r="35.1"/>
	</g>
	<g id="calvin">
		<circle class="st1" cx="1300" cy="477.1" r="35.1"/>
	</g>
	<g id="gordon">
		<circle class="st1" cx="1708.4" cy="405" r="35.1"/>
	</g>
	<g id="iit">
		<circle class="st1" cx="1222.7" cy="549" r="35.1"/>
	</g>
	<g id="second-baptist">
		<circle class="st1" cx="1024.3" cy="1032.8" r="35.1"/>
	</g>
</g>
<g id="labels">
	<g id="dcc-label" class="map-hidden">
		<rect x="1078.6" y="128.4" class="st4" width="551.7" height="319.1"/>
		<text transform="matrix(1 0 0 1 1129.5645 206.9414)" class="st5 st6 st7">NEW TOWN SQUARE, PA</text>
		<text transform="matrix(1 0 0 1 1129.5645 308.0547)" class="st5 st6 st8">Delaware County</text>
		<text transform="matrix(1 0 0 1 1129.5645 372.4062)" class="st5 st6 st8">Christian School</text>
	</g>
	<g id="eastern-label" class="map-hidden">
		<rect x="1109.4" y="595.7" class="st4" width="551.7" height="319.1"/>
		<text transform="matrix(1 0 0 1 1160.3837 674.2854)" class="st5 st6 st7">ST DAVIDS, PA</text>
		<text transform="matrix(1 0 0 1 1160.3837 775.3987)" class="st5 st6 st8">Eastern</text>
		<text transform="matrix(1 0 0 1 1160.3837 839.7502)" class="st5 st6 st8">University</text>
	</g>
	<g id="gordon-label" class="map-hidden">
		<rect x="1095" y="106" class="st4" width="551.7" height="319.1"/>
		<text transform="matrix(1 0 0 1 1145.9193 189)" class="st5 st6 st7">WENHAM, MA</text>
		<text transform="matrix(1 0 0 1 1145.9193 291)" class="st5 st6 st8">Gordon</text>
		<text transform="matrix(1 0 0 1 1145.9193 355)" class="st5 st6 st8">College</text>
	</g>
	<g id="iit-label" class="map-hidden">
		<rect x="727.6" y="669" class="st4" width="551.7" height="319.1"/>
		<text transform="matrix(1 0 0 1 778.5645 747.5356)" class="st5 st6 st7">CHICAGO, IL</text>
		<text transform="matrix(1 0 0 1 778.5645 848.6489)" class="st5 st6 st8">Illinois Institute</text>
		<text transform="matrix(1 0 0 1 778.5645 913.0004)" class="st5 st6 st8">of Technology</text>
	</g>
	<g id="second-baptist-label" class="map-hidden">
		<rect x="369.9" y="766.3" class="st4" width="551.7" height="319.1"/>
		<text transform="matrix(1 0 0 1 420.8348 844.8455)" class="st5 st6 st7">HOUSTON, TX</text>
		<text transform="matrix(1 0 0 1 420.8348 945.9588)" class="st5 st6 st8">Second </text>
		<text transform="matrix(1 0 0 1 420.8348 1010.3104)" class="st5 st6 st8">Baptist School</text>
	</g>
	<g id="calvin-label" class="map-hidden">
		<rect x="686" y="147.2" class="st4" width="551.7" height="319.1"/>
		<text transform="matrix(1 0 0 1 736.9645 225.7854)" class="st5 st6 st7">GRAND RAPIDS, MI</text>
		<text transform="matrix(1 0 0 1 736.9645 326.8987)" class="st5 st6 st8">Calvin</text>
		<text transform="matrix(1 0 0 1 736.9645 391.2502)" class="st5 st6 st8">University</text>
	</g>
	<g id="christian-academy-label" class="map-hidden">
		<rect x="1049.4" y="576.2" class="st4" width="551.7" height="319.1"/>
		<text transform="matrix(1 0 0 1 1100.3977 654.7914)" class="st5 st6 st7">BROOKHAVEN, PA</text>
		<text transform="matrix(1 0 0 1 1100.3977 755.9047)" class="st5 st6 st8">The Christan</text>
		<text transform="matrix(1 0 0 1 1100.3977 820.2562)" class="st5 st6 st8">Academy</text>
	</g>
	<g id="liberty-label" class="map-hidden">
		<rect x="900.1" y="698.4" class="st4" width="551.7" height="319.1"/>
		<text transform="matrix(1 0 0 1 951.0592 776.9913)" class="st5 st6 st7">LYNCHBURG, VA</text>
		<text transform="matrix(1 0 0 1 951.0592 878.1047)" class="st5 st6 st8">Liberty</text>
		<text transform="matrix(1 0 0 1 951.0592 942.4562)" class="st5 st6 st8">University</text>
	</g>
	<g id="messiah-label" class="map-hidden">
		<rect x="925.7" y="474.9" class="st4" width="551.7" height="319.1"/>
		<text transform="matrix(1 0 0 1 976.6146 553.3915)" class="st5 st6 st7">MECHANICSBURG, PA</text>
		<text transform="matrix(1 0 0 1 976.6146 654.5048)" class="st5 st6 st8">Messiah</text>
		<text transform="matrix(1 0 0 1 976.6146 718.8563)" class="st5 st6 st8">University</text>
	</g>
	<g id="scranton-label" class="map-hidden">
		<rect x="960.8" y="207.2" class="st4" width="551.7" height="319.1"/>
		<text transform="matrix(1 0 0 1 1011.6646 285.7415)" class="st5 st6 st7">SCRANTON, PA</text>
		<text transform="matrix(1 0 0 1 1011.6646 386.8548)" class="st5 st6 st8">University of</text>
		<text transform="matrix(1 0 0 1 1011.6646 451.2063)" class="st5 st6 st8">Scranton</text>
	</g>
	<g id="valley-forge-label" class="map-hidden">
		<rect x="1094.5" y="634.5" class="st4" width="551.7" height="319.1"/>
		<text transform="matrix(1 0 0 1 1145.3662 712.9415)" class="st5 st6 st7">PHOENIXVILLE, PA</text>
		<text transform="matrix(1 0 0 1 1145.3662 814.0548)" class="st5 st6 st8">University of</text>
		<text transform="matrix(1 0 0 1 1145.3662 878.4063)" class="st5 st6 st8">Valley Forge</text>
	</g>
</g>
</svg>
