<?xml version="1.0" encoding="utf-8"?>
<!-- Generator: Adobe Illustrator 25.4.1, SVG Export Plug-In . SVG Version: 6.00 Build 0)  -->
<svg version="1.1" id="Layer_1" xmlns="http://www.w3.org/2000/svg" xmlns:xlink="http://www.w3.org/1999/xlink" x="0px" y="0px"
	 viewBox="0 0 1884.43 1314.17" style="enable-background:new 0 0 1884.43 1314.17;" xml:space="preserve">
<style type="text/css">
	.st0{fill:#B2B2B2;}
</style>
<g>
<!-- CA -->
	<path class="st0" d="M398.19,905.46c-4.3-1.09-8.68-1.41-12.93-1.71c-1.92-0.14-3.9-0.28-5.82-0.49
		c-17.19-1.89-34.68-3.57-51.6-5.19l-6.06-0.58c-1.38-0.13-2.09-0.68-2.93-2.27c-2.66-4.99-5.34-9.96-8.03-14.93
		c-4.77-8.83-9.7-17.96-14.37-27.02c-2.79-5.41-6.43-10.21-9.96-14.85c-1.49-1.96-3.03-3.99-4.47-6.02
		c-1.31-1.85-2.88-2.24-3.96-2.24c-0.18,0-0.37,0.01-0.55,0.03c-0.83,0.09-1.66,0.14-2.45,0.14c-8.98,0-14.62-5.93-21.05-13.69
		c-0.14-0.17-0.28-0.33-0.42-0.49c-0.27-0.31-0.53-0.61-0.71-0.89c-5.45-8.63-14.4-10.36-22.35-11.31
		c-1.05-0.13-2.09-0.33-3.19-0.54c-0.48-0.09-0.95-0.19-1.43-0.27c-3.3-0.6-5.54-1.83-6.66-3.65c-1.07-1.75-1.16-4.16-0.27-7.15
		c1.88-6.27,1.48-12.06-1.31-18.78c-4.42-10.64-8.68-21.56-12.8-32.13c-1.9-4.89-3.81-9.78-5.74-14.66
		c-1.32-3.33-1.96-6.8-2.63-10.46c-0.39-2.11-0.79-4.29-1.33-6.42c-0.06-0.25,0.05-0.48,0.46-1.15c0.13-0.21,0.26-0.41,0.37-0.63
		c1.93-3.52,4.11-7.73,5.57-12.27c1.38-4.26,0.47-7.62-2.76-10.28c-3.04-2.5-5.96-5.18-9.18-8.17c-1.66-1.54-2.32-3.03-2.04-4.58
		c2.02-11.02-2.08-20.56-6.05-29.79c-3.58-8.33-7.62-16.6-11.53-24.6c-1.07-2.18-2.13-4.36-3.19-6.54c-1.6-3.3-2.33-6.24-2.3-9.26
		c0.02-2.41,0.02-4.82,0.01-7.23c-0.02-7.91-0.03-16.1,1.02-24.12c0.87-6.63-1.02-13.47-2.7-19.51c-0.32-1.16-0.63-2.32-0.95-3.48
		c-1.68-6.22-3.42-12.66-6.19-18.72V528l3.46-5.11c5.44-8.04,10.89-16.08,16.34-24.12c0.98-1.45,1.05-2.97,1.02-3.98
		c-0.11-3.22-0.05-6.53,0.01-9.72c0.09-5.3,0.19-10.75-0.46-16.19l5.82,1.74c5.91,1.76,11.82,3.53,17.72,5.3
		c6.04,1.81,12.08,3.62,18.12,5.43c15.44,4.62,31.41,9.39,47.06,14.23c3.5,1.08,7.07,2.12,10.52,3.12
		c6.98,2.02,14.18,4.11,21.1,6.68l-2.55,10.47c-2.18,8.95-4.35,17.9-6.54,26.85l-1.88,7.72c-5.48,22.46-10.95,44.91-16.46,67.36
		c-0.75,3.04-0.32,5.51,1.35,7.75c11.03,14.87,22.06,29.74,33.08,44.61c9.64,13.01,19.29,26.03,28.94,39.04
		c20.52,27.66,41.07,55.31,61.62,82.95c3.79,5.1,7.68,10.27,11.44,15.26c1.74,2.31,3.48,4.63,5.22,6.94l2.13,3.6
		c1.71,2.9,3.43,5.79,5.15,8.68l0.14,0.24c0.75,1.25,1.4,2.34,1.21,3.51c-0.87,5.36,0.92,9.72,5.33,12.94
		c0.83,0.61,0.99,1,0.98,1.07c0,0-0.07,0.43-1.24,1.16c-7.62,4.76-13.27,11.31-17.35,16.49c-1.53,1.94-2.81,4.34-0.74,7.48
		c0.55,0.84,0.8,1.51,0.69,1.89c-0.07,0.25-0.42,0.78-1.96,1.5c-7.05,3.28-7.49,4.05-6.74,11.65l0.02,0.18
		c0.02,0.18,0.04,0.37,0.03,0.44c-0.37,2.82-1.47,11.34,8.07,13.46c-2.12,1.7-4.2,3.48-6.22,5.2
		C399.49,904.36,398.84,904.91,398.19,905.46z"/>
		<!-- ME -->
	<path class="st0" d="M1708.98,366.84c-1.88-4.29-3.77-8.58-5.66-12.86c-2.92-6.63-5.84-13.25-8.74-19.89
		c-5.02-11.52-10.02-23.06-15.01-34.59l-6.28-14.49c-0.6-6.22,1.23-11.94,3.18-17.99c0.63-1.97,1.28-4,1.83-6.03
		c1.67-6.13,1.83-12.23,0.48-18.11c-3.23-14.08-0.66-27.74,1.94-38.08c1.36-5.42,2.61-11.22,3.7-17.24
		c0.16-0.89,0.36-1.23,0.44-1.34c0.06,0.01,0.18,0.04,0.37,0.12c1.93,0.88,3.71,1.31,5.43,1.31c5.05,0,8.26-3.81,11.09-7.16
		c0.38-0.45,0.76-0.91,1.15-1.35h0.46c2.95,1.62,6.13,2.46,9.21,3.28c1.4,0.37,2.85,0.75,4.22,1.2c2.7,0.88,4.16,2.11,5.37,4.55
		c3.74,7.53,7.62,15.14,11.36,22.5c3.38,6.63,6.87,13.49,10.25,20.26c0.63,1.27,1.95,3.91,4.85,3.91c0.65,0,1.32-0.13,2.06-0.39
		c0,0,0.14,0,0.17-0.01c1.06-0.07,2.27-0.15,3.27-0.15c3.09,0,3.65,0,3.97,6.26c0.2,3.95,1.94,5.95,5.16,5.95
		c0.47,0,0.97-0.04,1.53-0.13c0.41-0.06,0.79-0.09,1.15-0.09c2.42,0,3.46,1.39,5.4,4.82c4.34,7.67,3.42,13.65-3.18,20.66
		c-4.91,5.21-9.22,11.07-13.4,16.74c-1.75,2.38-3.57,4.85-5.39,7.22c-1.47,1.91-1.96,2-2.04,2c-0.12,0-0.62-0.14-2.14-1.94
		c-0.92-1.09-1.6-2.35-2.38-3.8c-0.65-1.21-1.33-2.46-2.23-3.79c-0.3-0.44-0.8-0.7-1.32-0.7c-0.09,0-0.18,0.01-0.28,0.02
		c-0.62,0.11-1.12,0.57-1.28,1.18c-0.57,2.21-1.13,4.38-1.7,6.52c-1.41,5.37-2.74,10.44-3.92,15.63c-0.56,2.44-1.53,4.16-3.15,5.58
		c-0.41,0.36-0.75,0.73-1.08,1.09c-0.37,0.41-0.72,0.79-1.08,1.05c-8.74,6.31-13.5,15.45-14.99,28.76
		c-0.62,5.52-1.49,11.11-2.33,16.53C1709.29,364.83,1709.13,365.83,1708.98,366.84z"/>
	<path class="st0" d="M983.39,1193.25c-5.6,0-11.41-1.76-17.03-3.46c-11.65-3.53-22.92-8.47-33.83-13.25
		c-1.78-0.78-3.57-1.56-5.35-2.34c-0.94-0.41-1.47-0.95-1.83-1.86c-2.02-5.12-4.63-9.82-7.77-13.96
		c-3.89-5.13-5.78-10.78-5.62-16.79c0.26-9.82-4.37-17.36-8.93-23.44c-13.19-17.58-25.56-35.12-35.92-49.96
		c-3.07-4.4-7.1-8.11-12.67-11.68c-3.35-2.15-5.27-4.34-6.22-7.12c-0.88-2.58-2.65-3.84-5.6-3.99c-4.83-0.24-9.75-0.65-14.5-1.04
		c-1.4-0.12-2.79-0.23-4.19-0.34c-0.66-0.05-1.31-0.09-1.97-0.14c-3.48-0.22-6.76-0.43-9.6-2.29c-0.63-0.41-1.48-0.89-2.46-0.89
		c-0.56,0-1.11,0.16-1.57,0.48c-1.2,0.81-2.5,1.49-3.88,2.2c-3.12,1.61-6.34,3.28-8.48,6.68c-1.23,1.95-2.46,3.9-3.69,5.85
		c-4.32,6.84-8.8,13.91-13.08,20.95c-0.74,1.21-1.07,1.39-1.21,1.39c-0.13,0-0.53-0.06-1.44-0.64
		c-13.99-8.83-28.16-17.54-41.47-25.71c-1.59-0.98-2.15-1.74-2.23-3.04c-0.05-0.92-0.23-1.8-0.4-2.64
		c-0.15-0.74-0.29-1.44-0.33-2.11c-0.49-7.05-3.62-13.01-6.65-18.77c-0.43-0.82-0.87-1.65-1.3-2.48
		c-7.51-14.58-19.39-24.11-28.9-30.78c-2.55-1.79-3.57-3.3-3.64-5.4c-0.11-3.43-2.16-5.3-4.16-6.68
		c-4.82-3.34-9.67-6.82-14.35-10.18c-1.62-1.16-3.23-2.32-4.85-3.48c0-0.25-0.01-0.49,0-0.74c0.01-0.96,0.01-1.78,0-2.48
		c-0.01-0.84-0.01-1.69,0.04-2.13c0.17-0.02,0.47-0.04,0.96-0.04c0.35,0,0.76,0.01,1.21,0.02c0.63,0.01,1.35,0.03,2.2,0.03l4.98,0
		c15.19-0.01,30.39-0.03,45.58-0.03c22.98,0,41.89,0.03,59.52,0.11c0,0,0.08,0,0.08,0c1.7,0,3.61-0.17,4.88-1.45
		c1.28-1.28,1.45-3.19,1.45-5.06c-0.1-46.62-0.09-94.03-0.08-139.87l0-26.16c0-1.15,0.04-2.33,0.08-3.48c0-0.04,0-0.08,0-0.12
		c6.77,0,13.53-0.01,20.3-0.01c23.27-0.01,47.33-0.01,71-0.13c1.42,0,2.28,0.18,2.64,0.55c0.38,0.39,0.56,1.31,0.54,2.92
		c-0.14,15.97-0.12,32.2-0.1,47.9c0.01,5.38,0.01,10.77,0.01,16.15l0,0.26c0,1.71-0.01,3.83,2.18,5.6
		c4.67,3.78,10.24,7.81,17.27,7.81c1.27,0,2.57-0.13,3.88-0.39c0.06-0.01,0.14-0.02,0.24-0.02c0.14,0,0.29,0.01,0.43,0.02
		c0.21,0.01,0.41,0.02,0.62,0.02c0.2,0,0.39-0.01,0.58-0.03c0.24-0.03,0.47-0.05,0.68-0.05c0.6,0,0.75,0.13,0.75,0.13
		c0,0,0.17,0.24,0.04,1.12c-0.44,3.04,1.63,4.26,3.14,5.15c4.94,2.91,10.51,4.27,17.51,4.27c1.79,0,3.72-0.09,5.91-0.27
		c0.78-0.06,1.54-0.1,2.25-0.1c5.13,0,8.67,1.64,11.46,5.3c1.87,2.46,4.37,3.71,7.44,3.71c0.85,0,1.76-0.1,2.7-0.29
		c1.53-0.32,3.18-0.47,5.07-0.47c1.98,0,3.95,0.16,6.03,0.33l0.78,0.06c0.51,0.04,1.02,0.09,1.53,0.15
		c1.15,0.12,2.34,0.24,3.55,0.24c1.82,0,4.54-0.24,7.16-2.35c0.53-0.43,1.08-0.91,1.65-1.4c1.69-1.48,3.61-3.17,5.06-3.17
		c0.11,0,0.22,0.01,0.32,0.03c1.37,0.27,2.45,2.57,3.4,4.61c0.38,0.82,0.78,1.66,1.21,2.41c1.26,2.22,2.79,3.3,4.68,3.3
		c1,0,2.07-0.29,3.46-0.95c12.8-6.06,25.16-9.02,37.79-9.07h0.08c2.23,0,3.99,0.37,5.72,1.21c1.99,0.97,4,2.02,5.94,3.03
		c4.12,2.15,8.38,4.37,12.87,6.06c0.18,0.07,0.37,0.1,0.56,0.1c1.41,0.01,2.81,0.02,4.22,0.04c1.69,0.02,3.38,0.04,5.08,0.04
		c1.91,0,3.57-0.03,5.1-0.08c0.12,0,0.24-0.01,0.35-0.01c1.06,0,1.34,0.2,1.4,0.26c0.07,0.07,0.3,0.41,0.27,1.67
		c-0.12,4.55-0.08,9.17-0.04,13.64c0.02,1.84,0.03,3.68,0.04,5.52c-0.02,2.34-0.01,4.7,0,7.06c0.03,5.25,0.06,10.68-0.32,15.96
		c-0.64,8.86,1.67,15.14,7.73,20.99c9.43,9.1,13.38,19.66,11.74,31.39c-0.42,2.99-0.55,6.02-0.68,8.96l-0.01,0.32
		c-0.46,10.48-0.9,20.97-1.34,31.45l-0.44,10.44c-6.8,2.1-11.97,4.14-16.66,6.54c-5.97,3.06-10.82,6.86-14.85,11.63
		c-6.61,7.83-15.21,13.76-23.53,19.5c-1.13,0.78-2.27,1.57-3.4,2.35c-5.4,3.76-11.53,7.49-19.29,11.71
		c-18.13,9.89-31.23,25.83-38.93,47.38c-2.18,6.12-2.28,12.72-2.37,19.11c-0.03,2.08-0.06,4.24-0.16,6.31
		c-0.07,1.31,0.63,2.44,1.25,3.44c0.13,0.22,0.27,0.43,0.39,0.65l2.27,4.05c3.55,6.34,7.22,12.89,10.93,19.29
		c0.44,0.75,0.59,1.15,0.64,1.35c-0.15,0.06-0.43,0.16-0.92,0.24c-0.21,0.03-0.57,0.09-0.93,0.3
		C991.47,1192.25,987.65,1193.25,983.39,1193.25z"/>
	<path class="st0" d="M607.18,978.72c-0.88,0-1.88-0.1-2.84-0.19c-0.8-0.08-1.62-0.16-2.4-0.19c-4.21-0.16-8.49-0.39-12.64-0.62
		c-1.21-0.07-2.41-0.13-3.62-0.2c0.23-3.27,0.46-6.54,0.7-9.81c0.59-8.26,1.21-16.81,1.73-25.22c0.79-12.63,1.56-25.48,2.31-37.9
		c0.63-10.48,1.26-20.97,1.9-31.45c1.56-25.21,3.3-52.93,5.48-87.24c0.46-7.25,0.97-14.63,1.46-21.76c0.21-3.05,0.42-6.09,0.63-9.14
		c0.73,0.02,1.5,0.18,2.31,0.35c0.99,0.21,2.01,0.43,3.12,0.43c0.1,0,0.2,0,0.31-0.01c1.79-0.07,3.62-0.1,5.58-0.1
		c5.82,0,11.75,0.3,17.49,0.59c2.87,0.14,5.84,0.29,8.77,0.4c39.36,1.49,78.33,3.13,114.59,4.68c3.56,0.15,7.18,0.25,10.68,0.35
		c7.65,0.21,15.54,0.43,23.28,1.21l0.03,20.42c-0.01,0.5-0.03,1.05-0.05,1.6c-0.04,1.17-0.09,2.38-0.09,3.59l0,26.16
		c-0.01,45.84-0.02,93.25,0.08,139.88c0,1.53-0.16,2.44-0.51,2.79c-0.34,0.34-1.22,0.51-2.62,0.51c-17.71-0.07-36.62-0.11-59.6-0.11
		c-15.2,0-30.4,0.01-45.6,0.03l-4.9,0c-0.89,0-1.6-0.01-2.21-0.02c-0.48-0.01-0.9-0.02-1.27-0.02c-1.26,0-2.46,0.07-3.3,0.92
		c-0.94,0.95-0.93,2.2-0.91,4.48c0.01,0.67,0.01,1.47,0,2.4c0,0.01,0,0.02,0,0.03l-9.61,0.02c-11.77,0.02-23.94,0.05-35.92,0.12
		c-1.4,0.01-2.78,0.2-4.1,0.38c-0.81,0.11-1.58,0.22-2.35,0.28c-1.97,0.17-3.14,1.37-3.2,3.28c-0.01,0.16-0.01,0.32,0,0.48
		c0,0.21,0,0.41-0.02,0.55c-0.17,1.24-0.02,2.51,0.13,3.74c0.24,2.02,0.34,3.29-0.43,3.82C609.08,978.56,608.3,978.72,607.18,978.72
		z"/>
	<path class="st0" d="M567.69,976.54c-17.12-0.93-34.83-1.9-52.25-2.77c-2.65-0.13-5-0.8-7.62-2.17
		c-29.28-15.35-59.07-30.9-87.89-45.93l-19.99-10.43c-1.26-0.66-2.55-1.33-2.87-1.68c0.09-0.48,0.85-1.77,1.6-3.02
		c0.37-0.62,0.67-1.22,0.96-1.81c0.08-0.16,0.16-0.32,0.24-0.49c0.79-0.67,1.57-1.34,2.35-2c2.02-1.73,4.11-3.51,6.21-5.19
		c1.69-1.35,1.81-2.59,1.62-3.39c-0.15-0.62-0.7-1.73-2.69-2.13c-5.04-1-6.69-3.8-5.89-9.99c0.06-0.43,0.02-0.81-0.01-1.12
		l-0.02-0.22c-0.3-3-0.46-4.66,0.02-5.49c0.49-0.86,2.09-1.63,4.89-2.94c1.33-0.62,3.16-1.66,3.69-3.53
		c0.38-1.35,0.02-2.83-1.1-4.53c-0.79-1.2-0.82-1.95,0.58-3.73c3.92-4.97,9.34-11.26,16.53-15.76c1.77-1.1,2.69-2.37,2.74-3.76
		c0.05-1.35-0.72-2.62-2.29-3.77c-3.45-2.53-4.74-5.65-4.06-9.85c0.38-2.33-0.73-4.18-1.62-5.67l-0.14-0.24
		c-1.72-2.89-3.43-5.79-5.15-8.68l-1.81-3.06c3.08-10.45,5.44-21.21,7.73-31.63l0.82-3.74c0.73-3.32,1.68-3.86,3.68-3.86
		c0.34,0,0.73,0.02,1.14,0.07c0.34,0.04,0.71,0.1,1.08,0.16c0.73,0.13,1.56,0.27,2.4,0.27c1.88,0,3.33-0.74,4.31-2.2l0.16-0.23
		c2.27-3.38,4.61-6.87,5.11-11.57c0.61-5.82,1.55-11.72,2.46-17.43c0.31-1.95,0.62-3.89,0.92-5.84c3.26,0.2,6.55,0.64,9.74,1.07
		c2.26,0.3,4.59,0.62,6.91,0.85c9.14,0.9,18.42,2.07,27.4,3.2c5.74,0.72,11.67,1.47,17.52,2.14c6.46,0.74,13.03,1.42,19.39,2.07
		c6.46,0.66,13.15,1.35,19.71,2.11c12.61,1.45,25.43,3.02,37.82,4.53c4.89,0.6,9.78,1.19,14.68,1.78c-0.19,2.84-0.39,5.69-0.59,8.53
		c-0.5,7.28-1.02,14.8-1.49,22.21c-2.18,34.32-3.92,62.05-5.48,87.25c-0.65,10.49-1.28,20.97-1.9,31.46
		c-0.74,12.42-1.51,25.26-2.31,37.89c-0.53,8.4-1.14,16.94-1.73,25.19c-0.24,3.29-0.47,6.58-0.7,9.86L567.69,976.54z"/>
	<path class="st0" d="M1404.47,961.67c-0.85,0-1.48-0.14-1.97-1.96c-0.6-2.22-1.42-4.38-2.21-6.47c-0.33-0.88-0.67-1.76-0.99-2.64
		c-1.01-3.44-2.82-6.42-4.58-9.3c-0.59-0.97-1.2-1.97-1.76-2.96c-1.63-2.88-2.33-5.54-2.27-8.61c0.11-5.35,0.09-10.79,0.08-16.05
		c-0.01-3.91-0.02-7.96,0.02-11.94c0.03-2.81-0.58-5.23-1.93-7.62c-1.31-2.32-2.7-4.64-4.05-6.88c-3.3-5.49-6.72-11.16-8.96-17.08
		c-6.43-16.99-12.5-34.46-18.37-51.35c-2.15-6.19-4.3-12.38-6.47-18.57c1.68-0.29,3.36-0.58,5.03-0.86
		c5.29-0.9,10.75-1.84,16.12-2.83c1.9-0.35,3.87-0.61,5.78-0.86c4.01-0.52,8.15-1.07,12.14-2.51c1.01-0.2,2.02-0.38,3.03-0.57
		c2.27-0.42,4.62-0.86,6.93-1.38c2.06-0.46,4.13-0.9,6.19-1.34c7.6-1.63,15.43-3.3,23-5.82c-0.85,2-2,3.89-3.19,5.85
		c-0.75,1.23-1.51,2.49-2.21,3.79c-1.55,2.9-0.98,4.74,1.94,6.36c1.59,0.88,3.22,1.72,4.8,2.53c4.94,2.54,9.6,4.95,13.58,8.62
		c8.24,7.59,17.96,15.05,30.6,23.46c3.86,2.57,7.74,5.27,11.48,7.88c3.02,2.1,6.13,4.27,9.23,6.37c1.58,1.07,2.62,2.34,3.39,4.11
		l1.05,2.43c2.81,6.49,5.71,13.2,7.53,20.07c2.09,7.88,7.08,13.28,12.25,17.9c0.01,0.19,0.03,0.47,0.01,0.56
		c-6.82,14.17-9.36,29.38-7.53,45.18l-2.8,0.01c-3.4,0.01-6.79,0.02-10.19,0.03c-3.13,0.01-4.69,0.01-5.68,1.23
		c-0.99,1.21-0.69,2.71-0.1,5.69l0.03,0.16c0.71,3.58,1.38,7.21,2.09,11.04c0.1,0.57,0.21,1.15,0.32,1.74
		c-0.37-0.25-0.74-0.49-1.11-0.73c-3.17-2.1-6.16-4.09-9.04-6.11c-1.81-1.27-3.59-1.88-5.45-1.88c-0.43,0-0.88,0.03-1.32,0.1
		c-12.1,1.84-24.2,3.67-36.3,5.5l-12.74,1.93c-8.2,1.24-16.39,2.47-24.59,3.74C1405,961.64,1404.71,961.67,1404.47,961.67z"/>
	<path class="st0" d="M1575.31,1175.03c-0.42,0-0.86-0.11-1.33-0.33l18.14-19.17c0.48-0.5,0.57-1.25,0.24-1.86
		c-0.28-0.52-0.83-0.84-1.41-0.84c-0.1,0-0.19,0.01-0.29,0.03c-2,0.36-3.96,0.7-5.89,1.03c-4.74,0.82-9.21,1.59-13.68,2.61
		c-0.43,0.1-0.81,0.15-1.11,0.15c-0.6,0-1.02-0.1-1.8-1.56c-1.31-2.42-2.7-4.84-4.04-7.18c-1.72-3-3.5-6.09-5.1-9.2
		c-1.62-3.14-3.93-4.73-6.89-4.73c-8.37,0-13.45-3.87-16.05-12.18c-1.65-5.28-4.56-9.03-8.63-11.14c-0.36-0.19-0.52-0.31-0.59-0.37
		c0.28-5.23-3.54-7.43-6.62-9.19l-0.3-0.17c-2.02-1.16-3.58-2.82-5.08-5.4c-3.36-5.76-6.82-11.59-10.17-17.22
		c-3.35-5.63-6.81-11.46-10.17-17.21c-1.83-3.14-2.35-6.69-2.9-10.46c-0.23-1.6-0.48-3.25-0.83-4.87
		c-1.39-6.41-2.64-12.97-3.85-19.32c-0.64-3.35-1.28-6.7-1.94-10.04l-0.02-0.12c-0.2-1.04-0.49-2.47-1.5-3.33
		c-1.42-1.2-2.78-2.57-4.1-3.88c-3.09-3.09-6.29-6.28-10.75-8.14c-12.62-5.24-25.36-10.82-36.31-15.64
		c-1.15-0.51-2.23-0.75-3.29-0.75c-1.17,0-2.32,0.29-3.63,0.9c-8.73,4.11-17.66,8.18-26.29,12.12l-3.46,1.58l-0.42,0.19
		c-0.59,0.28-1.15,0.54-1.56,0.54c-0.12,0-0.43,0-0.96-0.49c-11.25-10.34-25.07-14.28-37.09-16.77c-5.99-1.24-12.13-1.7-18.07-2.15
		c-1.45-0.11-2.9-0.22-4.35-0.34c-0.37-0.03-0.73-0.04-1.09-0.04c-2.39,0-4.6,0.62-6.73,1.23c-1.69,0.48-3.3,0.93-4.91,1.06
		c-1.07-2.71-2.54-5.17-3.98-7.56c-0.57-0.94-1.13-1.89-1.67-2.84l-0.14-0.25c-0.48-0.85-0.97-1.73-1.21-2.26
		c0.59-0.18,1.64-0.39,2.66-0.59l0.19-0.04c6.05-1.19,12.1-2.4,18.15-3.61c5.55-1.11,11.1-2.22,16.66-3.31
		c10.91-2.15,21.82-4.29,32.73-6.44l12.88-2.53c0.18,0.48,0.36,0.97,0.55,1.45c0.77,2.01,1.56,4.1,2.11,6.16
		c0.77,2.88,2.48,4.33,5.07,4.33c0.42,0,0.85-0.04,1.33-0.11c8.19-1.27,16.38-2.5,24.57-3.74l12.91-1.95
		c12.05-1.82,24.09-3.65,36.14-5.47c0.28-0.04,0.57-0.07,0.84-0.07c1.19,0,2.34,0.41,3.61,1.31c2.92,2.04,5.92,4.04,9.11,6.15
		c1.36,0.91,2.77,1.84,4.25,2.83c0.27,0.18,0.58,0.27,0.89,0.27c0.31,0,0.61-0.09,0.88-0.26c0.54-0.35,0.81-1,0.69-1.63
		c-0.35-1.89-0.69-3.7-1.01-5.46c-0.71-3.85-1.38-7.49-2.1-11.09l-0.03-0.16c-0.24-1.19-0.48-2.41-0.49-2.97
		c0.56-0.11,1.84-0.11,3.09-0.11c3.45-0.01,6.85-0.02,10.25-0.03l3.29-0.01c5.79,27.15,20.83,50.5,47.24,73.37
		c1.55,1.34,2.02,2.37,1.86,4.08c-0.6,6.68,0.99,13.06,4.86,19.53c5.61,9.37,11.26,19.8,17.27,31.87
		c2.39,4.81,3.83,10.16,5.23,15.34c0.77,2.88,1.57,5.85,2.53,8.73c0.39,1.17,0.72,2.41,1.04,3.61c0.58,2.15,1.17,4.37,2.15,6.46
		c4.23,9.08,3.54,18.29,2.81,28.05c-0.26,3.46-0.52,7.04-0.55,10.59c-0.05,8-2.92,13.96-9.32,19.34c-3.42,2.88-6.32,6.28-8.46,8.92
		C1577.85,1174.12,1576.53,1175.03,1575.31,1175.03z"/>
	<path class="st0" d="M1575.36,788.36c-8.8-7.56-17.9-15.37-26.79-23.11c-1.25-1.09-2.66-1.62-4.32-1.62
		c-0.81,0-1.58,0.12-2.23,0.24l-2.4,0.43c-3.86,0.7-7.86,1.42-11.77,2.32l-0.5,0.12c-4.59,1.06-8.93,2.05-13.19,2.05
		c-4.94,0-8.94-1.37-12.6-4.31c-0.29-0.24-0.9-0.64-1.67-0.67c-2.7-0.11-5.47-0.29-8.16-0.46c-4.34-0.28-8.84-0.57-13.23-0.57
		c-5.95,0-10.79,0.52-15.24,1.65c-9.47,2.39-18.35,7.44-26.94,12.31c-1.45,0.82-2.9,1.65-4.35,2.45c-0.05,0.03-0.09,0.05-0.13,0.08
		l-1.24,0.86c-0.05,0.04-0.1,0.08-0.15,0.12c-8.07,2.9-16.61,4.72-24.87,6.49c-2.07,0.44-4.15,0.89-6.22,1.35
		c-2.25,0.5-4.57,0.93-6.81,1.35c-0.3,0.06-0.6,0.11-0.89,0.17c0.59-2.85,1.42-5.69,2.22-8.45c0.47-1.61,0.95-3.27,1.39-4.92
		c0.17-0.66,0.5-1.11,1.21-1.65c3.75-2.86,7.51-5.83,11.16-8.7c13.74-10.82,27.96-22.01,43.94-30c2.23-1.12,3.58-2.8,4.37-5.47
		c1.41-4.76,2.89-9.59,4.33-14.26c0.48-1.55,0.96-3.1,1.43-4.65l38.17-8.94c37-8.67,75.26-17.63,112.87-26.5
		c2.62-0.62,5.29-1.2,7.88-1.77c6.49-1.42,13.2-2.88,19.68-5.02c2.21,1.69,4.04,3.78,5.97,5.98c1.56,1.78,3.17,3.62,5.02,5.24
		c6.34,5.57,9.69,12.19,10.25,20.24c0.25,3.61,1.02,7.44,2.41,12.06c1.06,3.53,0.49,6.04-2.05,8.98
		c-4.59,5.31-8.94,10.96-13.15,16.41c-1.18,1.54-2.37,3.07-3.56,4.6c-1.2,1.54-2.39,2.33-4.24,2.8
		c-18.18,4.63-29.67,16.37-34.17,34.89c-0.36,1.46-0.77,2.95-1.17,4.39c-0.62,2.23-1.26,4.55-1.72,6.88
		c-0.31,1.55-0.81,1.63-1.67,1.63c-0.16,0-0.33-0.01-0.51-0.02c-4.33-0.39-7.82-1.06-10.97-2.12c-1.13-0.38-2.09-0.57-2.95-0.57
		c-2.33,0-3.97,1.34-4.89,3.99c-0.01,0.03-0.04,0.06-0.08,0.11L1575.36,788.36z"/>
	<path class="st0" d="M1282.49,992.01c-0.17-3.39-1.2-6.53-2.21-9.59c-0.23-0.69-0.45-1.38-0.67-2.07
		c-6.44-20.67-8.94-39.9-7.65-58.77c0.44-6.51-0.15-13.06-0.73-19.39c-0.14-1.58-0.29-3.16-0.42-4.74
		c-0.41-5.04-0.95-10.15-1.48-15.1c-1.17-11.01-2.39-22.4-2.17-33.67c0.16-8.31,0.08-16.75,0-24.91c-0.03-3.24-0.06-6.48-0.08-9.72
		l0.38-0.06c1.26-0.19,2.52-0.38,3.77-0.59c5.34-0.91,10.68-1.84,16.02-2.77c12.43-2.16,25.28-4.4,37.95-6.34
		c2.73-0.42,5.48-0.97,8.13-1.51c4.71-0.95,9.56-1.93,14.41-2.16c2.25,6.41,4.48,12.82,6.71,19.23c5.87,16.91,11.95,34.4,18.4,51.44
		c2.34,6.19,5.84,11.99,9.21,17.6c1.34,2.22,2.72,4.52,4.01,6.8c1.07,1.9,1.54,3.76,1.52,6.01c-0.04,4-0.03,8.05-0.02,11.98
		c0.01,5.24,0.03,10.66-0.08,15.97c-0.07,3.63,0.78,6.89,2.68,10.25c0.58,1.03,1.21,2.06,1.81,3.05c1.41,2.31,2.75,4.52,3.68,6.91
		l-12.42,2.44c-10.92,2.14-21.83,4.28-32.74,6.44c-5.56,1.1-11.11,2.21-16.67,3.31c-6.04,1.21-12.09,2.41-18.13,3.6l-0.19,0.04
		c-3,0.59-4.51,0.89-5.16,2.29c-0.64,1.4,0.09,2.69,1.54,5.27l0.14,0.25c0.55,0.98,1.13,1.95,1.71,2.92
		c1.35,2.26,2.64,4.41,3.59,6.71c-2.28,0.94-4.7,1.49-7.24,2.06c-1.56,0.35-3.18,0.72-4.76,1.19c-0.26,0.08-0.5,0.12-0.7,0.12
		c-0.72,0-1.16-0.57-2.01-1.86c-0.39-0.59-0.79-1.21-1.31-1.76c-0.22-0.23-0.45-0.69-0.67-1.14c-0.57-1.13-1.43-2.84-3.41-2.84
		c-0.21,0-0.43,0.02-0.65,0.06c-2.06,0.41-2.37,2.67-2.58,4.17c-0.06,0.44-0.12,0.86-0.2,1.18c-0.95,3.72-1.54,5.87-2.58,6.69
		c-1.06,0.84-3.3,0.92-7.18,0.98c-0.27,0-0.55,0.01-0.82,0.01C1282.99,992.01,1282.74,992.01,1282.49,992.01z"/>
	<path class="st0" d="M1472.02,485.08c-0.04-0.19-0.07-0.63,0.07-1.53c0.33-2.14,0.21-4.3,0.1-6.38c-0.04-0.78-0.09-1.59-0.1-2.37
		c0.76-2.16,2.27-3.91,3.85-5.75c0.72-0.84,1.47-1.71,2.16-2.63c3.73-5.02,6.68-8.79,9.54-12.21c1.9-2.26,1.85-4.17-0.15-6.4
		c-3.24-3.62-5.78-6.72-7.97-9.77c-1.57-2.19-1.67-2.78-1.63-2.93c0.06-0.18,0.52-0.63,2.9-1.63c0.97-0.41,1.97-0.75,3.03-1.11
		c1.09-0.37,2.22-0.76,3.33-1.23c16.67-7.12,34.17-10.82,47.55-13.26c1.34-0.24,2.76-0.64,4.02-1.86c2.87-2.79,5.76-5.56,8.65-8.33
		c2.11-2.02,4.22-4.05,6.33-6.08c0.08-0.08,0.18-0.16,0.27-0.25c0.59-0.51,1.48-1.28,1.46-2.52c-0.01-0.8-0.4-1.52-1.16-2.15
		c-2.12-1.76-2.16-3.86-2.04-7.15c0.02-0.66,0.05-1.33,0.04-1.99l0-0.1c-0.05-7.66-0.57-8.34-7.93-10.32
		c-0.06-0.02-0.11-0.03-0.17-0.04l1.22-1.93c1.46-2.31,2.88-4.56,4.29-6.8l4.35-6.9c4.58-7.26,9.33-14.77,13.94-22.18
		c0.98-1.58,2.07-2.54,3.63-3.21c4.7-2.01,9.53-3.99,14.19-5.89c8.87-3.63,18.04-7.38,26.86-11.6c0.03,0,0.06,0,0.09,0
		c0.18,0.69,0.37,1.4,0.64,2.11l3.63,9.61c5.52,14.61,11.24,29.73,16.91,44.57c1,2.62,1.98,5.31,2.93,7.91
		c2.29,6.28,4.65,12.77,7.59,18.96c-0.07,5.18,0.56,10.34,1.16,15.33c0.28,2.3,0.57,4.68,0.78,7.01c0.08,0.88,0.13,1.76,0.18,2.66
		c0.17,3.19,0.35,6.49,1.87,9.62c-0.24,0.96-0.19,1.99,0.16,3.07c3.12,9.72,6.25,19.44,9.37,29.15c-1.82,1.54-3.85,2.8-5.97,4.12
		c-1,0.62-2.03,1.26-3.03,1.94c-10.15-1.29-19.23-2.14-27.73-2.57c-0.56-0.36-1.11-0.72-1.67-1.08c-5.61-3.64-11.4-7.4-15.91-12.47
		c-0.94-1.06-2.14-1.6-3.57-1.6c-0.86,0-1.7,0.19-2.44,0.36l-36.74,8.18c-14.76,3.29-29.52,6.57-44.27,9.86
		c-4.8,1.07-9.6,2.13-14.4,3.19c-9.33,2.06-18.98,4.19-28.46,6.34c-0.47,0.11-1.15,0.25-1.62,0.25
		C1472.11,485.09,1472.06,485.09,1472.02,485.08z"/>
	<path class="st0" d="M1210.96,1050.22c-0.34,0-0.96-0.1-2-0.59c-2.18-1.01-4.76-1.78-7.66-2.27c-6.09-1.03-8.91-3.42-9.71-8.26
		c-0.34-2.08-1.69-3.72-3.51-4.28c-5.93-1.83-11.75-3.59-17.92-5.45l-6.29-1.9c-0.15-0.05-0.31-0.07-0.46-0.07
		c-0.35,0-0.7,0.12-0.99,0.34c-0.41,0.32-0.64,0.82-0.61,1.34c0.23,4.69,2.61,6.98,5.26,8.47c-1.75,0.09-3.52,0.15-5.26,0.15
		c-3.92,0-7.12-0.35-10.06-1.11c-3.44-0.89-6.95-1.68-10.35-2.44c-2.72-0.61-5.54-1.25-8.29-1.92c-1.87-0.46-3.78-0.68-5.85-0.68
		c-3.77,0-7.44,0.75-11,1.48c-1.64,0.34-3.33,0.68-4.99,0.94c-2.21,0.35-4.41,0.85-6.54,1.33c-0.29,0.07-0.58,0.13-0.87,0.2
		l0.4-9.51c0.44-10.48,0.88-20.96,1.34-31.43l0.01-0.32c0.13-2.86,0.26-5.82,0.65-8.66c1.77-12.62-2.62-24.43-12.69-34.14
		c-5.37-5.18-7.33-10.53-6.76-18.45c0.39-5.4,0.36-10.89,0.33-16.2c-0.01-1.86-0.02-3.71-0.01-5.57l7.11-0.56
		c6.28-0.5,12.55-0.99,18.83-1.51c15.21-1.26,30.41-2.54,45.61-3.82l17.92-1.51c0.84,1.92,1.71,3.83,2.56,5.69
		c2.3,5.03,4.68,10.23,6.3,15.52c1.75,5.7,2.93,12.34-1.61,18.29c-2.4,3.15-4.67,6.46-6.86,9.65c-1.37,2-2.79,4.07-4.22,6.06
		c-1.63,2.28-2.33,4.48-2.22,6.92c0.14,2.82,0.14,5.83,0.01,9.47c-0.04,1.05,0.03,2.56,1.04,3.61c0.7,0.73,1.68,1.08,2.99,1.08
		c0.2,0,0.4-0.01,0.62-0.02c5.83-0.44,11.77-0.83,17.51-1.22c4.25-0.29,8.51-0.57,12.76-0.87c4.88-0.35,9.76-0.72,14.63-1.08
		c4.01-0.3,8.03-0.61,12.04-0.9l0.09-0.01c0.27-0.02,0.53-0.04,0.78-0.04c0.54,0,0.58,0,0.74,0.68c1.26,5.55,2.66,11.17,4.01,16.6
		c0.43,1.73,0.86,3.46,1.29,5.2c-0.23,0.06-0.5,0.09-0.86,0.09c-0.27,0-0.55-0.02-0.82-0.03c-0.33-0.02-0.66-0.03-0.98-0.03
		c-0.18,0-0.36,0.01-0.54,0.02c-0.61,0.04-1.26,0.06-2.04,0.06c-0.64,0-1.29-0.01-1.93-0.03c-0.67-0.01-1.33-0.03-2-0.03
		c-1.73,0-3.78,0.07-5.88,0.63c-0.08,0.02-0.21,0.03-0.37,0.03c-0.23,0-0.46-0.02-0.7-0.04c-0.32-0.02-0.63-0.05-0.93-0.05
		c-1.63,0-2.77,0.69-3.39,2.05c-1.27,2.78-2.31,5.63-3.08,8.47c-0.28,1.02,0.03,1.73,0.33,2.14c0.75,1.02,2.02,1.07,2.86,1.11
		l0.25,0.01c0.39,0.02,0.79,0.03,1.18,0.03c2.57,0,5.24-0.46,8.42-1.45c1.46-0.46,2.84-0.69,4.1-0.69c1.59,0,2.99,0.35,4.28,1.08
		c2.27,1.27,4.62,1.92,6.96,1.92c2.65,0,5.31-0.79,8.13-2.41c1.01-0.58,1.46-0.64,1.61-0.64c0.28,0.12,0.66,0.92,1.17,2.36
		c1.39,3.97-0.37,6.58-2.61,9.89l-0.51,0.75c-3.53,5.29-3.35,6.31,1.83,9.97l0.13,0.09c3.06,2.17,6.08,4.37,9.28,6.7
		c0.75,0.54,1.5,1.09,2.27,1.65c-1.49,0.65-3.02,1.1-4.51,1.54c-1,0.3-2.04,0.6-3.05,0.97c-0.14-0.12-0.37-0.36-0.51-0.52
		c-0.2-0.22-0.39-0.43-0.59-0.61c-2.42-2.23-4.83-4.48-7.24-6.73l-2.7-2.52c-1.33-1.23-3.14-1.91-5.12-1.91
		c-3.38,0-7.29,2.04-8.2,5.93c-0.55,2.37-0.85,4.34-0.92,6.2c-0.06,1.43-0.7,2-2.61,2.99c-0.77,0.4-1.15,0.44-1.27,0.44c0,0,0,0,0,0
		c-0.03,0-0.17-0.17-0.27-0.73c-0.92-4.94-4.76-5.11-7.3-5.23c-0.57-0.03-1.12-0.05-1.6-0.12c-0.31-0.04-0.61-0.06-0.9-0.06
		c-2.08,0-4.79,1.04-5.88,5.97C1211.99,1050.22,1211.3,1050.22,1210.96,1050.22z"/>
	<path class="st0" d="M1240.89,992.48c-1.34-5.42-2.73-11.02-3.99-16.54c-0.48-2.11-1.78-3.18-3.86-3.18
		c-0.32,0-0.66,0.02-1.01,0.05l-0.09,0.01c-4.02,0.29-8.03,0.59-12.05,0.9c-4.87,0.37-9.74,0.74-14.62,1.08
		c-4.25,0.3-8.5,0.59-12.75,0.87c-5.75,0.39-11.69,0.78-17.54,1.22c-0.14,0.01-0.26,0.02-0.38,0.02c-0.54,0-0.69-0.11-0.69-0.11
		c0,0-0.18-0.22-0.14-1.27c0.13-3.73,0.13-6.82-0.01-9.73c-0.08-1.73,0.4-3.2,1.62-4.9c1.45-2.02,2.88-4.1,4.26-6.12
		c2.17-3.16,4.42-6.44,6.77-9.52c5.45-7.15,3.99-15.07,2.12-21.17c-1.68-5.48-4.11-10.78-6.45-15.91c-0.95-2.09-1.94-4.25-2.86-6.38
		c0-2.97,0-5.93,0-8.9c0-8.24,0.01-16.76-0.08-25.15c-0.03-2.43,0.51-4.6,1.69-6.85c5.25-9.98,10.54-20.15,15.65-29.99l4.94-9.5
		c5.22-0.11,10.4-0.81,15.43-1.49c2.31-0.31,4.69-0.63,7.04-0.89c9.83-1.08,19.81-2.24,29.46-3.36c3.51-0.41,7.02-0.81,10.53-1.22
		c0.02,3.1,0.05,6.2,0.08,9.31c0.08,8.15,0.16,16.58,0,24.85c-0.22,11.47,1,22.96,2.19,34.07c0.52,4.92,1.07,10.01,1.47,15.02
		c0.13,1.59,0.27,3.18,0.42,4.77c0.57,6.21,1.15,12.63,0.72,18.88c-1.32,19.28,1.23,38.88,7.79,59.94c0.22,0.7,0.45,1.41,0.68,2.12
		c1,3.06,1.96,5.97,2.06,9.02c-1.27,0.33-2.57,0.38-3.72,0.38c-0.57,0-1.14-0.01-1.71-0.03c-0.59-0.01-1.18-0.03-1.78-0.03l-0.21,0
		c-8.52,0.05-17.53,1.48-27.54,4.36l-0.36,0.11c-0.64,0.19-1.26,0.37-1.82,0.42C1241.74,995.92,1241.32,994.2,1240.89,992.48z"/>
	<path class="st0" d="M340.85,1164.29c-7.97-7.63-11.62-14.55-12.12-22.81c-0.13-2.21-0.49-8.06-6.82-8.06
		c-0.4,0-0.83,0.03-1.27,0.07c0,0,0,0,0,0c-0.56,0-1.27-0.64-1.9-1.2l-0.29-0.26c-1.52-1.34-3.07-2.66-4.61-3.98
		c-2.76-2.36-5.62-4.8-8.28-7.32c-5.05-4.78-10.47-7.98-16.59-9.78c-2.89-0.85-5.82-1.78-8.65-2.68c-5.04-1.6-10.26-3.26-15.52-4.55
		c-0.99-0.24-1.88-0.36-2.74-0.36c-2.25,0-4.23,0.84-6.04,2.56c-3.1,2.95-6.38,5.83-9.55,8.62c-0.04,0.04-0.09,0.08-0.13,0.12
		c1.19-2.97,2.42-6.02,3.8-8.91c0.82-1.71,0.99-3.14,0.54-4.36c-0.64-1.72-2.3-2.44-3.62-3.01c-0.63-0.27-1.29-0.56-1.62-0.86
		c-0.92-0.86-1.8-1.27-2.7-1.27c-1.82,0-2.69,1.62-3.26,2.69c-0.15,0.29-0.3,0.56-0.42,0.74c-2.51,3.61-4.97,7.34-7.35,10.95
		l-0.47,0.71c-0.96,1.46-1.95,2.54-3.11,3.39c-2.67,1.97-4.13,3.05-4.17,4.78c-0.04,1.73,1.45,2.94,3.7,4.77
		c1.66,1.35,1.77,1.94,1.76,2.08c0,0.09-0.09,0.58-1.44,1.49c-0.68,0.46-1.41,1.04-1.71,1.91c-0.12,0.13-0.47,0.36-0.7,0.52
		c-0.82,0.55-1.94,1.3-2.04,2.7c-0.1,1.49,1.15,2.59,1.56,2.95c1.78,1.56,3.19,2.53,4.75,2.53c1.99,0,3.34-1.61,4.56-3.27
		c0.24-0.33,0.48-0.65,0.73-0.98c0.88,2.32,1.46,4.05,1.18,4.61c-0.32,0.66-2.66,1.36-5.63,2.25l-0.62,0.19
		c-2.99,0.9-5.83,1.33-8.66,1.33c-1.59,0-3.2-0.14-4.78-0.43c-0.47-0.08-0.89-0.12-1.31-0.12c-2.31,0-3.62,1.32-4.58,2.62
		c-3.31,4.42-6.94,9.02-11.69,12.39c-1.09,0.78-2.24,1.19-3.32,1.19c-1.44,0-2.59-0.72-3.23-2.04c-0.5-1.01-0.41-1.26-0.41-1.27
		c0,0,0.13-0.24,0.91-0.55c3.89-1.51,7.67-3.55,11.23-6.07c2.26-1.6,3.62-2.86,3.9-4.59c0.27-1.71-0.63-3.34-2.18-5.41
		c-0.35-0.47-0.71-0.94-1.07-1.41c-3-3.91-5.83-7.61-4.85-13.34c0.11-0.62-0.16-1.24-0.67-1.59c-0.27-0.19-0.59-0.28-0.91-0.28
		c-0.28,0-0.57,0.08-0.82,0.23l-6.33,3.78c-0.09-0.24-0.17-0.48-0.26-0.72c-0.63-1.73-1.23-3.37-1.48-4.99
		c-0.7-4.47-3.35-6.81-7.88-6.96c-2.74-0.09-3.98-1.16-4.75-4.09c-1.39-5.27-3.26-10.46-5.08-15.49l-0.35-0.96
		c-0.51-1.42-0.4-2.02,0.53-2.91c0.76-0.73,1.45-1.51,2.11-2.26c2-2.27,3.74-4.24,7.17-4.49c2.47-0.18,4.28-1.91,6.04-3.59
		c1.05-1,2.14-2.04,3.28-2.64c6.84-3.57,7.2-4.63,3.87-11.37l-0.18-0.36c-0.4-0.81-1.62-3.27-4.18-3.27c-0.85,0-1.73,0.27-2.7,0.83
		c-2,1.15-3.91,1.7-5.82,1.7c-2.75,0-5.54-1.14-8.79-3.58c-2.93-2.2-6.13-4.07-9.53-6.05c-0.24-0.14-0.49-0.29-0.74-0.43l29.5-2.51
		c0.64-0.05,1.18-0.48,1.38-1.08c0.2-0.6,0.03-1.27-0.44-1.7l-26.32-23.83c0.48-0.11,0.95-0.22,1.42-0.33
		c3.34-0.77,6.49-1.49,9.63-2.14c2.55-0.52,4.57-1.51,6.38-3.11l1.68-1.49c4.93-4.37,10.03-8.9,15.24-13.07
		c3.46-2.77,7.57-4.23,11.93-5.77c1.85-0.66,3.76-1.33,5.61-2.12c0.18,0.04,0.52,0.17,0.73,0.25c0.2,0.08,0.4,0.15,0.59,0.22
		c0.64,0.21,1.28,0.42,1.93,0.62c1.79,0.57,3.48,1.11,5.1,1.82c11.39,5.07,23.63,6.24,35.48,7.38l0.41,0.04
		c6.2,0.6,12.32,2.48,18.23,4.3c3.43,1.05,6.97,2.14,10.54,2.99c0.15,0.04,0.23,0.08,0.24,0.09c0.08,0.12,0.11,0.67,0.13,1
		l0.01,0.25c0.3,4.85,0.6,9.71,0.9,14.56c0.44,7.12,0.89,14.24,1.32,21.36l0.3,4.92c1,16.57,2.04,33.7,2.98,50.56
		c0.16,2.98,1.87,4.22,3.35,4.98c1.89,0.97,3.77,1.98,5.65,2.98c2.43,1.3,4.95,2.64,7.46,3.9c1.52,0.76,3.22,1.11,5.33,1.11
		c0.99,0,1.97-0.07,2.92-0.15c0.92-0.07,1.8-0.14,2.66-0.14c1.92,0.01,2.56,0.43,3.33,2.17c1.15,2.57,2.26,5.16,3.37,7.75
		c3.48,8.08,7.08,16.44,11.64,24.23c0.53,0.9,0.6,1.18,0.44,1.66c-0.87,2.53-1.65,5.06-2.47,7.73
		C341.01,1163.75,340.93,1164.02,340.85,1164.29z"/>
	<path class="st0" d="M1521.46,890.71c-4.66-4.21-9.09-9.11-10.91-16c-1.88-7.1-4.83-13.92-7.69-20.52l-1.05-2.42
		c-1.01-2.34-2.45-4.08-4.53-5.5c-3.08-2.09-6.19-4.25-9.2-6.35c-3.76-2.62-7.65-5.33-11.54-7.92
		c-12.49-8.31-22.09-15.67-30.2-23.14c-4.3-3.96-9.37-6.58-14.28-9.11c-1.56-0.8-3.17-1.63-4.71-2.49
		c-0.99-0.55-1.12-0.79-1.14-0.82c0,0-0.04-0.28,0.47-1.22c0.65-1.22,1.4-2.45,2.12-3.64c1.65-2.71,3.34-5.5,4.29-8.73
		c0.48-0.32,0.75-0.8,0.88-1.1c1.31-0.73,2.62-1.48,3.94-2.22c8.4-4.77,17.1-9.71,26.14-11.99c4.19-1.06,8.78-1.55,14.45-1.55
		c4.3,0,8.74,0.29,13.03,0.56c2.64,0.17,5.38,0.35,8.05,0.46c4.2,3.36,8.96,4.99,14.57,4.99c4.63,0,9.35-1.09,13.91-2.14l0.5-0.12
		c3.83-0.88,7.79-1.59,11.62-2.29l2.4-0.43c0.51-0.09,1.1-0.19,1.65-0.19c0.89,0,1.55,0.25,2.22,0.83c8.9,7.75,18,15.56,26.8,23.12
		l7.79,6.69c-1.58,4.41-4.15,8.47-6.64,12.4l-0.84,1.32c-2.67,4.25-3.84,8.91-3.3,13.15c1.09,8.43-3.77,13.38-8.66,17.11
		c-8.05,6.15-14.21,14.04-20.15,21.68c-0.77,0.98-1.53,1.97-2.31,2.95c-1.38,1.75-2.81,3.51-4.21,5.21
		C1530.06,877.28,1525,883.47,1521.46,890.71z"/>
	<path class="st0" d="M1403.56,721.72c0.19-1.15,0.88-2.18,2.18-3.41c10.25-9.62,20.59-19.49,30.59-29.03
		c3.06-2.92,6.12-5.85,9.19-8.77c3.84,1.17,7.59,2.82,11.22,4.43c1.67,0.74,3.4,1.5,5.12,2.21c1.15,0.48,2.21,0.71,3.23,0.71
		c1.2,0,2.41-0.32,3.69-0.98c7.19-3.7,14.67-7.41,22.86-11.33c2.75-1.31,4.21-3.1,4.91-5.99c1.23-5.08,2.61-10.22,3.93-15.19
		c1.03-3.87,2.1-7.87,3.1-11.83c0.49-1.95,1.38-3.1,3.15-4.11c3.62-2.06,7.24-4.25,10.75-6.36c3-1.81,6.11-3.69,9.2-5.47
		c2.18-1.26,4.33-2.6,6.42-3.91c3.64-2.27,7.38-4.61,11.28-6.51c1.14,2.2,2.82,3.9,4.45,5.55c0.39,0.4,0.79,0.79,1.17,1.2
		c5.07,5.35,11.7,7.95,18.1,10.47c1.55,0.61,3.16,1.24,4.69,1.9c12.88,5.49,26.85,6.02,39,6.03c0.38,1.83,1.8,2.93,2.82,3.72
		c0.24,0.19,0.49,0.38,0.72,0.57c1.37,1.17,2.76,2.34,4.14,3.5c6.25,5.27,12.71,10.72,18.27,16.87c0.15,0.17,0.32,0.34,0.48,0.5
		c0.03,0.03,0.06,0.06,0.09,0.09c-6.02,1.92-12.29,3.29-18.38,4.61c-2.6,0.57-5.29,1.16-7.94,1.78
		c-37.62,8.88-75.89,17.84-112.9,26.51l-38.94,9.12c-0.2,0.02-0.4,0.04-0.6,0.05c-0.59,0.04-1.21,0.09-1.85,0.24
		c-15.55,3.67-31.11,7.36-46.66,11.05L1403.56,721.72z"/>
	<path class="st0" d="M1664.59,394.41c-0.57-4.68-1.03-9.43-1.47-14.04l-0.35-3.57c-0.18-1.85-0.3-3.76-0.42-5.61
		c-0.29-4.59-0.59-9.34-1.84-13.95c-1.64-6.01-3.44-12.38-5.9-18.37c-1.21-2.94-0.71-4.62,1.93-6.4c1.92-1.3,3.5-2.88,5.03-4.41
		c0.55-0.55,1.1-1.1,1.66-1.63c0.68-0.65,1.96-1.86,2.03-3.79c0.3-7.79,0.32-16.81-3.29-25.46c-0.39-6.19,3.04-8.51,8.81-9.91
		l5.85,13.51c4.99,11.53,9.99,23.07,15.01,34.59c2.9,6.64,5.82,13.27,8.74,19.9c2.17,4.91,4.33,9.82,6.49,14.74
		c0.06,0.14,0.11,0.29,0.17,0.44c0.21,0.59,0.52,1.48,1.35,2.08l0.03,0.34l-8.97,4.48c-10.45,5.21-20.89,10.43-31.34,15.62
		C1666.98,393.51,1665.81,394.07,1664.59,394.41z"/>
	<path class="st0" d="M533.85,1225.2c-3.41-4.43-7.46-7.7-11.65-10.91c-1.81-1.39-2.57-3.25-2.26-5.54
		c1.17-8.49-0.85-16.59-5.98-24.08c-2.56-3.73-2.46-7.39,0.33-11.5c0.97-1.42,1.86-2.91,2.73-4.34c2.15-3.55,4.19-6.91,7.2-9.55
		c0.79-0.69,1.83-1.78,1.75-3.26c-0.08-1.48-1.26-2.47-2.27-3.18c-0.21-0.14-0.42-0.29-0.63-0.43c-2.3-1.56-3.48-2.48-3.07-4.79
		c0.06-0.37,0.13-0.56,0.16-0.66c0.08-0.01,0.22-0.03,0.45-0.03c0.71,0,1.43-0.02,2.14-0.04c0.71-0.02,1.41-0.03,2.11-0.03
		c3.92,0,6.8,0.6,9.05,3.58c0.98,1.3,2.51,2.04,4.67,2.26c4.85,0.48,8.62,3.14,12.61,5.96c2.75,1.94,5.6,3.95,8.87,5.24
		c0.07,0.13,0.15,0.34,0.2,0.54c1.95,9.18,8.14,15.85,13.6,21.73c2.49,2.69,2.78,4.77,1.04,7.67c-2.94,4.93-5.62,8.7-10.99,8.7
		c-0.61,0-1.26-0.05-1.92-0.14c-1.2-0.17-2.79-0.37-4.39-0.37c-3.01,0-5.57,0.69-7.84,2.11c-4.28,2.68-6.89,5.37-8.71,9
		c-1.6,3.19-3.55,6.26-5.61,9.51C534.92,1223.49,534.38,1224.34,533.85,1225.2z"/>
	<path class="st0" d="M1651.07,434.34c-0.98-2.39-1.13-5.02-1.28-7.78c-0.05-0.93-0.1-1.86-0.19-2.78
		c-0.22-2.38-0.51-4.78-0.79-7.11c-0.55-4.5-1.11-9.15-1.14-13.74c0.67-0.02,1.34-0.05,2-0.08c1.58-0.07,3.21-0.13,4.79-0.13
		c1.12,0,2.12,0.03,3.06,0.1c0.5,0.04,0.97,0.06,1.42,0.06h0c1.44,0,3.5-0.18,4.82-1.7c0.77-0.88,1.14-2.06,1.14-3.56
		c1.67-0.4,3.19-1.1,4.61-1.81c10.45-5.2,20.9-10.41,31.34-15.62l8.91-4.45c0.2,0.22,0.41,0.45,0.62,0.69
		c1.17,1.3,2.38,2.65,4.04,3.36c1.34,0.57,2.13,1.19,2.36,1.84c0.31,0.88-0.24,2.23-1.17,4c-0.32,0.61-0.69,1.25-1.07,1.9
		c-1.7,2.94-3.45,5.99-2.62,8.64c0.79,2.5,3.61,3.95,6.35,5.35c0.91,0.47,1.78,0.91,2.53,1.37c5.73,3.53,11.45,7,17.5,10.67
		c1.15,0.69,2.3,1.4,3.47,2.1c-1.49,0.18-2.84,0.32-4.17,0.32c-0.16,0-0.33,0-0.49-0.01c-0.4-0.01-0.8-0.02-1.19-0.02
		c-7.44,0-14.49,1.98-20.95,5.88c-1.24,0.75-2.42,1.11-3.59,1.11c-0.98,0-2.02-0.25-3.16-0.76c-2.36-1.05-4.84-1.81-7.24-2.55
		c-1.03-0.32-2.06-0.63-3.09-0.97c-0.16-0.05-0.33-0.08-0.51-0.08c-0.07,0-0.14,0-0.21,0.01c-5.23,0.7-10.02,2.68-14.64,4.59
		c-1.62,0.67-3.29,1.36-4.94,1.97l-1.48,0.46c-1.13,0.35-2.26,0.7-3.38,1.07c-2.91,0.97-5.8,2.07-8.6,3.14
		C1659.9,431.48,1655.52,433.15,1651.07,434.34z"/>
	<path class="st0" d="M1643.56,568.34c-0.31,0-0.86-0.18-1.39-0.36c-0.35-0.12-0.71-0.24-1.1-0.34l2.77-7.93
		c0.2-0.58,0.06-1.23-0.38-1.66c-0.31-0.3-0.71-0.47-1.13-0.47c-0.18,0-0.36,0.03-0.53,0.09c-1.53,0.54-3.06,1.01-4.54,1.46
		c-3.99,1.22-7.79,2.38-11.18,4.81c-0.16-0.27-0.26-0.67-0.4-1.34c-0.15-0.72-0.33-1.54-0.78-2.3c-0.02-0.04-0.05-0.08-0.08-0.12
		l-0.25-0.35c0.02-0.69,0.04-1.94-0.97-2.85c-1.11-5.95-2.95-11.76-5.47-17.31l-0.03-0.46c0.48-0.59,1.18-1.04,1.97-1.55
		c1.24-0.8,2.64-1.71,3.56-3.42c2.81-5.18,5.84-9.99,9-14.29c0.75-1.02,1.7-2.56,1.34-4.2c-0.36-1.64-1.8-2.56-3.37-3.43
		c-2.22-1.23-4.45-2.56-6.61-3.84c-2.33-1.39-4.74-2.82-7.17-4.15c-1.14-0.62-1.39-1.21-1.09-2.51c1.61-6.93,3.26-13.85,4.9-20.78
		l1.36-5.73c7.83,0.43,16.17,1.2,25.41,2.35c-0.32,1.32-0.63,2.64-0.95,3.97c-1.13,4.74-2.3,9.64-3.55,14.43
		c-0.29,1.12-0.74,2.82,0.23,4.08c0.87,1.13,2.39,1.26,3.46,1.26l0.2,0c0.91-0.01,1.88-0.14,2.81-0.26c0.93-0.12,1.89-0.25,2.7-0.25
		c1.48,0,1.79,0.42,1.9,0.58c0.67,0.94,0.37,3.21,0.11,5.22c-0.12,0.87-0.24,1.78-0.29,2.63c-0.2,3.27-0.37,6.6-0.53,9.82
		c-0.42,8.41-0.84,17.1-1.98,25.52c-0.93,6.89-3.74,13.62-6.45,20.14c-0.46,1.1-0.91,2.19-1.36,3.28c-0.09,0.22-0.16,0.28-0.16,0.28
		L1643.56,568.34z"/>
	<path class="st0" d="M1612.17,638.11c-11.92,0-25.65-0.47-38.1-5.77c-1.58-0.67-3.21-1.31-4.78-1.93
		c-6.08-2.39-12.36-4.86-16.95-9.69c-0.4-0.42-0.8-0.83-1.21-1.24c-1.62-1.64-3.15-3.19-4.06-5.12c0.35-0.29,0.79-0.55,1.27-0.83
		c1.12-0.66,2.52-1.49,3.32-3.16c1.44-3.01,3.05-6.02,4.6-8.93c2.17-4.06,4.42-8.25,6.28-12.61c0.12-0.03,0.21-0.04,0.29-0.04
		c0.52,0,1.16,0.36,1.83,0.73c0.37,0.21,0.75,0.42,1.17,0.61c10.14,4.55,20.44,9.23,30.39,13.74l9.27,4.2
		c0.08,0.04,0.17,0.07,0.25,0.09c1.09,2.46,2.78,4.86,5.14,7.31c2.89,3,3.88,6.42,3.21,11.09c-0.13,0.93-0.26,1.86-0.38,2.79
		C1613.32,632.4,1612.94,635.29,1612.17,638.11z"/>
	<path class="st0" d="M1633.66,643c-1.71-2.17-2.93-4.16-2.87-7.09c0.16-7.22-0.33-14.54-1.43-21.76c-0.33-2.16-1.06-4.17-2.24-6.15
		c-2.55-4.31-4.76-6.81-8.46-6.81c-1.66,0-3.6,0.5-6.48,1.68c-1.35,0.55-2.7,1.12-4.04,1.69l-0.41,0.17
		c-0.2-19.03-0.76-38.75-1.65-58.67c2.17-0.76,4.07-1.95,5.91-3.1c1.02-0.64,2-1.25,3-1.78c0.22,7.06,1.99,12.6,5.54,17.23
		c-0.04,0.86,0.03,2.22,1.32,3.1l0.33,0.46c0.17,0.32,0.27,0.8,0.38,1.3c0.27,1.28,0.68,3.19,2.86,4.07c0.8,0.51,1.61,1.07,2.4,1.62
		c1.93,1.34,3.93,2.73,6.17,3.66c4.55,1.9,6.37,5,6.47,11.04c0.12,6.65,0.65,13.38,1.17,19.89c0.11,1.37,0.22,2.74,0.32,4.11
		c0.11,1.41-0.43,2.54-1.1,3.97l-0.05,0.11c-0.37,0.78-0.77,1.55-1.2,2.37c-2.04,3.9-4.34,8.3-2.22,13.66
		c-3.81,3.34-3.72,7.62-3.63,11.42C1633.76,640.52,1633.79,641.8,1633.66,643z"/>
	<path class="st0" d="M1651.67,438.44c-0.11-0.34-0.16-0.63-0.15-0.9c4.74-1.25,9.33-3,13.78-4.69c2.77-1.05,5.63-2.15,8.47-3.09
		c1.09-0.36,2.19-0.7,3.29-1.04l0.25-0.08c0.89,1.76,1.76,3.52,2.64,5.29c2.79,5.61,5.66,11.4,8.88,16.95
		c-9.26,4.77-18.95,9.91-28.1,15.73C1657.71,457.22,1654.69,447.83,1651.67,438.44z"/>
	<path class="st0" d="M1653.6,493.32c0.56-6.32,2.19-10.44,7.48-13.32c5.41-2.95,10.84-6.72,17.59-12.23
		c5.93-4.84,12.93-5.7,20.33-6.61c0.56-0.07,1.12-0.14,1.68-0.21C1689.66,479.21,1671.58,487.12,1653.6,493.32z"/>
	<path class="st0" d="M520.55,1131.49c-1.55,0-2.51-0.19-2.89-2.86c-0.49-3.47-4.32-4.98-6.61-5.89c-1.51-0.6-3.16-3.16-3.84-5.97
		c-0.51-2.13-0.37-4.03,0.36-4.86c0.85-0.97,2.26-1.46,4.19-1.46c0.68,0,1.42,0.06,2.18,0.19c0.01,0,0.02,0,0.03,0.01
		c-0.02,0.19-0.06,0.45-0.09,0.64c-0.11,0.66-0.24,1.4-0.05,2.17c0.1,0.41,0.05,0.97,0.01,1.57l-0.03,0.33
		c-0.07,1.02-0.06,2.3,0.74,3.16c0.44,0.47,1.05,0.73,1.73,0.73c0.7,0,1.46-0.27,2.39-0.85c0.55-0.34,1.17-0.62,1.82-0.92
		c0.55-0.25,1.11-0.5,1.67-0.81c0.52-0.29,1-0.44,1.4-0.44c0.36,0,0.83,0.1,1.28,0.9c2.89,5.06,7.68,6.72,12.32,8.32l0.96,0.33
		c0.28,0.1,0.56,0.19,0.85,0.29c1.18,0.4,2.3,0.77,3.18,1.36c0.56,0.37,1.48,1.15,1.36,2.15c-0.02,0.19-0.03,0.28-1.13,0.57
		c-0.3,0.08-0.6,0.16-0.88,0.26c-2.4,0.86-4.92,0.97-7.06,0.97c-0.75,0-1.5-0.02-2.25-0.03c-0.75-0.02-1.48-0.03-2.21-0.03
		c-0.5,0-0.99,0.01-1.48,0.03l-3.08,0.01c-0.56,0-1.11,0-1.65-0.01l-0.19,0c-0.54,0-1.1,0.03-1.64,0.07
		C521.49,1131.46,521.01,1131.49,520.55,1131.49z"/>
	<path class="st0" d="M1691.7,449.44c-3.21-5.52-6.09-11.32-8.88-16.95c-0.82-1.65-1.64-3.29-2.46-4.93
		c1.15-0.46,2.3-0.93,3.41-1.39c4.17-1.72,8.13-3.36,12.38-4.14c0.33,1.55,0.66,3.11,0.99,4.67c1.16,5.53,2.37,11.24,3.67,16.84
		c0.35,1.5,0.24,1.55-0.64,1.93c-2.35,1.01-4.68,2.14-6.94,3.23C1692.72,448.95,1692.21,449.2,1691.7,449.44z"/>
	<path class="st0" d="M457.37,1098.98c-0.21-0.04-0.49-0.13-0.73-0.21c-0.16-0.05-0.31-0.1-0.46-0.15
		c-3.27-0.95-6.78-1.38-11.4-1.38c-1.84,0-3.69,0.06-5.48,0.13l-1.5,0.05c-0.12,0-0.24,0.01-0.36,0.01c-1.33,0-1.76-0.26-1.9-0.42
		c-0.14-0.15-0.35-0.6-0.22-1.87c0.05-0.47,0.04-0.92,0.03-1.31c-0.01-0.25-0.02-0.51,0-0.76c0.15-2.64,0.23-3.96-0.65-4.89
		c-0.31-0.33-0.86-0.72-1.76-0.72c-0.52,0-1.08,0.12-1.81,0.36c0.01-4.47,2.02-6.27,10.04-6.94c0.55-0.05,1.02-0.07,1.46-0.07
		c2.27,0,3.98,0.54,5.48,3.22c2.21,3.96,5.1,8.41,9.73,11.41c0.39,0.25,0.48,0.52-0.1,2.32c-0.13,0.39-0.25,0.77-0.34,1.13
		C457.39,1098.93,457.38,1098.96,457.37,1098.98z"/>
	<path class="st0" d="M410.47,1080.88c-0.2-0.16-0.43-0.36-0.52-0.45c-1.67-1.53-3.33-3.07-4.99-4.61
		c-2.14-1.99-4.29-3.97-6.45-5.94c-0.11-0.1-0.16-0.17-0.19-0.2c0.04-0.18,0.21-0.56,0.34-0.85l0.08-0.18
		c1.67-3.76,4.98-4.97,8.82-6.37c0.44-0.16,0.88-0.32,1.32-0.49c2.09-0.79,4.42-1.59,5.86-1.59c1.25,0,2.1,0.49,2.46,7.1l0.05,0.95
		C415.29,1072.89,412.97,1077.24,410.47,1080.88z"/>
	<path class="st0" d="M482.32,1108.3c-0.84,0-1.7-0.02-2.65-0.07c-0.8-0.04-1.65-0.25-2.56-0.48c-0.5-0.13-0.99-0.25-1.49-0.35
		c-0.99-0.2-2.32-0.68-2.99-1.8c-0.66-1.1-0.5-2.47-0.22-3.47c0.32,0,0.94,0,0.94,0c1.2,0,2.41-0.02,3.61-0.04
		c1.19-0.02,2.39-0.04,3.58-0.04c5.89,0,10.91,0.51,15.66,2.82C492.45,1107.23,488.06,1108.3,482.32,1108.3z"/>
	<path class="st0" d="M490.93,1123.84c-1.57,0-3.64-0.29-4.6-1.7c-0.62-0.9-0.75-2.23-0.4-3.9c1.31,0.99,2.72,1.7,4.11,2.4
		c0.31,0.15,0.61,0.31,0.92,0.47c1.35,0.7,2.7,1.41,4.16,2.18C493.59,1123.66,492.18,1123.84,490.93,1123.84z"/>
	<path class="st0" d="M545.02,441.46c-3.85,0-6.88-0.74-9.53-2.32c-0.78-0.46-1.7-0.7-2.75-0.7c-1.32,0-2.63,0.36-3.63,0.67
		c-2.39,0.75-4.95,1.1-8.07,1.1l-0.65-0.01c-3.29-0.04-5.66-0.06-6.23-0.67c-0.6-0.63-0.48-3.37-0.36-6.01
		c0.25-5.8-1.45-10.02-5.35-13.3c-1.08-0.91-1.72-1.93-1.9-3.05c-0.22-1.38-0.42-2.77-0.62-4.16c-0.33-2.26-0.66-4.59-1.1-6.89
		c-0.19-0.99-0.35-1.99-0.5-2.98c-0.84-5.28-1.7-10.73-6.8-14.84c-1.09-0.88-2.42-1.77-4.05-1.77c-1.06,0-2.11,0.37-3.31,1.17
		c-1.91,1.28-3.89,2.49-6.18,3.9c-0.03,0.02-0.06,0.03-0.08,0.05c0.29-1.31,0.53-2.59,0.77-3.84c0.6-3.17,1.16-6.17,2.48-8.96
		c0.92-1.93,2.02-3.87,3.08-5.75c3.48-6.14,7.07-12.49,5.96-20.68c-0.28-2.09-0.71-5.24-4.74-5.24c-0.28,0-0.58,0.01-0.91,0.04
		l-0.21,0.02c-0.46,0.04-0.9,0.08-1.31,0.08c-0.94,0-1.57-0.19-2.2-1.19c-8.96-14.26-18.85-31.09-22.66-50.45
		c-0.29-1.49-0.67-2.96-1.04-4.38c-0.99-3.87-1.93-7.52-1.27-11.47c1.31-7.88,2.39-15.93,3.43-23.7c0.36-2.7,0.73-5.41,1.1-8.11
		c4.85,1.03,9.69,2.07,14.53,3.11c11.84,2.55,24.08,5.18,36.17,7.53c27.15,5.28,56.42,9.81,92.1,14.26
		c32.02,3.99,65.93,7.2,106.72,10.09c11.85,0.84,23.92,1.45,35.58,2.03c5.97,0.3,11.95,0.6,17.92,0.93
		c1.11,0.06,2.21,0.21,3.38,0.37c0.02,0,0.05,0.01,0.07,0.01c0,0.02-0.01,0.04-0.01,0.06c-0.15,1.18-0.3,2.39-0.35,3.63
		c-0.47,10.15-0.94,20.31-1.4,30.46c-0.43,9.37-0.85,18.75-1.29,28.12c-0.14,3.08-0.32,6.16-0.49,9.24
		c-0.17,3.03-0.34,6.05-0.48,9.08c-0.49,10.54-0.97,21.07-1.44,31.61l-0.55,12.24c-0.76,1.55-0.78,3.14-0.81,4.55
		c0,0.29-0.01,0.58-0.02,0.88c-0.27,6.57-0.55,13.13-0.84,19.7l-0.23,5.34c-1.89-0.12-3.78-0.23-5.67-0.34
		c-5.19-0.31-10.56-0.63-15.83-1c-17.47-1.2-34.93-2.41-52.4-3.63l-33.41-2.32c-11-0.76-22-1.53-32.99-2.28
		c-5.47-0.37-10.94-0.74-16.42-1.1c-11.09-0.74-22.55-1.51-33.82-2.32c-0.26-0.02-0.51-0.03-0.74-0.03c-0.49,0-1.97,0-2.97,1.04
		c-0.94,0.98-1.01,2.35-0.97,3.44c0.09,2.28,0.03,4.63-0.02,6.9c-0.01,0.45-0.02,0.89-0.03,1.34l-0.26-0.01
		c-3.14-0.18-6.4-0.37-9.64-0.37c-1.58,0-3.04,0.04-4.47,0.13c-1.29,0.08-2.61,0.21-3.88,0.33
		C549.3,441.25,547.12,441.46,545.02,441.46z"/>
	<path class="st0" d="M380.99,517.81c-2.27-0.35-4.61-0.7-6.9-1.12c-19.12-3.51-38.25-7.03-57.37-10.55l-17.98-3.31
		c-7.4-2.83-15.1-5.05-22.54-7.21c-3.44-1-7-2.03-10.47-3.1c-15.67-4.84-31.64-9.62-47.09-14.24c-6.04-1.81-12.08-3.61-18.11-5.42
		c-5.9-1.77-11.8-3.53-17.7-5.29l-7.49-2.24c-1.72-4.7-1.11-8.44,1.9-11.71c2.29-2.5,2.52-5.4,2.49-7.36
		c-0.01-0.71,0.03-1.43,0.08-2.19c0.05-0.85,0.11-1.73,0.08-2.63c-0.22-8,2.04-15.25,7.57-24.25
		c11.43-18.61,19.13-39.32,26.58-59.34c0.77-2.07,1.54-4.15,2.32-6.22c3.6-9.63,7.04-19.49,10.37-29.02c1.66-4.75,3.32-9.51,5-14.25
		c0.22-0.63,0.51-1.25,0.82-1.9c1.32,0.33,2.65,0.67,3.98,1c4.76,1.2,9.67,2.44,14.54,3.58c1.15,0.27,1.92,0.75,2.76,1.72
		c3.78,4.36,7.47,9.79,6.16,17.07c-0.18,1-0.13,1.96-0.08,2.89c0.04,0.71,0.07,1.38-0.01,1.97c-0.25,1.88,0.04,3.26,0.89,4.22
		c0.81,0.92,2.04,1.37,3.77,1.37c0.27,0,0.55-0.01,0.85-0.03c2.63-0.18,5.18-0.27,7.58-0.27c10.36,0,19.3,1.65,27.34,5.04
		c0.59,0.25,1.19,0.37,1.71,0.48l0.12,0.03c16.28,3.46,30.75,5.14,44.25,5.14c3.14,0,6.28-0.09,9.34-0.27
		c1.88-0.11,3.78-0.17,5.65-0.17c9.98,0,19.8,1.54,30,4.7c0.83,0.26,1.67,0.52,2.5,0.79c5.74,1.82,11.68,3.7,17.95,3.7
		c1.53,0,3.05-0.12,4.53-0.34c0.69,1.37,1.38,2.74,2.07,4.11c2.26,4.5,4.59,9.15,6.98,13.68c0.64,1.22,0.6,1.82-0.19,3.05
		c-1.92,2.97-3.55,6.12-5.13,9.18c-0.66,1.28-1.33,2.57-2.02,3.84l-0.65,1.21c-4.28,7.96-8.32,15.48-16.14,20.06
		c-0.8,0.47-2.64,1.73-2.6,3.4c0.03,1.3-0.16,2.64-0.37,4.07c-0.51,3.57-1.09,7.61,2.1,11.44c2.17,2.6,3.44,4.89,2.64,7.63
		c-0.41,1.38-0.82,2.76-1.23,4.14c-1.31,4.41-2.67,8.98-3.84,13.53c-0.63,2.46-1.72,4.73-2.87,7.13c-1.22,2.54-2.48,5.16-3.18,8.07
		c-2.23,9.32-4.11,18.86-5.92,28.09c-1.06,5.37-2.15,10.91-3.3,16.37C382.14,517.99,381.56,517.9,380.99,517.81z"/>
	<path class="st0" d="M556.41,545.93c-5.85-0.24-11.73-1.13-17.43-1.99c-2.92-0.44-5.95-0.9-8.94-1.26
		c-5.62-0.69-11.33-1.51-16.85-2.3c-5.15-0.74-10.48-1.51-15.75-2.17c-3.15-0.39-6.35-0.88-9.44-1.35
		c-5.74-0.87-11.66-1.78-17.61-2.14c-1.15-0.96-2.53-1.09-3.57-1.19c-0.31-0.03-0.61-0.06-0.9-0.11
		c-22.63-4.23-45.66-8.46-67.92-12.56l-12.14-2.23c1.15-5.44,2.23-10.95,3.28-16.29c1.81-9.2,3.68-18.71,5.9-27.96
		c0.62-2.58,1.75-4.94,2.95-7.43c1.17-2.44,2.38-4.95,3.09-7.72c1.15-4.49,2.5-9.02,3.81-13.41c0.41-1.38,0.82-2.77,1.23-4.16
		c1.45-4.94-1.72-8.75-3.25-10.59c-2.28-2.74-1.87-5.61-1.39-8.93c0.2-1.41,0.41-2.87,0.4-4.35c0.17-0.2,0.56-0.55,1.02-0.81
		c8.59-5.04,13.04-13.31,17.34-21.31l0.65-1.2c0.69-1.29,1.37-2.59,2.04-3.89c1.55-2.99,3.14-6.07,4.98-8.91
		c1.43-2.21,1.53-4.03,0.34-6.29c-2.37-4.5-4.7-9.13-6.95-13.61c-0.79-1.58-1.59-3.16-2.38-4.73c0.75-5.09,1.44-10.26,2.09-15.27
		c1.57-11.92,3.19-24.25,5.89-36.14c3.45-15.2,7.19-30.61,10.81-45.51c1.47-6.05,2.94-12.1,4.39-18.16
		c5.88,1.18,11.74,2.79,17.43,4.35c1.23,0.34,2.46,0.67,3.69,1.01c-0.39,2.81-0.76,5.62-1.14,8.43c-1.04,7.75-2.12,15.77-3.42,23.6
		c-0.77,4.63,0.3,8.78,1.33,12.8c0.35,1.38,0.72,2.8,1,4.2c3.92,19.9,13.97,37.04,23.09,51.53c1.51,2.41,3.53,2.69,4.91,2.69
		c0.55,0,1.09-0.05,1.6-0.1l0.2-0.02c0.22-0.02,0.43-0.03,0.62-0.03c1.02,0,1.23,0,1.57,2.46c0.97,7.12-2.21,12.73-5.58,18.67
		c-1.09,1.93-2.22,3.92-3.19,5.96c-1.5,3.16-2.1,6.36-2.74,9.74c-0.45,2.38-0.91,4.84-1.72,7.42c-0.2,0.64,0.02,1.34,0.55,1.75
		c0.29,0.22,0.63,0.34,0.98,0.34c0.29,0,0.59-0.08,0.85-0.24c1.25-0.78,2.41-1.49,3.49-2.15c2.32-1.42,4.33-2.65,6.29-3.97
		c0.85-0.57,1.28-0.63,1.53-0.63c0.5,0,1.12,0.33,2.04,1.07c4.14,3.34,4.87,7.96,5.65,12.85c0.16,1.03,0.33,2.06,0.52,3.08
		c0.42,2.22,0.76,4.52,1.08,6.75c0.2,1.4,0.41,2.81,0.63,4.21c0.31,1.9,1.32,3.58,3.01,4.99c3.12,2.62,4.42,5.92,4.21,10.7
		c-0.19,4.43-0.23,6.81,1.23,8.36c1.5,1.59,3.85,1.61,8.52,1.67l0.69,0.01c3.4,0,6.36-0.41,9.03-1.25c0.72-0.23,1.78-0.53,2.67-0.53
		c0.47,0,0.84,0.08,1.11,0.24c3.17,1.89,6.72,2.77,11.18,2.77c2.25,0,4.51-0.22,6.68-0.43c1.3-0.13,2.53-0.24,3.77-0.32
		c1.36-0.08,2.75-0.12,4.27-0.12c3.16,0,6.36,0.18,9.46,0.36l0.4,0.02c-0.01,0.93-0.02,1.8-0.12,2.65
		c-2.46,19.19-5.1,39.64-7.8,60.2c-1.22,9.28-2.51,18.71-3.75,27.84C557.42,538.54,556.91,542.24,556.41,545.93z"/>
	<path class="st0" d="M985.93,500.79c-0.17-2.35-0.35-4.78-0.72-7.17l-0.15-0.98c-2.73-17.3-5.56-35.19-8.6-52.75
		c-0.16-0.91-0.28-1.82-0.4-2.78c-0.46-3.47-0.93-7.06-3.19-10.38c-2.62-3.83-3.87-5.73-3.79-7.17c0.08-1.45,1.65-3.32,4.51-6.7
		l0.07-0.08c0.13-0.16,0.22-0.31,0.29-0.44c1.29-1.29,1.16-2.87,1.08-3.94c-0.02-0.25-0.04-0.49-0.04-0.73
		c0.02-2.11,0.01-4.22,0-6.33c-0.02-3.17-0.04-6.44,0.06-9.65c0.14-4.32-0.61-8.6-2.29-13.06c-0.54-1.43-1.11-2.86-1.68-4.28
		c-1.66-4.12-3.37-8.39-4.15-12.79c-3.17-17.9-6.81-35.97-10.82-53.7c-1.37-6.04-2.9-12.82-3.27-19.72c3.54-0.1,7.08-0.2,10.63-0.3
		c12.09-0.35,24.58-0.71,36.88-0.96c3.49-0.07,5.08-1.61,5.15-5c0.02-1.11,0.18-2.23,0.34-3.42c0.16-1.21,0.33-2.46,0.36-3.73
		c0.03-1.38,0.35-1.81,1.68-2.3c0.83-0.31,1.53-0.58,2.12-0.82c0.69-0.27,1.39-0.55,1.78-0.66c0.17,0.3,0.41,0.82,0.63,1.3
		c0.3,0.65,0.66,1.45,1.16,2.43c2.03,4,4.01,8.12,5.91,12.11c0.98,2.06,1.97,4.12,2.97,6.17c0.09,0.19,0.17,0.4,0.26,0.62
		c0.38,0.94,0.84,2.1,1.99,2.54c1.83,0.7,3.61,1.65,5.49,2.65c3.78,2.01,7.69,4.09,12.1,4.09c1.01,0,2.01-0.11,2.99-0.33
		c1.71-0.38,3.42-0.58,5.1-0.58c7.22,0,13.55,3.63,19.14,6.83c1.17,0.67,2.75,1.44,4.62,1.44c0.91,0,1.81-0.17,2.74-0.53
		c3.05-1.16,6.1-1.75,9.06-1.75c4.81,0,9.57,1.54,14.15,4.58c1.87,1.24,3.55,1.84,5.14,1.84c1.81,0,3.5-0.78,5.03-2.32
		c1.4-1.41,2.96-2.04,5.06-2.04c1.56,0,3.18,0.34,4.9,0.7l0.55,0.12c3.03,0.63,6.8,1.41,10.44,1.41c3.46,0,6.52-0.68,9.35-2.09
		c0.1-0.05,0.18-0.07,0.24-0.07c0.19,0,0.53,0.19,0.87,0.38c0.13,0.07,0.26,0.14,0.39,0.21c2.07,1.09,4.14,2.2,6.22,3.31
		c-13.7,7.91-24.39,19.27-34.76,30.28c-1.56,1.66-3.13,3.32-4.7,4.97c-3.83,4.02-7.45,8.34-10.94,12.52c-1,1.19-1.99,2.38-2.99,3.56
		c-0.16,0.19-0.32,0.37-0.49,0.56c-0.94,1.05-2.1,2.37-2.36,4.27c-0.02,0.14-0.02,0.29,0,0.43l0.29,2.16
		c0.75,5.55,1.54,11.28,1.28,16.95c-0.09,1.91-0.2,2.67-1.1,3.16c-3.99,2.18-7.03,5.36-9.96,8.43c-0.93,0.98-1.9,1.99-2.87,2.94
		c-3.02,2.95-4.54,4.44-4.31,6.37c0.23,1.92,2.07,3.01,5.72,5.17c0.17,0.1,0.35,0.2,0.53,0.31c1.89,1.08,2.29,1.53,2.13,2.38
		c-0.8,4.2-0.7,8.39-0.59,12.45c0.06,2.27,0.12,4.61,0.01,6.89c-0.17,3.65,1.25,6.78,4.21,9.3c6.68,5.69,13.34,11.41,20,17.12
		c6.32,5.42,12.65,10.85,18.99,16.26c2.05,1.75,2.78,3.34,2.5,5.48c-0.17,1.31-0.12,2.59-0.08,3.84c0,0.03,0,0.06,0,0.1l-18.2,1.6
		c-15.42,1.36-30.84,2.72-46.26,4.1c-6,0.54-12.01,1.1-18.01,1.66c-7.11,0.67-14.47,1.35-21.7,1.99
		c-9.31,0.82-18.78,1.59-27.94,2.34c-3.53,0.29-7.06,0.58-10.6,0.87C986.01,501.89,985.97,501.34,985.93,500.79z"/>
	<path class="st0" d="M970.99,409.75c-1.17-0.04-2.39-0.08-3.59-0.08c-57.5-0.01-115-0.02-172.5-0.02l-24.82,0l0.49-10.94
		c0.47-10.53,0.95-21.06,1.44-31.59c0.14-3.02,0.31-6.03,0.48-9.05c0.17-3.09,0.35-6.18,0.49-9.27c0.44-9.37,0.86-18.74,1.29-28.11
		c0.46-10.16,0.93-20.31,1.4-30.47c0.05-1.11,0.19-2.21,0.33-3.38c0.01-0.08,0.02-0.15,0.03-0.22c14.41,0.1,28.65,0.55,42.37,1.34
		c1.07,0.06,2.15,0.07,3.16,0.07l1.3,0c0.66,0,1.32,0,1.98,0.02c20.05,0.58,41.32,0.84,68.98,0.84c11.3,0,22.73-0.04,33.47-0.09
		c5.47-0.02,11.02-0.2,16.38-0.36c1.97-0.06,3.95-0.12,5.92-0.18c0.37,7.19,1.95,14.15,3.35,20.34c4,17.68,7.63,35.69,10.79,53.55
		c0.84,4.73,2.62,9.15,4.33,13.43c0.56,1.4,1.13,2.8,1.66,4.21c1.55,4.12,2.21,7.88,2.09,11.83c-0.1,3.26-0.08,6.57-0.07,9.77
		c0.01,2.09,0.02,4.19,0,6.28c0,0.33,0.02,0.67,0.05,1.01c0.05,0.57,0.05,0.9,0.01,1.12C971.54,409.76,971.27,409.75,970.99,409.75z
		"/>
	<path class="st0" d="M411.84,356.21c-5.77,0-11.47-1.81-16.98-3.55c-0.84-0.27-1.68-0.53-2.52-0.79
		c-10.52-3.26-20.64-4.84-30.95-4.84c-1.93,0-3.9,0.06-5.84,0.17c-2.99,0.18-6.07,0.27-9.15,0.27c-13.27,0-27.53-1.66-43.58-5.07
		l-0.13-0.03c-0.42-0.09-0.82-0.17-1.13-0.3c-8.44-3.56-17.79-5.29-28.58-5.29c-2.47,0-5.1,0.09-7.8,0.27
		c-0.22,0.01-0.43,0.02-0.63,0.02c-0.83,0-1.25-0.14-1.37-0.28c-0.05-0.06-0.29-0.4-0.12-1.69c0.11-0.89,0.07-1.74,0.03-2.56
		c-0.04-0.78-0.08-1.52,0.04-2.16c1.57-8.66-2.86-15.1-6.89-19.74c-1.28-1.47-2.65-2.31-4.45-2.74c-4.84-1.13-9.74-2.37-14.48-3.57
		c-1.28-0.32-2.57-0.65-3.85-0.97c0.33-2.14,0.66-4.29,0.99-6.43c1.03-6.69,2.1-13.62,3.26-20.4c0.38-2.24,0.4-4.43,0.41-6.56
		c0-0.68,0.01-1.36,0.02-2.03c0.1-4.26,0.08-8.58,0.07-12.76c-0.03-7.32-0.05-14.89,0.54-22.3c0.35-4.3,0.05-8.66-0.23-12.89
		c-0.13-1.98-0.27-4.02-0.33-6.01l-0.01-0.21c-0.04-1.07-0.07-2.08,0.14-2.94c0.15-0.64,0.3-0.97,0.4-1.14
		c0.15,0.08,0.41,0.24,0.8,0.58c8.94,7.99,19.31,14.07,29.34,19.95l2.32,1.36c3.54,2.08,7.21,2.51,10.76,2.92
		c1.38,0.16,2.68,0.31,3.98,0.55c1.68,0.31,3.38,0.46,5.02,0.61c0.98,0.09,2,0.17,2.98,0.3c0.36,0.05,0.69,0.07,0.99,0.07
		c3.21,0,3.87-2.61,4.26-4.17c1.54-6.07-0.11-11.47-1.71-16.69c-0.84-2.75-1.63-5.34-1.98-8.03c-0.04-0.3-0.08-0.6-0.13-0.9
		c-0.14-0.99-0.28-1.93-0.28-2.83c0-0.31,0.02-0.51,0.05-0.63c0.2,0.02,0.48,0.07,0.93,0.22c16.39,5.5,33.38,9.84,49.81,14.04
		c3.66,0.93,7.31,1.87,10.97,2.81c17.02,4.41,34.35,8.79,51.11,13.03c9.49,2.4,18.97,4.79,28.45,7.21c0.85,0.22,1.7,0.57,2.6,0.94
		c0.01,0,0.01,0.01,0.02,0.01c-1.47,6.1-2.95,12.2-4.43,18.29c-3.62,14.91-7.37,30.33-10.82,45.56
		c-2.73,12.04-4.36,24.44-5.94,36.43c-0.63,4.78-1.28,9.72-1.99,14.58C414.54,356.11,413.22,356.21,411.84,356.21z"/>
	<path class="st0" d="M1157.18,529.33c-0.77-0.75-1.54-1.53-2.28-2.29c-3.4-3.47-6.91-7.05-12.01-8.75
		c-2.25-0.75-3.12-2.35-3.94-5.04c-0.69-2.27-1.33-4.62-1.95-6.88c-1.39-5.1-2.82-10.37-5.01-15.37c-0.01-0.44-0.02-0.89-0.04-1.33
		c-0.04-1.17-0.08-2.27,0.05-3.31c0.55-4.25-1.79-6.79-3.6-8.33c-6.33-5.4-12.66-10.82-18.98-16.24
		c-6.67-5.72-13.33-11.43-20.01-17.13c-2.23-1.9-3.21-4.04-3.09-6.72c0.11-2.39,0.05-4.79-0.01-7.12c-0.11-4.06-0.21-7.9,0.53-11.76
		c0.63-3.3-2.07-4.84-3.68-5.77l-0.49-0.28c-1.88-1.11-3.83-2.26-4.16-2.8c0.2-0.61,1.87-2.25,3.35-3.69c1.01-0.99,2-2.02,2.95-3.01
		c2.9-3.03,5.63-5.89,9.18-7.83c2.56-1.4,2.67-3.85,2.76-5.82c0.27-5.97-0.53-11.85-1.3-17.54l-0.07-0.55
		c3.97-0.64,7.57-2.21,11.06-3.74c1.63-0.71,3.31-1.44,4.97-2.05c5.24-1.93,10.39-4.18,15.21-6.32c0.2-0.09,0.37-0.15,0.49-0.19
		c0,0.07,0,0.16-0.01,0.26c-0.48,7.05,3.02,11.11,10.42,12.07c1.32,0.17,2.61,0.57,3.63,1.11c12.31,6.6,25.58,8.8,36.95,10.07
		c4.92,0.55,9.81,1.97,14.53,3.34c4.84,1.41,9.85,2.86,15,3.43c6.26,0.69,8.2,4.1,9.3,9.36c0.25,1.21,0.52,2.43,0.79,3.64
		c0.5,2.25,1.01,4.58,1.42,6.86c0.75,4.17,0.4,7.33-1.11,10.26c-1.03,1.99-1.68,4.13-2.31,6.2c-0.16,0.52-0.32,1.04-0.48,1.56
		c-0.72,2.26-0.41,4.83,0.84,7.05c1.27,2.26,3.36,3.89,5.71,4.46c0.34,0.08,0.65,0.12,0.95,0.12c2.06,0,2.58-1.77,2.78-2.44
		c0.04-0.13,0.07-0.26,0.12-0.38c0.78-1.73,1.53-3.47,2.29-5.21c1.13-2.6,2.3-5.3,3.52-7.9c2.18-4.63,5.32-8.51,8.64-12.63
		c0.06-0.08,0.12-0.15,0.18-0.23c-0.64,2.26-1.51,4.67-2.66,7.36c-3.01,7.05-4.79,14.49-6.51,21.68c-0.6,2.52-1.23,5.13-1.9,7.68
		c-0.29,1.11-0.17,2.23-0.06,3.22c0.03,0.29,0.06,0.58,0.08,0.86l1.75,24.87c0.86,12.19,1.72,24.38,2.57,36.57
		c0.05,0.67,0.04,1.35,0.02,2.07c-0.87,0.11-1.76,0.22-2.65,0.39c-20.1,3.85-40.19,7.71-60.29,11.57L1157.18,529.33z"/>
	<path class="st0" d="M1225.79,735.81c-0.4-0.46-0.79-0.93-1.17-1.41c-0.88-1.11-1.79-2.2-2.7-3.29c-3.79-4.55-7.37-8.86-8.93-14.35
		c-0.85-2.99-2.15-6.38-5.26-8.85c-7.48-5.94-15.39-12.46-22.53-19.9c-1.82-1.9-1.73-2.57-0.4-4.24c1.12-1.41,2.11-2.92,3.07-4.38
		c1.03-1.56,2-3.03,3.11-4.4c0.77-0.95,1.76-2.4,1.41-4.06c-0.35-1.64-1.84-2.59-3.1-3.23c-5.67-2.89-10.3-4.18-15-4.18
		c-0.91,0-1.84,0.05-2.74,0.16c-0.39,0.04-0.73,0.07-1.04,0.07c-1.3,0-2.01-0.38-2.53-1.35c-4.4-8.13-11.54-13.51-18.45-18.73
		l-0.4-0.3c-1.51-1.14-2.32-2.44-2.62-4.21c-1.06-6.21-2.08-12.54-3.07-18.67c-0.34-2.12-0.68-4.23-1.02-6.35l0.47-1.09
		c5.1-11.87,10.36-24.15,8.27-38.09c-0.17-1.1,0.07-1.76,1.83-2.49c3.47-1.45,6.95-3.01,10.32-4.53l1.05-0.47
		c0.15-0.07,0.3-0.13,0.46-0.2c1.2-0.51,3.02-1.28,3.44-3.39l0.08-0.42c1.49-7.49,3.04-15.23-1.86-22.76
		c-1.29-1.98-2.84-3.71-4.34-5.38c-0.96-1.07-1.89-2.1-2.73-3.18l10.44-2c20.55-3.95,41.1-7.9,61.66-11.83
		c0.66-0.13,1.33-0.22,2.03-0.31c0.35,6.44,4.15,11.15,7.84,15.72l0.45,0.55c2.05,2.55,4.17,5.11,6.22,7.58
		c0.84,1.01,1.68,2.02,2.51,3.04c0.15,1.36,0.31,2.72,0.46,4.07c0.38,3.37,0.76,6.74,1.11,10.11c0.29,2.75,0.57,5.51,0.86,8.26
		c0.95,9.12,1.94,18.55,2.8,27.84l0.29,3.03c0.96,10.09,1.86,19.61,0.49,29.57c-0.11,0.77-0.22,1.55-0.33,2.33
		c-1.2,8.25-2.57,17.61,3.47,25.85c0.39,0.54,0.52,1.38,0.31,2.09c-1.62,5.5-1.88,11.15-2.13,16.62c-0.18,3.97-0.37,8.08-1.1,12
		c-0.23,1.26-0.33,2.54-0.42,3.78c-0.21,2.84-0.41,5.51-2.22,7.66c-1.35,1.61-2.68,3.23-4.01,4.85c-2.59,3.15-5.27,6.42-8.03,9.47
		c-2.34,2.58-2.33,5.03,0.03,7.48l6.16,9.32c-1.5-0.19-2.97-0.28-4.38-0.28C1236.94,728.95,1230.86,731.25,1225.79,735.81z"/>
	<path class="st0" d="M1472.81,577.11c-0.15,0-0.2-0.02-0.2-0.02l0,0c0,0-0.23-0.19-0.44-1.23c-1.01-4.94-2.2-9.92-3.35-14.73
		c-0.47-1.95-0.93-3.9-1.39-5.85c-0.01-0.05-0.03-0.1-0.04-0.15c-0.53-1.55-0.6-3.22-0.67-4.99c-0.08-1.79-0.15-3.64-0.71-5.52
		c-3.65-12.2-7.27-24.63-10.78-36.65c-1.19-4.09-2.39-8.18-3.58-12.27c0.54-0.8,1.4-1.37,2.36-2.03c0.52-0.35,1.06-0.72,1.57-1.14
		c4.54-3.72,8.84-8.37,13.46-14.58c0.09,1.79,0.15,3.49-0.1,5.11c-0.21,1.35-0.32,3.04,0.66,4.18c0.6,0.7,1.46,1.05,2.58,1.05
		c0.61,0,1.33-0.1,2.33-0.33c9.47-2.14,19.12-4.28,28.45-6.34c4.8-1.06,9.6-2.12,14.4-3.19c14.76-3.28,29.52-6.57,44.27-9.86
		l36.77-8.19c0.63-0.15,1.22-0.28,1.72-0.28c0.52,0,0.84,0.14,1.17,0.52c4.8,5.4,10.78,9.28,16.56,13.03
		c0.36,0.23,0.72,0.47,1.08,0.7l-1.46,6.16c-1.62,6.85-3.25,13.71-4.85,20.57c-0.63,2.7,0.27,4.73,2.67,6.04
		c2.38,1.3,4.77,2.72,7.07,4.1c2.18,1.3,4.43,2.64,6.69,3.89c1.14,0.63,1.74,1.07,1.79,1.31c0,0.02,0.08,0.42-0.8,1.62
		c-3.25,4.42-6.35,9.36-9.23,14.66c-0.54,0.99-1.44,1.58-2.49,2.26c-0.98,0.63-2.07,1.34-2.9,2.46c-1.87,0.75-3.54,1.8-5.16,2.82
		c-2.05,1.29-3.99,2.5-6.2,3.08c-0.38,0.06-0.77,0.12-1.15,0.18c-0.92,0.13-1.87,0.27-2.83,0.52l-3.15,0.82
		c-16.06,4.17-32.67,8.47-48.99,12.77c-9.24,2.44-18.63,4.96-27.71,7.39c-4.08,1.1-8.16,2.19-12.24,3.29
		c-0.29,0.05-0.59,0.09-0.88,0.13c-0.75,0.11-1.52,0.22-2.3,0.42l-4.33,1.12c-8.69,2.24-17.67,4.56-26.49,6.93
		C1473.48,577.04,1473.08,577.11,1472.81,577.11z"/>
	<path class="st0" d="M1269.94,538.31c4.25-6.01,6.57-12.87,8.82-19.54c0.59-1.73,1.19-3.52,1.82-5.26
		c1.52-4.21,1.54-8.64,0.06-13.55c-0.26-0.86-0.51-1.73-0.77-2.59c-1.46-4.99-2.98-10.16-5.8-14.91c-1.63-2.75-2.31-6.12-2.6-8.47
		c-0.69-5.6-2.16-11.3-4.78-18.45c-1.29-3.52-1.88-6.57-0.57-10.02c1.63-4.28,1.67-8.75,1.72-13.07c0.02-1.78,0.03-3.61,0.17-5.37
		c0.2-2.7,1.21-5.45,2.99-8.18c2.72-4.17,5.2-8.08,7.47-12.55c0.36,1.44,0.71,2.75,1.18,4.05c0.03,0.09,0.07,0.35,0.1,0.55
		c0.12,0.81,0.48,3.27,3.07,3.27c0.39,0,0.8-0.06,1.25-0.18c0.2-0.05,0.4-0.1,0.59-0.15c1.77-0.43,4.74-1.15,4.32-5.15
		c-0.22-2.07-0.38-4.19-0.54-6.25c-0.1-1.35-0.2-2.7-0.32-4.05c-0.17-1.99,0.16-2.26,1.57-2.47c1.68-0.25,2.91-0.93,3.64-2.04
		c1.24-1.87,0.61-4.29,0.19-5.88l-0.11-0.42c-0.64-2.53,0.31-3.52,2.2-5.51c0.2-0.21,0.4-0.42,0.6-0.64
		c3.01-3.22,5.8-4.72,8.77-4.72c2.42,0,5.17,1.01,8.41,3.09c5.72,3.67,11.93,6.7,17.94,9.63c2.65,1.29,5.39,2.63,8.03,3.99
		c0.19,0.1,0.41,0.2,0.63,0.3c0.17,0.08,0.43,0.19,0.6,0.29c0.6,2.31,1.49,4.55,2.35,6.71c2.06,5.15,4,10.02,2.07,15.65
		c-0.64,1.86-1.29,3.72-1.94,5.58c-2.62,7.48-5.32,15.21-7.14,23.13c-0.07,0.29-0.14,0.58-0.22,0.88c-0.58,2.3-1.46,5.78,1.52,7.86
		c0.89,0.62,1.82,0.93,2.76,0.93c2.03,0,3.57-1.43,4.81-2.58c0.41-0.38,0.79-0.74,1.15-1.01c1.71-1.29,3.24-3.19,4.21-5.21
		c2.52-5.27,7.42-6.97,12.6-8.76c0.79-0.27,1.58-0.55,2.37-0.83c0.19-0.07,0.3-0.08,0.35-0.08c0.1,0,0.32,0.18,0.8,1.06
		c1.67,3.04,3.36,6.07,5.06,9.1c3.7,6.62,7.53,13.46,11.01,20.32c2.27,4.48,3.18,9.96,2.76,16.74l-0.01,0.25
		c-0.01,0.27-0.04,0.68-0.09,0.9c-0.09-0.08-0.18-0.17-0.26-0.25c-0.2-0.2-0.43-0.43-0.72-0.63c-0.25-0.19-0.57-0.59-0.87-0.99
		c-0.73-0.94-1.72-2.22-3.35-2.22c-0.44,0-0.89,0.1-1.33,0.3c-2.98,1.35-2.41,5.18-2.17,6.81c0.87,5.9-1.21,11.1-3.4,16.61
		c-0.44,1.1-0.87,2.19-1.29,3.29l-0.04,0.1c-2.01,5.35-4.09,10.88-4.76,16.8c-3.65,0.82-7.43,1.29-11.1,1.75
		c-3.02,0.37-6.15,0.76-9.21,1.34c-1.38,0.26-2.77,0.4-4.24,0.55c-2.82,0.28-5.74,0.57-8.54,1.78c-0.66-0.22-1.36-0.33-2.12-0.33
		c-0.91,0-1.76,0.15-2.57,0.29c-0.33,0.06-0.65,0.11-0.97,0.16c-5.96,0.82-12.02,1.7-17.87,2.55c-5.89,0.86-11.98,1.74-17.97,2.57
		c-2.68,0.37-5.4,0.8-8.02,1.22C1279.53,537.11,1274.73,537.87,1269.94,538.31z"/>
	<path class="st0" d="M1418.32,645.68c-2.82-1.4-5.13-3.54-7.56-5.8c-0.58-0.54-1.16-1.08-1.75-1.6c-2.24-2.01-4.31-2.95-6.51-2.95
		c-1.2,0-2.42,0.27-3.72,0.84c-7.13,3.09-14.5,3.52-21.39,3.52c-2.16,0-4.38-0.05-6.52-0.1c-1.1-0.02-2.02-0.39-3.1-0.81l-0.63-0.25
		c-2.32-0.89-4.63-1.97-6.87-3.01c-3.46-1.61-7.02-3.27-10.83-4.36c-1.16-3.96-1.6-8.01-2.08-12.28c-0.22-2.02-0.45-4.11-0.76-6.16
		c-3.09-20.39-5.55-37.43-7.71-53.63c-0.39-2.89-0.85-5.8-1.3-8.63c-0.92-5.82-1.87-11.82-2.19-17.79c2.24-0.87,4.64-1.11,7.18-1.36
		c1.48-0.15,3.01-0.3,4.52-0.59c2.96-0.56,6.04-0.94,9.01-1.31c3.99-0.49,8.11-1.01,12.14-1.97c1.4,0.42,2.81,0.83,4.21,1.24
		c3.49,1.02,7.1,2.07,10.58,3.26c2.1,0.72,4.02,1.07,5.89,1.07c2.55,0,4.94-0.65,7.31-1.99c5.56-3.14,11.58-5.63,17.4-8.04
		c2.97-1.23,6.04-2.5,9.03-3.85c5.21-2.35,9.09-5.37,11.86-9.25c2.68-3.75,6.41-6.24,10.36-8.87c1.36-0.91,2.76-1.84,4.12-2.83
		c1.04,3.56,2.08,7.12,3.11,10.67c3.51,12.03,7.13,24.46,10.78,36.67c0.45,1.49,0.51,3.07,0.58,4.73c0.07,1.72,0.15,3.49,0.65,5.27
		c-0.75,1.88-0.69,3.79-0.64,5.49c0.04,1.27,0.08,2.47-0.2,3.57c-1.85,7.39-3.56,14.94-5.23,22.24l-0.25,1.08
		c-0.51,2.26-1.44,3.56-3.18,4.51c-1.95,1.05-3.86,2.23-5.7,3.37c-2.06,1.27-4.18,2.59-6.33,3.7c-3.47,1.8-4.89,4.31-4.75,8.41
		c0.09,2.48,0.18,5.05-0.36,5.62c-0.53,0.55-2.98,0.57-5.57,0.59c-1.16,0.01-2.83,0.16-3.96,1.34c-1.12,1.17-1.22,2.84-1.17,4.16
		c0.06,1.82,0.03,3.69,0,5.5c-0.04,2.54-0.08,5.16,0.11,7.76c0.33,4.42-0.71,6.84-3.73,8.63c-1.56,0.92-2.83,2.17-4.07,3.38
		C1418.86,645.16,1418.59,645.43,1418.32,645.68z"/>
	<path class="st0" d="M1243.75,716.85c-0.41-0.68-0.21-1.25,0.72-2.28c2.82-3.12,5.52-6.41,8.14-9.59c1.32-1.61,2.65-3.22,3.99-4.82
		c2.47-2.93,2.73-6.41,2.96-9.48c0.09-1.21,0.18-2.34,0.38-3.44c0.76-4.13,0.96-8.35,1.15-12.44c0.24-5.27,0.49-10.73,2.01-15.86
		c0.49-1.67,0.19-3.54-0.8-4.88c-5.26-7.18-4.05-15.47-2.88-23.49c0.11-0.79,0.23-1.58,0.34-2.36c1.43-10.32,0.46-20.48-0.47-30.31
		l-0.29-3.02c-0.86-9.3-1.85-18.74-2.8-27.87c-0.29-2.75-0.58-5.51-0.86-8.26c-0.35-3.38-0.73-6.76-1.12-10.14
		c-0.05-0.4-0.09-0.81-0.14-1.21c0.82,0.32,1.64,0.48,2.48,0.48c2.08,0,4.14-0.95,6.31-2.9c0.95-0.85,1.98-1.61,3.07-2.42
		c0.37-0.27,0.74-0.55,1.11-0.83c5.97-0.37,11.91-1.31,17.66-2.22c2.61-0.41,5.31-0.84,7.96-1.21c6-0.83,12.1-1.71,17.99-2.57
		c5.85-0.85,11.9-1.73,17.85-2.55c0.36-0.05,0.72-0.11,1.09-0.18c0.72-0.13,1.39-0.24,2.02-0.24c0.22,0,0.42,0.01,0.61,0.04
		c0.32,6.14,1.29,12.23,2.22,18.14c0.44,2.8,0.9,5.7,1.28,8.55c2.17,16.22,4.62,33.28,7.72,53.68c0.3,1.99,0.53,4.05,0.75,6.03
		c0.5,4.5,1.01,9.15,2.44,13.65c0.85,4.08-0.64,6.62-4.81,8.21c-0.95,0.36-1.75,0.9-2.53,1.42c-0.59,0.39-1.14,0.76-1.69,1.01
		c-4.99,2.23-7.02,5.75-6.22,10.77c0.63,3.99-0.36,7.42-3.05,10.48c-1.94,2.21-3.66,4.61-5.34,6.93c-0.72,1.01-1.45,2.01-2.19,3
		c-3.03,4.06-3.88,5.11-5.37,5.11c-1.26,0-3.3-0.69-6.13-1.64c-1.18-0.4-2.16-0.58-3.09-0.58c-1.73,0-3.29,0.65-4.92,2.05l-0.4,0.34
		c-3.01,2.58-6.12,5.25-8.73,8.35c-4.46,5.29-9.45,7.65-16.17,7.65c-0.53,0-1.07-0.01-1.62-0.04c-0.33-0.02-0.66-0.03-0.99-0.03
		c-6.4,0-12.28,3.35-16.12,9.19C1253.64,710.6,1248.5,714.14,1243.75,716.85z"/>
	<path class="st0" d="M1647.09,399.76c-2.75-5.88-5-12.07-7.18-18.08c-0.95-2.61-1.93-5.31-2.95-7.96
		c-5.68-14.84-11.39-29.94-16.91-44.56l-3.64-9.62c-0.2-0.52-0.35-1.07-0.5-1.65c6.43-3.31,13.24-6.05,19.85-8.7
		c2.85-1.14,5.8-2.33,8.69-3.54c1.55-0.65,3.1-1.35,4.6-2.03c3.36-1.52,6.82-3.08,10.38-4.15c2.63,6.92,2.96,14.26,2.62,23.03
		c-0.02,0.49-0.26,0.86-1.03,1.59c-0.58,0.55-1.15,1.12-1.72,1.69c-1.49,1.49-2.9,2.9-4.56,4.03c-3.9,2.64-4.89,5.91-3.09,10.27
		c2.39,5.82,4.16,12.08,5.78,17.99c1.17,4.29,1.46,8.87,1.74,13.3c0.12,1.87,0.24,3.81,0.43,5.72l0.34,3.57
		c0.5,5.19,1.02,10.56,1.69,15.83c0.18,1.27,0.09,2.18-0.27,2.59c-0.34,0.39-1.15,0.59-2.4,0.59c-0.38,0-0.77-0.02-1.19-0.05
		c-1.02-0.07-2.1-0.11-3.3-0.11c-1.65,0-3.31,0.07-4.92,0.14C1648.73,399.7,1647.91,399.73,1647.09,399.76z"/>
	<path class="st0" d="M407.98,805.44c-3.76-4.99-7.64-10.15-11.43-15.24c-20.55-27.64-41.09-55.28-61.61-82.94
		c-9.65-13.01-19.3-26.03-28.95-39.05c-11.02-14.87-22.04-29.74-33.07-44.6c-1.08-1.46-1.32-2.98-0.81-5.08
		c5.51-22.47,11-44.95,16.48-67.43l1.87-7.65c2.19-8.97,4.37-17.95,6.55-26.93l2.51-10.3l16.07,2.96
		c19.31,3.56,38.62,7.12,57.94,10.66c2.33,0.43,4.7,0.79,6.99,1.14c1.07,0.16,2.14,0.33,3.21,0.5l13.71,2.52
		c22.26,4.1,45.29,8.33,67.92,12.56c0.38,0.07,0.77,0.11,1.18,0.15c0.62,0.06,1.08,0.11,1.43,0.25c-0.03,0.16-0.06,0.32-0.1,0.49
		c-0.21,1.08-0.43,2.19-0.59,3.32c-1.05,7.49-2.09,14.98-3.13,22.47l-1.38,9.95l-2.62,18.85c-1.62,11.64-3.24,23.28-4.85,34.92
		l-1.18,8.51c-2.14,15.48-4.36,31.49-6.5,47.25c-1.66,12.2-3.28,24.41-4.91,36.62c-0.71,5.34-1.42,10.67-2.13,16.01
		c-0.36,2.4-0.74,4.81-1.13,7.23c-0.91,5.74-1.86,11.68-2.48,17.58c-0.41,3.91-2.44,6.93-4.58,10.12l-0.16,0.23
		c-0.38,0.57-0.83,0.78-1.65,0.78c-0.57,0-1.22-0.11-1.86-0.22c-0.44-0.08-0.88-0.15-1.29-0.19c-0.53-0.06-1.03-0.08-1.48-0.08
		c-4.76,0-6.11,3.22-6.8,6.37l-0.82,3.74c-2.1,9.56-4.27,19.42-6.98,29.01C410.22,808.41,409.1,806.93,407.98,805.44z"/>
	<path class="st0" d="M1001.11,885.07c-0.31,0-0.94,0-1.9-1.68c-0.37-0.65-0.72-1.4-1.09-2.2c-1.28-2.72-2.73-5.81-5.69-6.39
		c-0.3-0.06-0.62-0.09-0.93-0.09c-2.66,0-5.06,2.11-7.18,3.96c-0.53,0.46-1.04,0.91-1.54,1.31c-1.42,1.14-3.01,1.64-5.16,1.64
		c-1.04,0-2.1-0.11-3.22-0.22c-0.53-0.06-1.07-0.11-1.6-0.15l-0.77-0.06c-2.05-0.17-4.18-0.34-6.29-0.34
		c-2.11,0-3.98,0.18-5.72,0.54c-0.73,0.15-1.42,0.23-2.05,0.23c-2.07,0-3.63-0.78-4.89-2.44c-3.36-4.42-7.94-6.57-14.01-6.57
		c-0.8,0-1.64,0.04-2.52,0.11c-2.09,0.17-3.94,0.26-5.64,0.26c-6.4,0-11.45-1.21-15.88-3.82c-1.67-0.98-1.7-1.19-1.6-1.93
		c0.23-1.57-0.04-2.81-0.79-3.67c-0.71-0.82-1.78-1.24-3.17-1.24c-0.33,0-0.69,0.02-1.06,0.07c-0.07,0.01-0.13,0.01-0.2,0.01
		c-0.14,0-0.29-0.01-0.44-0.02c-0.21-0.01-0.41-0.02-0.62-0.02c-0.32,0-0.6,0.03-0.87,0.08c-1.1,0.22-2.19,0.33-3.25,0.33
		c-5.99,0-10.82-3.5-15.26-7.09c-0.96-0.77-0.99-1.51-0.99-3.1l0-0.27c0-5.38-0.01-10.76-0.01-16.14
		c-0.02-15.69-0.04-31.92,0.1-47.87c0.02-1.91-0.15-3.87-1.47-5.2c-1.31-1.32-3.27-1.49-4.84-1.49l-0.09,0
		c-23.66,0.12-47.72,0.12-70.99,0.13c-6.75,0-13.5,0-20.25,0.01l-0.03-18.59l30.64,1.2c1.17,0.75,2.44,0.93,3.57,1.1l0.1,0.02
		c6.46,0.95,13.49,1.42,21.47,1.42c2.02,0,4.08-0.03,6.3-0.09c21.56-0.56,42.67-1.16,63.91-2.29c28.79-1.54,58.04-3.45,86.33-5.29
		l8.18-0.53c10.25-0.67,20.66-1.5,30.72-2.3c4.26-0.34,8.52-0.68,12.78-1.01c0.09,0.37,0.13,0.79,0.18,1.27
		c0.04,0.38,0.08,0.75,0.14,1.12c0.42,2.57,0.73,5.22,1.02,7.78c0.49,4.25,1,8.64,2.04,12.93c0.83,12.68,2.83,25.52,4.59,36.84
		l0.35,2.27c2.58,16.51,5.24,33.58,4.35,50.62c-0.23,4.35-0.14,8.76-0.05,13.02c0.02,1.16,0.05,2.33,0.06,3.49
		c-3.53-1.49-6.98-3.28-10.32-5.03c-1.96-1.02-3.99-2.08-6.02-3.07c-2.18-1.06-4.38-1.54-7.12-1.54h-0.1
		c-13.11,0.05-25.92,3.12-39.15,9.38C1002.28,884.86,1001.59,885.07,1001.11,885.07z"/>
	<path class="st0" d="M1087.1,904.19c-0.04-4.44-0.08-9.03,0.04-13.53c0.03-1.16-0.06-2.84-1.17-3.99c-1.08-1.1-2.62-1.23-3.69-1.23
		c-0.15,0-0.3,0-0.46,0.01c-1.49,0.05-3.12,0.08-4.99,0.08c-1.68,0-3.36-0.02-5.04-0.04c-0.89-0.01-1.78-0.02-2.66-0.03
		c-0.02-1.44-0.05-2.89-0.08-4.33c-0.09-4.21-0.17-8.56,0.05-12.79c0.91-17.38-1.78-34.62-4.38-51.28l-0.35-2.26
		c-1.68-10.77-3.57-22.92-4.45-34.93c1.85-0.02,3.65-0.28,5.39-0.54c0.73-0.11,1.46-0.21,2.2-0.3c5.01-0.61,10.03-1.18,15.05-1.75
		c4.86-0.56,9.72-1.11,14.57-1.7c11.33-1.36,23.59-2.88,37.48-4.63c5.51-0.69,11.02-1.41,16.52-2.12
		c6.05-0.79,12.11-1.57,18.17-2.33c8.78-1.1,17.72-2.16,26.37-3.18c0,0,2.95-0.35,3-0.35c-0.03,0.06-0.06,0.12-0.09,0.19
		c-1,2.03-1.96,4.11-2.89,6.11c-1.05,2.27-2.14,4.61-3.26,6.87c-0.63,1.26-1.17,2.71-0.4,3.96c0.85,1.38,2.73,1.38,3.44,1.38l0.26,0
		c3.41-0.07,6.85-0.08,9.77-0.08l6.45,0c-0.14,0.53-0.35,1.08-0.58,1.67c-0.15,0.4-0.31,0.79-0.44,1.19
		c-2.98,8.77-5.98,17.54-8.98,26.31l-2.96,8.64l-5.33,10.24c-5.11,9.83-10.4,20-15.65,29.97c-1.44,2.73-2.09,5.39-2.06,8.37
		c0.09,8.37,0.08,16.88,0.08,25.12c0,2.58,0,5.17,0,7.75l-18.52,1.55c-14.9,1.25-29.79,2.5-44.69,3.74
		c-6.27,0.52-12.54,1.02-18.81,1.51l-6.86,0.54C1087.13,906.73,1087.12,905.46,1087.1,904.19z"/>
	<path class="st0" d="M787.73,759.86c-8.3-0.92-16.74-1.15-24.91-1.37c-3.49-0.1-7.09-0.2-10.63-0.35
		c-36.26-1.55-75.24-3.19-114.6-4.68c-2.91-0.11-5.87-0.26-8.73-0.4c-5.78-0.29-11.75-0.59-17.65-0.59c-2.01,0-3.87,0.03-5.7,0.1
		l-0.18,0c-0.77,0-1.59-0.17-2.45-0.36c-0.85-0.18-1.73-0.37-2.67-0.42c0.13-2.03,0.25-4.06,0.38-6.09
		c0.36-5.99,0.74-12.19,1.31-18.25c0.66-6.95,1.21-14.02,1.68-20.26c0.51-6.65,1.14-13.41,1.76-19.95
		c0.42-4.49,0.85-9.14,1.25-13.71c0.18-2.08,0.37-4.16,0.55-6.24c0.47-5.24,0.97-10.66,1.28-16.03c0.7-12.18,1.94-24.55,3.05-35.19
		c0.28-2.66,0.47-5.37,0.66-7.99c0.33-4.55,0.66-9.25,1.45-13.81l11.29,0.81c9.43,0.68,18.86,1.35,28.29,2.03
		c7.57,0.54,15.15,1.08,22.72,1.63c21.4,1.54,43.52,3.13,65.29,4.57c1.98,0.13,4.01,0.32,5.98,0.5c3.7,0.34,7.52,0.7,11.34,0.7
		c1.53,0,2.95-0.06,4.33-0.17c4.68,0.01,9.37,0.03,14.05,0.05c6.31,0.03,12.62,0.06,18.93,0.06c7.45,0,13.69-0.04,19.62-0.12l0.24,0
		c1.38,0,2.25,0.18,2.59,0.53c0.47,0.48,0.51,1.94,0.49,3c-0.14,9.65-0.08,19.46-0.02,28.94c0.02,3.66,0.05,7.31,0.06,10.97
		l0.02,113.29L787.73,759.86z"/>
	<path class="st0" d="M597,751.77c-4.89-0.59-9.78-1.19-14.67-1.78c-12.38-1.51-25.17-3.07-37.77-4.52
		c-6.58-0.76-13.28-1.45-19.75-2.11c-6.35-0.65-12.91-1.32-19.35-2.06c-5.83-0.67-11.75-1.41-17.48-2.14
		c-8.99-1.13-18.3-2.3-27.48-3.21c-2.26-0.22-4.57-0.53-6.8-0.84c-3.17-0.43-6.43-0.87-9.72-1.08l1.86-13.96
		c1.64-12.31,3.28-24.63,4.95-36.93c2.14-15.75,4.36-31.76,6.5-47.25l1.18-8.5c1.61-11.65,3.23-23.3,4.86-34.94l2.62-18.82
		l1.38-9.95c1.04-7.49,2.08-14.98,3.13-22.46c0.15-1.04,0.35-2.06,0.56-3.15c0.01-0.03,0.01-0.06,0.02-0.09
		c5.53,0.39,11.1,1.24,16.51,2.06c3.12,0.47,6.34,0.97,9.53,1.36c5.23,0.66,10.55,1.42,15.69,2.16c5.54,0.8,11.26,1.62,16.91,2.31
		c2.95,0.36,5.95,0.81,8.85,1.25c5.73,0.86,11.64,1.76,17.6,2.01c-0.05,0.91-0.11,1.77-0.22,2.62c-1.43,10.78-2.9,21.92-4.42,32.86
		c-0.19,1.38-0.25,2.96,0.77,4.13c1.03,1.18,2.63,1.32,3.75,1.32c0,0,0.4,0,0.4,0c2.51,0,5.09,0.23,7.59,0.46
		c1.04,0.09,2.09,0.19,3.13,0.27c11.06,0.84,22.12,1.68,33.18,2.52l10.08,0.77c-0.78,4.61-1.11,9.28-1.44,13.82
		c-0.19,2.59-0.38,5.27-0.65,7.88c-1.11,10.67-2.36,23.09-3.06,35.34c-0.31,5.31-0.79,10.71-1.27,15.92
		c-0.19,2.08-0.38,4.17-0.56,6.25c-0.39,4.56-0.82,9.2-1.24,13.68c-0.61,6.55-1.25,13.32-1.76,20c-0.48,6.22-1.02,13.28-1.68,20.2
		c-0.58,6.12-0.96,12.34-1.32,18.36C597.26,747.61,597.13,749.69,597,751.77z"/>
	<path class="st0" d="M1204.96,811.6c3-8.77,6-17.55,8.99-26.33c0.12-0.36,0.26-0.71,0.39-1.06c0.47-1.2,0.99-2.54,0.97-4.1
		c0.02-0.05,0.05-0.09,0.07-0.14c0.23-0.45,0.5-0.96,0.64-1.57c1.49-6.46,2.96-12.92,4.43-19.39l0.93-4.1
		c0.89-0.13,1.78-0.26,2.66-0.39c2.66-0.39,5.41-0.79,8.12-1.23c21.8-3.52,46.51-7.51,70.92-11.5c24.48-4,48.47-7.94,71.29-11.71
		c6.41-1.06,12.91-2.19,19.2-3.28c2.91-0.5,5.81-1.01,8.72-1.51c0.03-0.01,0.07-0.01,0.1-0.02l9.45-2.24
		c15.44-3.66,30.88-7.32,46.33-10.97c-0.32,1.05-0.65,2.11-0.97,3.16c-1.44,4.68-2.93,9.52-4.34,14.29
		c-0.53,1.79-1.32,2.8-2.73,3.51c-16.28,8.14-30.62,19.43-44.49,30.35c-3.63,2.86-7.39,5.82-11.12,8.67c-1.27,0.97-2,2.02-2.36,3.38
		c-0.43,1.61-0.9,3.25-1.37,4.84c-0.96,3.28-1.95,6.67-2.56,10.16c-3.42,1.13-6.97,1.59-10.7,2.08c-1.95,0.26-3.97,0.52-5.95,0.89
		c-5.35,0.99-10.8,1.92-16.08,2.82c-2.26,0.39-4.53,0.77-6.79,1.16c-5.48,0.13-10.83,1.21-16.01,2.25
		c-2.62,0.53-5.32,1.07-7.99,1.48c-12.7,1.95-25.57,4.19-38.01,6.35c-5.33,0.93-10.67,1.86-16.01,2.76
		c-1.23,0.21-2.47,0.39-3.7,0.58l-1.76,0.27c-4.03,0.46-8.12,0.94-12.21,1.41c-9.66,1.12-19.66,2.28-29.49,3.36
		c-2.38,0.26-4.79,0.59-7.11,0.9c-4.49,0.6-9.12,1.23-13.72,1.42L1204.96,811.6z"/>
	<path class="st0" d="M1432.76,780.6c-0.31,0.44-0.33,1.3-1.24,0.86C1431.93,781.18,1432.34,780.89,1432.76,780.6z"/>
	<path class="st0" d="M1227.05,739.02c4.7-4.62,10.22-6.87,16.86-6.87c1.48,0,3.05,0.12,4.64,0.35c0.19,0.03,0.38,0.04,0.58,0.04
		c0.38,0,0.75-0.05,1.18-0.1c0.29-0.04,0.62-0.08,1.02-0.11c0.56-0.05,1.06-0.39,1.31-0.9c0.25-0.51,0.21-1.11-0.1-1.58l-6.87-10.39
		c4.99-2.88,10.37-6.66,14.27-12.58c3.24-4.92,8.14-7.75,13.44-7.75c0.27,0,0.54,0.01,0.82,0.02c0.61,0.03,1.2,0.05,1.79,0.05
		c7.65,0,13.57-2.79,18.62-8.79c2.44-2.9,5.46-5.48,8.37-7.98l0.4-0.34c1.31-1.13,2.17-1.28,2.83-1.28c0.57,0,1.23,0.13,2.07,0.42
		c3.23,1.09,5.36,1.81,7.15,1.81c3.15,0,4.64-1.98,7.89-6.33c0.8-1.07,1.53-2.09,2.27-3.11c1.63-2.26,3.31-4.6,5.14-6.69
		c3.31-3.77,4.59-8.18,3.81-13.1c-0.56-3.53,0.74-5.72,4.36-7.34c0.8-0.36,1.49-0.82,2.16-1.27c0.66-0.44,1.28-0.85,1.89-1.09
		c4.76-1.82,7.17-5.04,7.09-9.39c3,0.99,5.87,2.33,8.88,3.73c2.29,1.07,4.66,2.17,7.08,3.1l0.59,0.23c1.25,0.49,2.53,1,4.13,1.04
		c2.24,0.05,4.47,0.1,6.67,0.1c6.89,0,14.98-0.45,22.67-3.78c0.9-0.39,1.7-0.58,2.45-0.58c1.39,0,2.73,0.66,4.37,2.13
		c0.57,0.51,1.14,1.04,1.71,1.57c2.58,2.39,5.23,4.85,8.6,6.46c0.28,1,0.88,1.76,1.47,2.4c1.62,1.75,3.25,3.5,4.87,5.25
		c4.5,4.83,9.15,9.82,13.52,14.88c0.7,0.8,1.44,1.57,2.16,2.31c1.52,1.56,2.97,3.05,3.93,4.83c-3.01,2.87-6.02,5.74-9.02,8.61
		c-9.99,9.54-20.33,19.4-30.57,29.01c-1.55,1.46-3.24,3.46-3.25,6.42c-2.42,0.42-4.85,0.84-7.27,1.26
		c-6.28,1.09-12.78,2.22-19.17,3.28c-22.82,3.78-46.8,7.72-71.29,11.71c-24.42,3.99-49.12,7.98-70.92,11.5
		c-2.7,0.44-5.45,0.84-8.12,1.22c-0.35,0.05-0.7,0.1-1.05,0.15L1227.05,739.02z"/>
	<path class="st0" d="M1465.1,684.66c-0.6,0-1.24-0.15-2.01-0.46c-1.69-0.7-3.4-1.45-5.05-2.18c-3.79-1.67-7.69-3.4-11.79-4.63
		c-1.18-2.45-2.99-4.3-4.74-6.1c-0.72-0.74-1.4-1.44-2.03-2.17c-4.42-5.1-9.09-10.12-13.6-14.97c-1.62-1.74-3.25-3.49-4.86-5.24
		c-0.29-0.32-0.49-0.56-0.61-0.79c0.33-0.32,0.66-0.64,0.98-0.95c1.15-1.13,2.24-2.19,3.46-2.92c5.24-3.1,5.58-7.84,5.29-11.63
		c-0.19-2.45-0.15-5-0.11-7.47c0.03-1.85,0.06-3.76,0-5.66c-0.04-1.3,0.16-1.71,0.28-1.84c0.1-0.1,0.46-0.35,1.68-0.35
		c3.99-0.03,6.39-0.05,7.86-1.58c1.48-1.54,1.39-3.95,1.25-7.95c-0.1-2.86,0.66-4.23,3.02-5.45c2.26-1.17,4.44-2.52,6.54-3.82
		c1.8-1.11,3.66-2.27,5.53-3.28c2.55-1.38,4.07-3.48,4.79-6.62l0.25-1.08c1.66-7.28,3.37-14.82,5.21-22.18
		c0.02-0.08,0.04-0.15,0.05-0.23c0.89,3.75,1.78,7.58,2.55,11.36c0.19,0.94,0.78,3.81,3.78,3.81c0.57,0,1.22-0.1,2.04-0.32
		c8.8-2.37,17.78-4.68,26.46-6.92l4.33-1.12c0.43-0.11,0.89-0.19,1.36-0.27c0.56,3.46,1.5,6.82,2.42,10.08
		c0.81,2.89,1.65,5.88,2.19,8.85c0.47,2.58,2.72,3.37,3.47,3.63c2.81,0.99,5.35,1.47,7.77,1.47c1.11,0,2.21-0.11,3.26-0.31
		c4.05-0.8,8.14-1.66,12.1-2.5c5.33-1.13,10.83-2.3,16.26-3.3c0.75-0.14,1.46-0.39,2.14-0.64c0.84-0.3,1.64-0.59,2.34-0.59
		c0.1,0,0.2,0.01,0.3,0.02c-1.73,3.93-3.79,7.78-5.79,11.52c-1.57,2.94-3.2,5.98-4.67,9.06c-0.36,0.75-1.02,1.17-2.06,1.78
		c-0.85,0.5-1.79,1.06-2.54,1.97c-4.49,2.08-8.69,4.7-12.75,7.23c-2.06,1.29-4.2,2.62-6.33,3.85c-3.11,1.8-6.23,3.68-9.25,5.5
		c-3.49,2.1-7.09,4.28-10.68,6.32c-2.53,1.44-3.97,3.33-4.67,6.11c-0.99,3.94-2.06,7.93-3.09,11.79
		c-1.33,4.99-2.71,10.15-3.95,15.26c-0.47,1.94-1.3,2.95-3.18,3.85c-8.22,3.94-15.73,7.66-22.95,11.37
		C1466.49,684.46,1465.79,684.66,1465.1,684.66z"/>
	<path class="st0" d="M1622.15,557.9c-4.19-5.22-5.53-11.32-5.59-17.84C1619.18,545.77,1621.05,551.72,1622.15,557.9z"/>
	<path class="st0" d="M1622.96,560.32c-1.05-0.54-0.86-1.49-0.81-2.4C1623.22,558.45,1622.94,559.44,1622.96,560.32z"/>
	<path class="st0" d="M1623.52,561.11c-0.2-0.27-0.39-0.55-0.59-0.82C1623.13,560.56,1623.33,560.84,1623.52,561.11z"/>
	<path class="st0" d="M1597.87,601.11c-10.07-4.57-20.48-9.29-30.73-13.9c-0.31-0.14-0.61-0.31-0.91-0.48
		c-0.91-0.51-2.04-1.14-3.39-1.14c-0.46,0-0.92,0.07-1.37,0.22c-0.78-0.42-1.63-0.63-2.52-0.63c-1.25,0-2.4,0.41-3.42,0.77
		c-0.59,0.21-1.15,0.41-1.64,0.5c-5.47,1.01-11,2.18-16.35,3.31c-3.95,0.84-8.03,1.7-12.06,2.49c-0.85,0.17-1.74,0.25-2.64,0.25
		c-2.05,0-4.24-0.42-6.71-1.29c-1.15-0.4-1.31-0.79-1.38-1.18c-0.56-3.12-1.42-6.18-2.25-9.14c-0.9-3.22-1.83-6.53-2.36-9.86
		c3.64-0.97,7.28-1.95,10.91-2.93c9.08-2.44,18.48-4.96,27.73-7.4c16.32-4.3,32.94-8.61,49.01-12.78l3.12-0.81
		c0.64-0.16,1.3-0.27,1.99-0.38c0.87,19.47,1.41,38.75,1.62,57.37L1597.87,601.11z"/>
	<path class="st0" d="M758.47,601.33c-3.67,0-7.41-0.35-11.04-0.69c-1.98-0.18-4.03-0.38-6.06-0.51
		c-21.76-1.43-43.88-3.03-65.27-4.57c-7.58-0.55-15.15-1.09-22.73-1.63c-9.45-0.67-18.89-1.35-28.34-2.03L612.37,591l-11.83-0.9
		c-11.06-0.84-22.13-1.68-33.19-2.52c-1.03-0.08-2.06-0.17-3.08-0.26c-2.57-0.23-5.23-0.47-7.88-0.47c0,0-0.33,0-0.34,0
		c-1.15,0-1.39-0.22-1.39-0.22c0,0-0.2-0.25-0.01-1.58c1.52-10.96,3-22.1,4.42-32.88c0.14-1.05,0.2-2.1,0.26-3.11
		c0.03-0.44,0.05-0.88,0.08-1.31c0.56-4.15,1.13-8.3,1.69-12.45c1.25-9.13,2.53-18.57,3.76-27.86c2.71-20.56,5.34-41.01,7.8-60.21
		c0.14-1.08,0.14-2.14,0.15-3.17c0-0.45,0-0.9,0.02-1.35c0.01-1.02,0.04-2.01,0.06-3c0.06-2.32,0.12-4.73,0.02-7.11
		c-0.03-0.77,0.06-1.04,0.09-1.1c0,0,0,0,0.01,0c0.04,0,0.23-0.05,0.64-0.05c0.16,0,0.33,0.01,0.51,0.02
		c11.28,0.81,22.74,1.58,33.83,2.32c5.47,0.37,10.94,0.73,16.41,1.1c11.02,0.75,22.03,1.51,33.05,2.28l33.39,2.32
		c17.45,1.21,34.91,2.43,52.36,3.62c5.32,0.36,10.72,0.69,15.95,1c1.89,0.11,3.78,0.23,5.67,0.34l-0.19,9.15
		c-0.17,8.29-0.34,16.59-0.53,24.88c-0.24,10.47-0.49,20.93-0.75,31.4l-0.32,13.31c-0.46,5.67-0.51,11.42-0.56,16.99
		c-0.04,4.25-0.07,8.65-0.3,12.96c-0.6,11.63-0.73,23.46-0.85,34.9c-0.05,4.34-0.09,8.8-0.17,13.22
		C760.3,601.31,759.41,601.33,758.47,601.33z"/>
	<path class="st0" d="M974.65,534.12c-1.7-0.43-3.42-0.84-5.09-1.24c-4.38-1.04-8.9-2.12-13.15-3.62c-3.44-1.22-6.43-1.81-9.13-1.81
		c-4.83,0-8.9,1.87-12.43,5.73c-0.35,0.38-0.68,0.61-0.88,0.61c-0.11,0-0.53-0.07-1.41-1.03c-0.96-1.04-1.98-2.01-2.97-2.94
		c-1.25-1.18-2.43-2.29-3.47-3.53c-2.65-3.15-5.9-4.56-10.51-4.56c-30.49,0.09-60.68,0.1-83.58,0.1c-12.16,0-62.19-0.01-62.19-0.01
		c-1.16,0-2.34-0.04-3.49-0.08c-0.02,0-0.04,0-0.07,0l0.28-11.77c0.25-10.47,0.51-20.94,0.74-31.41c0.19-8.3,0.36-16.59,0.53-24.89
		l0.22-10.68l0.3-6.94c0.29-6.56,0.57-13.13,0.84-19.69c0.01-0.32,0.02-0.63,0.02-0.95c0.02-0.95,0.03-1.81,0.25-2.57l24.92,0
		c57.67,0.01,115.34,0.01,173.01,0.03c0.66,0,1.32,0.01,1.99,0.03c-5.08,6.26-4.61,7.69,0.83,15.64c1.83,2.68,2.24,5.75,2.66,8.99
		c0.13,0.95,0.26,1.94,0.42,2.91c3.03,17.54,5.86,35.42,8.59,52.71l0.15,0.98c0.36,2.26,0.53,4.62,0.69,6.9
		c0.04,0.51,0.07,1.03,0.11,1.54h-7.36c-0.55,0-1.07,0.29-1.36,0.76c-0.29,0.47-0.32,1.06-0.07,1.56l1.11,2.24
		c0.64,1.28,1.18,2.36,1.7,3.44c0.68,1.41,1.54,2.82,2.36,4.19c1.72,2.84,3.51,5.78,3.36,8.27c-0.15,2.53-2.4,4.94-4.79,7.49
		C976.72,531.67,975.6,532.87,974.65,534.12z"/>
	<path class="st0" d="M1008.76,614.26c-0.45-0.86-0.36-1.89-0.19-3.35c0.05-0.46,0.1-0.91,0.13-1.35
		c0.63-10.54,0.18-21.62-7.32-31.3c-0.22-0.29-0.4-0.75-0.58-1.24c-0.07-0.18-0.13-0.36-0.2-0.53c-1.12-2.8-2.26-5.59-3.39-8.39
		c-3.05-7.51-6.2-15.28-9.07-23c-1.29-3.47-3.25-4.88-6.79-4.88c-0.19,0-0.38,0-0.58,0.01c-0.81,0.03-1.5,0.05-2.1,0.05
		c-1.43,0-1.75-0.15-1.81-0.2c-0.21-0.31-0.18-1.83-0.12-3.44c0.1-0.1,0.2-0.21,0.29-0.34c0.88-1.2,1.97-2.37,3.12-3.6
		c2.67-2.85,5.43-5.8,5.65-9.49c0.2-3.48-1.84-6.86-3.82-10.12c-0.82-1.36-1.6-2.64-2.22-3.92c-0.52-1.07-1.05-2.14-1.68-3.4h6.51
		c0.04,0,0.09,0,0.13-0.01c4.06-0.34,8.13-0.67,12.19-1c9.16-0.75,18.64-1.53,27.96-2.34c7.25-0.64,14.61-1.32,21.72-1.99
		c6-0.56,11.99-1.12,17.99-1.66c15.42-1.38,30.83-2.74,46.25-4.1l18.55-1.64c1.92,4.57,3.25,9.44,4.53,14.17
		c0.62,2.29,1.27,4.66,1.97,6.98c0.84,2.77,2.07,5.84,5.98,7.14c4.37,1.46,7.46,4.62,10.74,7.96c0.91,0.93,1.85,1.89,2.82,2.8
		c1.28,1.99,2.84,3.72,4.34,5.39c1.48,1.65,2.88,3.21,4.03,4.98c4.19,6.44,2.84,13.21,1.41,20.39l-0.08,0.42
		c-0.08,0.38-0.47,0.61-1.54,1.06c-0.18,0.08-0.35,0.15-0.52,0.23l-1.05,0.47c-3.35,1.5-6.81,3.06-10.24,4.49
		c-1.08,0.45-4.38,1.83-3.77,5.93c1.94,12.91-2.81,24.14-7.9,36c-1.39-1.22-2.53-2.73-3.73-4.32c-0.28-0.37-0.57-0.75-0.85-1.11
		c-2.15-2.78-4.81-4.07-8.37-4.07c-0.67,0-1.38,0.04-2.16,0.13c-15.51,1.76-31.87,3.53-50,5.42c-15.94,1.66-32.16,3.3-47.84,4.89
		C1021.02,613.01,1014.89,613.63,1008.76,614.26z"/>
	<path class="st0" d="M1195.46,778.26c-0.2,0-0.36-0.01-0.49-0.02c0.07-0.17,0.16-0.39,0.31-0.69c1.15-2.3,2.24-4.67,3.3-6.95
		c0.92-1.99,1.88-4.05,2.86-6.05c0.27-0.55,1.09-2.23,0.24-3.59c-0.35-0.57-1.1-1.24-2.68-1.24c-0.27,0-0.58,0.02-0.91,0.06
		l-2.81,0.33c-8.66,1.02-17.61,2.08-26.4,3.18c-6.06,0.76-12.12,1.55-18.18,2.33c-5.5,0.71-11,1.43-16.51,2.12
		c-13.88,1.75-26.14,3.26-37.46,4.63c-4.85,0.58-9.7,1.14-14.55,1.7c-5.02,0.57-10.05,1.15-15.07,1.76
		c-0.76,0.09-1.52,0.2-2.28,0.31c-1.77,0.26-3.44,0.5-5.12,0.5c-0.08,0-0.16,0-0.23,0c-0.84-3.79-1.29-7.71-1.74-11.52
		c-0.3-2.6-0.61-5.28-1.04-7.93c-0.05-0.31-0.08-0.61-0.11-0.92c-0.09-0.95-0.2-2.02-0.76-3.06c0.12-6.47-0.57-12.92-1.24-19.17
		c-0.39-3.6-0.79-7.31-1.02-10.97c-0.83-13.02-1.93-26.22-3-38.99c-0.31-3.76-0.63-7.52-0.94-11.28c-0.16-1.98-0.5-6.09-5.1-6.09
		c-0.46,0-0.95,0.04-1.51,0.11c-0.3,0.04-0.57,0.06-0.8,0.06c-0.74,0-1.44,0-1.81-1.98c-0.83-4.42-2.01-8.51-3.52-12.13
		c-1.29-3.1-0.86-4.93,1.56-6.74c0.54-0.41,2.2-1.65,1.87-3.4c-0.33-1.77-2.39-2.34-3.07-2.53c-2.1-0.58-4.22-1.29-6.28-1.98
		c-0.78-0.26-1.56-0.52-2.35-0.78c-1.16-1.28-2.34-2.55-3.51-3.83c-2.94-3.2-5.98-6.51-8.85-9.85c-0.72-0.84-1.49-1.65-2.23-2.42
		c-1.25-1.31-2.46-2.57-3.42-3.97c5.89-0.6,11.77-1.2,17.66-1.79c15.42-1.56,31.36-3.18,47.04-4.81
		c18.15-1.89,34.51-3.66,50.03-5.42c0.66-0.08,1.26-0.11,1.8-0.11c2.59,0,4.28,0.82,5.83,2.83c0.28,0.36,0.55,0.72,0.83,1.09
		c1.57,2.08,3.2,4.22,5.49,5.83c0.33,2.04,0.66,4.08,0.99,6.12c0.99,6.13,2.01,12.46,3.07,18.69c0.44,2.6,1.67,4.58,3.85,6.22
		l0.4,0.3c6.64,5.01,13.5,10.18,17.56,17.69c1.09,2.01,2.89,3.03,5.35,3.03c0.43,0,0.89-0.03,1.4-0.09
		c0.79-0.09,1.59-0.13,2.38-0.13c4.17,0,8.35,1.18,13.55,3.83c1.33,0.68,1.41,1.03,1.42,1.04c0,0,0.05,0.38-0.76,1.37
		c-1.22,1.49-2.28,3.11-3.3,4.66c-0.96,1.46-1.87,2.84-2.9,4.15c-2.41,3.04-2.24,5.49,0.6,8.45c7.27,7.57,15.28,14.18,22.85,20.19
		c2.4,1.9,3.42,4.6,4.17,7.22c1.75,6.14,5.72,10.91,9.55,15.52c0.89,1.07,1.79,2.15,2.65,3.23c0.52,0.65,1.06,1.29,1.61,1.92
		c0.04,0.05,0.08,0.1,0.13,0.15l-5.28,14.49c-0.02,0.06-0.04,0.13-0.06,0.19l-1.15,5.07c-1.48,6.49-2.96,12.99-4.45,19.48
		c-0.03,0.14-0.1,0.31-0.2,0.49l-7.19,0c-2.94,0-6.42,0.01-9.86,0.08L1195.46,778.26z"/>
	<path class="st0" d="M845,763.65c-7.83,0-14.7-0.45-21-1.38l-0.1-0.02c-0.71-0.1-1.36-0.2-1.9-0.42l-0.02-112.45c0,0,0.63,0,0.63,0
		c16.22,0,33.93-0.49,55.74-1.53c7.33-0.35,14.67-0.69,22-1.02c9.91-0.45,20.15-0.92,30.22-1.42c4.09-0.2,8.19-0.4,12.28-0.6
		c11.39-0.55,23.17-1.11,34.76-1.83c11.64-0.72,23.49-1.31,34.95-1.87c4.98-0.24,9.97-0.49,14.95-0.75
		c0.81,0.27,1.63,0.54,2.44,0.81c2.09,0.7,4.26,1.43,6.44,2.03c0.13,0.04,0.25,0.07,0.35,0.11c-0.06,0.05-0.13,0.11-0.22,0.17
		c-3.63,2.71-4.46,6.06-2.6,10.53c1.42,3.42,2.54,7.29,3.33,11.5c0.57,3.05,2.24,4.59,4.96,4.59c0.39,0,0.79-0.03,1.24-0.09
		c0.41-0.06,0.77-0.08,1.07-0.08c1.07,0,1.65,0,1.91,3.15c0.31,3.76,0.62,7.53,0.94,11.29c1.06,12.75,2.16,25.94,3,38.92
		c0.24,3.72,0.64,7.47,1.03,11.1c0.62,5.82,1.27,11.83,1.23,17.77c-4.14,0.32-8.29,0.65-12.43,0.98c-10.06,0.8-20.46,1.64-30.7,2.3
		l-8.18,0.53c-28.28,1.85-57.52,3.76-86.29,5.29c-21.2,1.13-42.29,1.73-63.82,2.29C849.02,763.63,846.98,763.65,845,763.65z"/>
	<path class="st0" d="M821.97,646.18c-0.01-3.13-0.03-6.26-0.05-9.38c-0.06-9.47-0.12-19.26,0.02-28.87
		c0.03-2.28-0.19-4.05-1.41-5.29c-1.29-1.31-3.28-1.48-4.87-1.48l-0.28,0c-5.84,0.08-12.24,0.12-19.58,0.12
		c-6.31,0-12.61-0.03-18.92-0.06c-4.17-0.02-8.33-0.04-12.5-0.05c0.07-4.38,0.12-8.8,0.17-13.09c0.12-11.41,0.25-23.21,0.85-34.77
		c0.23-4.38,0.26-8.81,0.3-13.1c0.04-5.02,0.09-10.19,0.44-15.28c0.04,0,0.08,0,0.11,0c1.18,0.04,2.39,0.08,3.6,0.08
		c0,0,50.04,0.01,62.2,0.01c22.9,0,53.08-0.01,83.51-0.1c3.74,0,6.08,0.99,8.12,3.42c1.16,1.38,2.46,2.6,3.72,3.79
		c1,0.94,1.94,1.82,2.81,2.78c0.82,0.89,2.1,2.07,3.77,2.07c1.15,0,2.24-0.56,3.25-1.65c2.93-3.2,6.13-4.69,10.07-4.69
		c2.33,0,4.96,0.53,8.06,1.63c4.41,1.56,9.02,2.66,13.48,3.72c1.54,0.37,3.12,0.74,4.68,1.14c-0.08,2.57,0.01,4.1,1.05,5.18
		c1.04,1.08,2.6,1.17,4.11,1.17c0.63,0,1.36-0.02,2.21-0.05c0.16-0.01,0.32-0.01,0.47-0.01c2.03,0,2.9,0.42,3.78,2.79
		c2.88,7.76,6.04,15.55,9.1,23.09c1.13,2.79,2.27,5.58,3.39,8.37c0.06,0.15,0.12,0.31,0.18,0.46c0.25,0.66,0.53,1.41,1.05,2.08
		c6.85,8.84,7.25,19.24,6.65,29.15c-0.02,0.38-0.07,0.78-0.12,1.18c-0.22,1.89-0.49,4.23,1.28,6.29c1.26,2.66,3.2,4.68,5.07,6.64
		c0.75,0.78,1.45,1.52,2.11,2.29c2.9,3.38,5.96,6.71,8.92,9.93c0.5,0.54,1,1.08,1.49,1.62c-3.95,0.2-7.9,0.39-11.84,0.59
		c-11.47,0.56-23.33,1.15-35,1.87c-11.56,0.72-23.33,1.28-34.72,1.83c-4.1,0.2-8.19,0.39-12.29,0.6
		c-10.07,0.5-20.31,0.97-30.21,1.42c-7.34,0.34-14.67,0.67-22.01,1.02c-21.76,1.04-39.42,1.53-55.59,1.53L821.97,646.18z"/>
</g>
</svg>
