<?xml version="1.0" encoding="utf-8"?>
<!-- Generator: Adobe Illustrator 25.4.1, SVG Export Plug-In . SVG Version: 6.00 Build 0)  -->
<svg version="1.1" id="quote-marks" xmlns="http://www.w3.org/2000/svg" xmlns:xlink="http://www.w3.org/1999/xlink" x="0px" y="0px"
	 viewBox="0 0 127.1 100.52" style="enable-background:new 0 0 127.1 100.52;" xml:space="preserve">
<style type="text/css">
	.quote-mark-white{fill:#FFFFFF;}
</style>
<g>
	<path class="quote-mark-white" d="M54.31,14.63c-12.32,7.32-25.42,23.11-27.73,36.2c0.77-0.38,3.85-0.77,6.54-0.77
		c12.71,0,22.72,10.01,22.72,24.26s-11.55,26.19-26.19,26.19C13.86,100.52,0,87.81,0,65.47C0,38.9,14.63,15.02,35.82,0L54.31,14.63z
		 M125.56,14.63c-12.32,7.32-25.42,23.11-27.73,36.2c0.77-0.38,3.86-0.77,6.55-0.77c12.71,0,22.72,10.01,22.72,24.26
		s-11.55,26.19-26.19,26.19c-15.79,0-29.66-12.71-29.66-35.05c0-26.57,14.63-50.45,35.82-65.47L125.56,14.63z"/>
</g>
</svg>
